<mxfile host="65bd71144e">
    <diagram name="Page-1" id="rEjstC9hXJoGX6QJFnWZ">
        <mxGraphModel dx="1812" dy="583" grid="1" gridSize="10" guides="1" tooltips="1" connect="1" arrows="1" fold="1" page="1" pageScale="1" pageWidth="1169" pageHeight="827" math="0" shadow="0">
            <root>
                <mxCell id="0"/>
                <mxCell id="1" parent="0"/>
                <mxCell id="k1trG14WXIsbstCnnh3n-4" style="edgeStyle=orthogonalEdgeStyle;rounded=0;orthogonalLoop=1;jettySize=auto;html=1;entryX=0.5;entryY=0;entryDx=0;entryDy=0;" parent="1" source="k1trG14WXIsbstCnnh3n-2" target="k1trG14WXIsbstCnnh3n-3" edge="1">
                    <mxGeometry relative="1" as="geometry">
                        <Array as="points">
                            <mxPoint x="350" y="90"/>
                            <mxPoint x="100" y="90"/>
                        </Array>
                    </mxGeometry>
                </mxCell>
                <mxCell id="6" style="edgeStyle=none;html=1;exitX=0.25;exitY=1;exitDx=0;exitDy=0;entryX=0.313;entryY=0.011;entryDx=0;entryDy=0;entryPerimeter=0;" parent="1" source="k1trG14WXIsbstCnnh3n-2" target="4" edge="1">
                    <mxGeometry relative="1" as="geometry"/>
                </mxCell>
                <mxCell id="10" style="edgeStyle=none;html=1;entryX=0.25;entryY=0;entryDx=0;entryDy=0;" edge="1" parent="1" source="k1trG14WXIsbstCnnh3n-2" target="9">
                    <mxGeometry relative="1" as="geometry"/>
                </mxCell>
                <mxCell id="14" style="edgeStyle=none;html=1;exitX=0.793;exitY=1.039;exitDx=0;exitDy=0;entryX=0.25;entryY=0;entryDx=0;entryDy=0;exitPerimeter=0;" edge="1" parent="1" source="k1trG14WXIsbstCnnh3n-2" target="13">
                    <mxGeometry relative="1" as="geometry"/>
                </mxCell>
                <mxCell id="22" style="edgeStyle=none;html=1;entryX=0.25;entryY=0;entryDx=0;entryDy=0;exitX=0.867;exitY=0.98;exitDx=0;exitDy=0;exitPerimeter=0;" edge="1" parent="1" source="k1trG14WXIsbstCnnh3n-2" target="21">
                    <mxGeometry relative="1" as="geometry">
                        <mxPoint x="790" y="50" as="sourcePoint"/>
                    </mxGeometry>
                </mxCell>
                <mxCell id="44" style="edgeStyle=none;html=1;exitX=1;exitY=0.75;exitDx=0;exitDy=0;entryX=0;entryY=0;entryDx=0;entryDy=0;strokeColor=#FFFFFF;fontColor=#CC0066;" edge="1" parent="1" source="k1trG14WXIsbstCnnh3n-2" target="43">
                    <mxGeometry relative="1" as="geometry"/>
                </mxCell>
                <mxCell id="54" style="edgeStyle=none;html=1;exitX=1;exitY=0.5;exitDx=0;exitDy=0;strokeColor=#FFFFFF;fontColor=#CC0066;entryX=0;entryY=0;entryDx=0;entryDy=0;" edge="1" parent="1" source="k1trG14WXIsbstCnnh3n-2" target="53">
                    <mxGeometry relative="1" as="geometry">
                        <mxPoint x="1410" y="80" as="targetPoint"/>
                    </mxGeometry>
                </mxCell>
                <mxCell id="56" style="edgeStyle=none;html=1;exitX=1;exitY=0.25;exitDx=0;exitDy=0;strokeColor=#FFFFFF;fontColor=#CC0066;entryX=0;entryY=0;entryDx=0;entryDy=0;" edge="1" parent="1" source="k1trG14WXIsbstCnnh3n-2" target="55">
                    <mxGeometry relative="1" as="geometry">
                        <mxPoint x="1380" y="40" as="targetPoint"/>
                    </mxGeometry>
                </mxCell>
                <mxCell id="70" style="edgeStyle=none;html=1;exitX=1;exitY=0;exitDx=0;exitDy=0;strokeColor=#FFFFFF;fontColor=#CC0066;entryX=0;entryY=0;entryDx=0;entryDy=0;" edge="1" parent="1" source="k1trG14WXIsbstCnnh3n-2" target="63">
                    <mxGeometry relative="1" as="geometry">
                        <mxPoint x="2300" y="110" as="targetPoint"/>
                    </mxGeometry>
                </mxCell>
                <mxCell id="k1trG14WXIsbstCnnh3n-2" value="&lt;font style=&quot;font-size: 16px;&quot;&gt;ES6&lt;/font&gt;" style="text;html=1;strokeColor=default;fillColor=none;align=center;verticalAlign=middle;whiteSpace=wrap;rounded=0;" parent="1" vertex="1">
                    <mxGeometry x="330" y="20" width="780" height="30" as="geometry"/>
                </mxCell>
                <mxCell id="k1trG14WXIsbstCnnh3n-6" style="edgeStyle=orthogonalEdgeStyle;rounded=0;orthogonalLoop=1;jettySize=auto;html=1;entryX=0.5;entryY=0;entryDx=0;entryDy=0;" parent="1" target="k1trG14WXIsbstCnnh3n-5" edge="1">
                    <mxGeometry relative="1" as="geometry">
                        <mxPoint x="290" y="90" as="sourcePoint"/>
                        <Array as="points">
                            <mxPoint x="290" y="90"/>
                        </Array>
                    </mxGeometry>
                </mxCell>
                <mxCell id="3" style="edgeStyle=none;html=1;entryX=0.5;entryY=0;entryDx=0;entryDy=0;" parent="1" source="k1trG14WXIsbstCnnh3n-3" target="2" edge="1">
                    <mxGeometry relative="1" as="geometry"/>
                </mxCell>
                <mxCell id="k1trG14WXIsbstCnnh3n-3" value="&lt;font style=&quot;font-size: 16px;&quot;&gt;Giải quyết cơ chế Hoisting = cách đặt tên biến với từ khóa &quot;let&quot;&lt;/font&gt;" style="text;html=1;strokeColor=default;fillColor=none;align=center;verticalAlign=middle;whiteSpace=wrap;rounded=0;" parent="1" vertex="1">
                    <mxGeometry x="20" y="140" width="160" height="80" as="geometry"/>
                </mxCell>
                <mxCell id="k1trG14WXIsbstCnnh3n-5" value="&lt;font style=&quot;font-size: 16px;&quot;&gt;Khai báo hằng số vs từ khóa const, tên biến viết hoa (không cập nhật giá trị mới)&lt;/font&gt;" style="text;html=1;strokeColor=default;fillColor=none;align=center;verticalAlign=middle;whiteSpace=wrap;rounded=0;" parent="1" vertex="1">
                    <mxGeometry x="210" y="140" width="160" height="80" as="geometry"/>
                </mxCell>
                <mxCell id="2" value="&lt;font style=&quot;font-size: 16px;&quot;&gt;Hoạt động rõ ràng trong function&amp;nbsp;scope và&amp;nbsp; block scope. Không hoạt động bên ngoài&lt;/font&gt;" style="text;html=1;strokeColor=default;fillColor=none;align=center;verticalAlign=middle;whiteSpace=wrap;rounded=0;" parent="1" vertex="1">
                    <mxGeometry x="20" y="280" width="160" height="110" as="geometry"/>
                </mxCell>
                <mxCell id="8" style="edgeStyle=none;html=1;exitX=0.25;exitY=1;exitDx=0;exitDy=0;entryX=0.5;entryY=0;entryDx=0;entryDy=0;" edge="1" parent="1" source="4" target="7">
                    <mxGeometry relative="1" as="geometry">
                        <Array as="points"/>
                    </mxGeometry>
                </mxCell>
                <mxCell id="4" value="&lt;span style=&quot;font-size: 16px;&quot;&gt;Arrow function&lt;/span&gt;" style="text;html=1;strokeColor=default;fillColor=none;align=center;verticalAlign=middle;whiteSpace=wrap;rounded=0;" parent="1" vertex="1">
                    <mxGeometry x="420" y="140" width="130" height="30" as="geometry"/>
                </mxCell>
                <mxCell id="7" value="&lt;span style=&quot;font-size: 16px;&quot;&gt;Viết trên 1 hàng ko cần return&lt;br&gt;Nếu return phải bao trong ngoặc nhọn&lt;br&gt;&lt;/span&gt;" style="text;html=1;strokeColor=default;fillColor=none;align=center;verticalAlign=middle;whiteSpace=wrap;rounded=0;" vertex="1" parent="1">
                    <mxGeometry x="270" y="280" width="130" height="100" as="geometry"/>
                </mxCell>
                <mxCell id="12" style="edgeStyle=none;html=1;exitX=0.25;exitY=1;exitDx=0;exitDy=0;entryX=0.5;entryY=0;entryDx=0;entryDy=0;" edge="1" parent="1" source="9" target="11">
                    <mxGeometry relative="1" as="geometry"/>
                </mxCell>
                <mxCell id="9" value="&lt;span style=&quot;font-size: 16px;&quot;&gt;Default param&lt;/span&gt;" style="text;html=1;strokeColor=default;fillColor=none;align=center;verticalAlign=middle;whiteSpace=wrap;rounded=0;" vertex="1" parent="1">
                    <mxGeometry x="560" y="140" width="130" height="30" as="geometry"/>
                </mxCell>
                <mxCell id="16" style="edgeStyle=none;html=1;entryX=0.5;entryY=0;entryDx=0;entryDy=0;" edge="1" parent="1" source="11" target="15">
                    <mxGeometry relative="1" as="geometry"/>
                </mxCell>
                <mxCell id="11" value="&lt;span style=&quot;font-size: 16px;&quot;&gt;Tạo 1 hàm với tham số mặc định. Khi gọi hàm mà KO truyền đối số thì hàm sẽ lấy tham số mặc định để hiển thị&lt;br&gt;&lt;/span&gt;" style="text;html=1;strokeColor=default;fillColor=none;align=center;verticalAlign=middle;whiteSpace=wrap;rounded=0;" vertex="1" parent="1">
                    <mxGeometry x="430" y="280" width="130" height="150" as="geometry"/>
                </mxCell>
                <mxCell id="18" style="edgeStyle=none;html=1;exitX=0.5;exitY=1;exitDx=0;exitDy=0;entryX=0.5;entryY=0;entryDx=0;entryDy=0;" edge="1" parent="1" source="13" target="17">
                    <mxGeometry relative="1" as="geometry"/>
                </mxCell>
                <mxCell id="13" value="&lt;span style=&quot;font-size: 16px;&quot;&gt;Rest parameter&lt;/span&gt;" style="text;html=1;strokeColor=default;fillColor=none;align=center;verticalAlign=middle;whiteSpace=wrap;rounded=0;" vertex="1" parent="1">
                    <mxGeometry x="710" y="140" width="130" height="30" as="geometry"/>
                </mxCell>
                <mxCell id="15" value="&lt;div style=&quot;color: rgb(248, 248, 242); background-color: rgb(39, 40, 34); font-family: Consolas, &amp;quot;Courier New&amp;quot;, monospace; font-size: 14px; line-height: 19px;&quot;&gt;&lt;br&gt;&lt;div&gt;&lt;span style=&quot;color: #66d9ef;font-style: italic;&quot;&gt;const&lt;/span&gt; &lt;span style=&quot;color: #a6e22e;&quot;&gt;getInfor&lt;/span&gt; &lt;span style=&quot;color: #f92672;&quot;&gt;=&lt;/span&gt; (&lt;span style=&quot;color: #fd971f;font-style: italic;&quot;&gt;name&lt;/span&gt; &lt;span style=&quot;color: #f92672;&quot;&gt;=&lt;/span&gt; &lt;span style=&quot;color: #e6db74;&quot;&gt;&quot;Huy&quot;&lt;/span&gt;) &lt;span style=&quot;color: #66d9ef;font-style: italic;&quot;&gt;=&amp;gt;&lt;/span&gt; {&lt;/div&gt;&lt;div&gt;&amp;nbsp; &amp;nbsp; console.&lt;span style=&quot;color: #a6e22e;&quot;&gt;log&lt;/span&gt;(&lt;span style=&quot;color: #fd971f;font-style: italic;&quot;&gt;name&lt;/span&gt;);&lt;/div&gt;&lt;div&gt;};&lt;/div&gt;&lt;br&gt;&lt;div&gt;&lt;span style=&quot;color: #a6e22e;&quot;&gt;getInfor&lt;/span&gt;(); &lt;span style=&quot;color: #88846f;&quot;&gt;// Huy&lt;/span&gt;&lt;/div&gt;&lt;/div&gt;" style="text;html=1;strokeColor=default;fillColor=none;align=center;verticalAlign=middle;whiteSpace=wrap;rounded=0;" vertex="1" parent="1">
                    <mxGeometry x="100" y="540" width="290" height="120" as="geometry"/>
                </mxCell>
                <mxCell id="20" style="edgeStyle=none;html=1;exitX=0.5;exitY=1;exitDx=0;exitDy=0;entryX=0.25;entryY=0;entryDx=0;entryDy=0;" edge="1" parent="1" source="17" target="19">
                    <mxGeometry relative="1" as="geometry"/>
                </mxCell>
                <mxCell id="17" value="&lt;span style=&quot;font-size: 16px;&quot;&gt;tính tổng với nhiều đối số mà không cần truyền nhiều tham số vào&lt;br&gt;&lt;/span&gt;" style="text;html=1;strokeColor=default;fillColor=none;align=center;verticalAlign=middle;whiteSpace=wrap;rounded=0;" vertex="1" parent="1">
                    <mxGeometry x="620" y="280" width="130" height="150" as="geometry"/>
                </mxCell>
                <mxCell id="19" value="&lt;img alt=&quot;&quot; src=&quot;data:image/png;base64,iVBORw0KGgoAAAANSUhEUgAAAdYAAADZCAYAAACdOxE7AAAgAElEQVR4nO3df1yUdd7v8RczIArMpDaGaVpAKukmpILbFmFp7rqdFUYr995YajXNOo/jncruPu6728Q8nftxF5qn8zhrZbobS3uvlSDuj+5NbTVqW0HdGTu6pAmlabKS2gygyA/PH9c1M9cMMzADFwwMn+fjwePRXFx8ry8GvOf7+X6v7xU1KTX5GkIIIYTQhSHcHRBCCCEiiQSrEEIIoSMJViGEEEJHEqyDxeIYjpbF8Fy4+9EPFeaaOZJrDHc3PLKNfDzQ/18tjuFo2TCOlg1j1+Jwd0aIvhXhwZpHyq8PkvVMXrg7El7ZRj7+QTQnf9fCs+HuS79jJH08OC72ozV8+9vY/Xk0CwdquLp/3i4zxXqZ+dvC3SEh+laEB2sS15mh8VxJuDsSRgZ2PT0Eqq7IHzh/Eg1YgPr69nD3xMuzK69wwBHNwpcG3q/oY3cZMTuuUio/b2KQGni/taFYMpVEnHxzMtwdCZ/nXoolxXGVV/9XPxqR9ScWA2Zaqa8Pd0d8XWPxtqs4bontg1LqGqaVS2VHCL1E69fUGqaV55Dofl3L4ZyHqNOesuRt5s1P8rx2VFHx4ydpUF8mbjrINMp5d+cYslZmkKAer9s1g8NbtQ3lkfLrp5loxk9bHT83ceVBJq70f82uGVm4czS3x2sONV7ijdxGarWf//o8hUuuuk+5Z+tY7rtePa/ATOF34f0/wX3fNQFO3r//ChN3j+ImrvDJK1+zY0fQHQqBgfRb4OTv2vhVbzTfGxJj+HBRDNXbm/jyTjMLxqvHHZcp+lULxQAY2bkiHou9gbv3e0aahblmFtDI1J1tMCWWIxntFFUZKJgdCzRT+nIr6SviSQZq9jrIPQr5FiPQxpd1SpvJALRSub2Jx71+eNX2x3teO7yub+D1xxJIrW3g7mojHy4ahutH0HUttymxHJkd69V2h3NAKQnnwsJsI49t683/h+s5vGsq8+Y/TdYzUPH8YK7wCNFzugRrwjN/JivTRN2uGbzrCsAlb5P1TB516i9p4qaDTEtycvylGZzcB64gztq0hnefXg/kkXA9NHw9layVFs6q5yVuOsi0WZtJ2OoKQzXAa8t598fr/fSmhJM/LuGk65rXhxqk3u7ZOprbucQb97uCtLtM3Hf3Jd64/zyzd5vI3BlD7SvnuPjj0dz+/SHs2HG16yZCtdhICm0cGEgjdosBM21Y7jSTSSNTX25Tw3YYC6a0UHyUAOVbda7UrozMlcA0smx2G6XbLzNn0TAWrDBSub2B+nkJpFoMQDvJI6LBAXNWGKne7iC3Tg3QeTHk+wR58im1P6D2KYGd9a5AjMJihvoRMRxZBKUvOyhEbSsjhvyjSlv52XEUpEHldkeH4Pbn2U9aWfgDA8m06fQPHMDWh3iXtyVchdBBz4N11mbuUEPVa1S59SEqXP+95G01VO9VQxVgPccr7yMxcyqJQJ06H5pgtnid13jeCddrrzeGeKDuE3+hqqUGdfVH3Q5VMDLqeuDrlh6GquLLDxupZQgwlISvz7NjByz8cYiNtM/k0OUx/j9nPMZLQz/F9SfxsdFR4Gjjg/096HQfUwIxmmTXyBOgrh2vSq3FgJlm9mhHeD5hmzwiGsytVG9vptASywLAYb/C43VR7DS7zjNw03DADNWaEWrNxVYYb1BHr1CYq4bqTk+45afGYKaV6nrv65vHQ+nLzRQG+P6UIL/MB0GEKgAn23EwhPTFLRDinKXrDa8/DZWbOoanLuEaxT2TjDg+bRk4VRIhdNbjYE3MzSDBUcXftnZyzu1JUFuuCdVO1L6vOS+PxFQTfH3WE477PuLskgwmzj/IvPm+Ya2lx8KlNnZ86OT2746icDc+JeBQXeGi5gsbLnRzBGI4wPT4rk8DSB6llDkHnlYqP9b0e0o0ybRSqYZY4YRYcFymRvslXmGrBuapZh6vg/xUI9DMnv3tkBiDxXVeopFUsytwA/VFGQlDPEdWaI83eweoxYAZqNnrHaqFOx3er080s2D2MApWDKPAJ6z11vD8vbwb6hdpwnXepiS1mhSMKLa9MZSZ5jYObLrMnQPozZwQeuthsCqjQq/g62ANY5OgobJjHMWPMkHt+8o8rLrQ6PhO7S+yEo4N1dqvdZV61bnUlQeZuNLffK7aXk/LoEUOCoscsDCeguXDeXT3cJQ5Ugcf9LDp3lZzvg1GhrsXoTBwT1I0nGr0CjrPPKhyzk3DgUvtaplWOfZ6hjZslbJsTZUSWskjouGUEnj5qTGYHS3KeerCpcpq7xXB2vPdoe5nzlVL6WMzNt95Ul9Hm5l6tFmdZ1XC2uEzV9xRG/V9Us73rE/ouK6hK9dY/OhllIAdxtHcZqas7F8rrYXoKzouXgrRrM1MTIK6XUqQJoy2APU0aEefatnX/6jTFbDKnOvYJVCn+UPgt72e2NFI0Y5Gd8BOLHDwQZFObYcihFLwr85d46cZRu7JbuNXA2IEoQSio9Z7BbNSPm3xCk2vc6bEkGkGTqlhm2jA4i7TKiPOmr2akL3UrMx3egW2KjGGOZrzg+XdxyCoAZufHUdBkpH8/do3ChopBsxc48tQ///N2uy1ANBbJwsLHVVU5HR/TQJc44NP25g5KYrHQMrBYlDqYbCWUFe9hImZ95Eya727JJvwzNskfvSQ+no9Z2pzmJaZQyIlyi+z65e+tpwKNQzjR5nAUU2jtvkUCwnUcryzd84BRqYN5+oBCwmzoE6vcAVIMpLAFWrdg+g2zn8NXB9DElepRV0RPB68vxmdhFAKZlsbJ38Qy213RcH+wLfb5LXOYWWzqUMwe7k2iX1NkzHhpCpuD8uj/J00hncaZ5IE1A4r48FQb+byuyhJGaE6atv8B8+UWI7MhppTuOdEsRgwO1qUeUyvkHW1pfxbdAxDIzsXDcN8qpG7XSPPo63UzI4l804jBCzb+htFB0MdoatB789zt0eD42rwge2y70kqgvq578koVQjhT49HrA3P38vhTQeZprmlpaFyk9cvdd3Tmzj+66eZVn7Qc2zXDHeoBlpolHi78g7anU++t+sAyrvve+lQpdv6EIdv9+5X6H84hvD47lHc5HWs4+0xHyw5z8Tdo9QyMTTYzvHGheE8OiGUa/WGdmyfw8KMaJ4j8K5LSe3+F7h4uTacLs+6ZsISYg+9+F2UpMyDesK2jVJ7KwVpCRxJA2Wus4WbHovFogZm4YRYuNSohJW6yvjLOldbrVSrpV9lkZI636m27rA3MNWrLNtG7vbLfLjId45VUx5W++gqPfun3I6TafY+2vF6GtlG7u/l26USnlnCRHo6ShVCaEXJ81gjnYFdZbGMqrrCnbJJxACiLga6MPDmKh/71yH8dFIbLz46gO6fFkJHkb3zkgDamf+7VswZQ/n4X/3Wb0U/9NxLQ5lpbmXHAAtVUOb2MQ9hgWy+LwYpCdbBYFsLU37XijkjemBu6j7YZBu5/5ZWdlgH6EMTtrXwYlUbKT+Qp9uIwUlKwUIIIYSOZMQqhBBC6KhHq4IT4vTqhuhL8cPC3QPhT+PlcPeg+xqawt0DIfqPHgXrjClGvfoh+tDtE6RQ0R99cmLgLVRy2dfprUZCDC49Ctb4eCO2T6/R0NR/pmm/+aY13F3o9+SPoBBC9B4ZugghhBA6kmAVQgghdCTBKoQQQugosoN11mayyg8ybUm4OxKqtZTZbNhtFWzJ687X57Olwoa9bK3eHRNCCNGF8D02ri+kWEjAyVk9nmW55G3mzafj47ZCkfcaFQWZ1JenYw1z5uVvqWB1RuBt9R1VG8laGtqzWgaqe2cdZ+5o1ysH9vdm8NsL4eyREGIgi+hg1fOZrAmjLR0fa9dr1mFNX9erVyhemuV5VFnea1QU3EZ1URZL/T4zLnLdO+s4c01/5fXf5nMSSJl2kMfnHgQJVyFEN0VwKTiPxFQT1B7p/gjTt62vz8qjtSJJyh+ZO9qB/SMlVAFOHt6MvdFM2tTnw9o1IcTAFcEj1iSuM0NDdW3np7keuu4+UOsp9/o+/9Wcw7zyHPfLYJ/v6lt2NefYsLubqaEsfQGFgDK3avU8sNvrcyr36HILPLGKTFeztWWkWb1HuY76Wu9rOyvZkLUsxIdxA+tKsed4etWhnXWl2HOgLN1Omqb/HcvJvt+fu0EqwzBaTrnuBmg8RpV2ZDoym5R4IP4O7gX+rPmU699yMJXJhRChi9wR66wxxAON5wL/tU545s/MW5nK2Zdm8G6O8nG4Nolpv96sBO3Wh5TjL1XRgBKkrvPezQn+oenFS7NIS08nragSB1BTnq68Tk8nzSs412FVj2+ocnbSoonMglVY3lfbKK+BJCtlPtVjc8YqVlv2qNcpo8aUyeoQFzTlb6nAnjOKyiJXfzdSSSarbaXegU8yVtsc6os8/TdnLNUsvlJDtbbM/b0r32N4QhVgvNkMztPu0Sopf+Tf51r4S9VnwA0kjuz7PgkhBr7IDVZ14dI3gRYuzdrMHZlw/KV7Oemeg13D2CQ6lnxTLCRQy5kgg7Qv1GgXQK21UwNYxuR7n+Q1il2HvRawjMXnrE6sxZphwlG1RRN8xSx9tRIHyaR5Bbl3QBbv/zsOTFgmqJ/OG4sFqDni+aIO5wTFxCtXrBxq9P/xTtC7Ai4hUbN2K2XaQf59cj2v//b7XqNULdcbJBmtCiE6E7Gl4K4WLiXclUoCJiauPMjElZ7jDZWbePd57+FT3y5c6kfyxmLBSfV+nyAp+ZDqJzJJHZMPwRaWS85QXwDJU9cCSrjmZ9+GmRr2hjSIdrJ8aFkoXxDAVuqcPwfUBUy8zb/87hnN5/9BnSxeEkJ0Q4QGq2vh0vsBFi65Pl/Ou0+vD64tWbjUQ7XUOyE5yYrdZlWPOaks8plD7kOnHA6Y+BDfOf4f/Iumrp9y3Q3AP8LUKyHEQBehwapoON/FwqWgBLkIKhKVnKG+IJPU7Hwo0YxM8+4m1QT1Z0Moia7LJdPkZzFWyEy8cmUOGQGeI1A7rIwHg5zgOPmNEp4nP9fW+JeQMdYM5/4UsCQshBCdidw5ViBhlGdFb8IzfybrGddKmhLqqp2QdB8ps7pqpZZvHN5tdVvJGepxlUMHAmVe1nsRUj5bnsjE7Kwk9I2dRjG2WztJaSml4Onx/j+CDVUATu5Qbq25q5gU9VDKtCdJi3dgP/JMh9Pzt1Rgt8mOVkKIzkXoiLWEk/tymDhfc3tMbTnvPu2ZO214/l4ObzrINJ851o7l4RJObr2LMSs1bTmqqPjxk90oDa/DWjSWigJtOVQzilN3ZjK7zzdhtdmwEr6dkAqt6dRsqWB1gQ17gXrQz609XVq7gLKpNqzadlThu31lK7/9HfCDn/P4D4+rxz7jvQALmIrPnmc1JkhKoxDCVsIWQvRvUZNSk7v9MNUHZg2R57GKoCj3gJ7vUApWjhO2W25Ck8+WilU6lbSFEJEqokvBov9Itvjfl1g5fp4z/T5UUeeJwVG1U0JVCBFQhJaCRX9TaN3I2IpV7tK2m7OSDend2A2qL2lK9DX94AEKQoj+TUrBQgghhI6kFCyEEELoSIJVCCGE0JEEqxBCCKEjCVYhhBBCRxKsQgghhI4kWIUQQggdSbAKIYQQOor8YG2f6f0w7CuT6PE+8HqIf5Y35/4na+L9fTKPlF8fZN6mNX3dq06spcxmw26r0GzIP8isK1U24a94LYSHxUeOwlwzR3KN4e5GSNwPTlA/KrYMjP9zhWXh+TnrswdNxD/Lm3M3sVj3NndRPncXbyZn69lyyCJ756Vrk9h3eUxIjxLrGz9h410z4LMNrPf79HQ9H1W3hmnlObBrBoe3dn32wLGEH/7g56S535gE3jxf6MFI+nhw2PvPZjDBKF6ape7qtZYymxVLmPvjtq4Ue86oAbJHdi9ofI6953aRM3cTvPc023rcoOdvak7Nfh062DMRHax5beMwGY/xer8K1WzW3GUl5VxZ4B+AWWOIBxrP6fAbN2sM8Tg5e7KnDa3Dmh7iE216jRqqzrf5l98pj3e7d9Zx5v7wj9Cb4bp2AWmDdTvDRAMWoL6+Pdw9Eb3I80ak9207soGxptXkTP0J2478smeN3ZBGCjWU94NQhQgvBSe1+9/4PZzuSV7OjPgayjv5QUq4K5UEajmjwwhTaauehn09b6u/UJ6Z+hnv7fM8M/XP+97mFLfynWlLwtizbmifyaHGmfSnor9fFgNmWqmvD3dHROTYz3rbQRpGW9l4Q7j7oq+IHrF2bQzvNM7E8whzJ1Vxe1ge5Xpt4pUrc0iN3sMsw2QOXR4T4LxgZZN9YzwNn5V1WvqIH2UCRzV+q8RuSok3UdP34y/dy8l9/j5nYlr5Qc+XdnjmbGeUElqy+3X4H5k23myGc3/yHpmm3MF4gLHZpBzeimeA7nrUm7P7Zbd1pdhzPP8C3XoerR9rrlrJbYHaYWUE+3/DLTGGDxfFUL29iS/vNLNgvHrccZmiX7Woow4jO1fEY7E3cPd+z0izMNfMAhqZurMNpsRyJKOdoioDBbNjgWZKX24lfUU8yUDNXge5RyHfYgTa+LJOaVP512ilcnsTj9d5d60wV9MfwOF1fQOvP5ZAam0Dd1cb+XDRMPfzh13XcpsSy5HZsV5tdzhHL77PQnZWsiFL83CIdaXYc6As3U6a5veh47OEfX9f3A1SWZTFmYU2rJ4/OGRqn0/se836MxR7/ewF+t1zXbP7v5vK4xs9A5HOn5Gs/N20xO5hVrQzYJtrrlrJbT/GS0M/JeCvnaskPOFZ7vnHc3zQjb73R5E3YtUsVsptAdoms1KzeOkd1+/3tUnsU384pseXMT2+jJdiIaNJc47K1DyHQ5dhp3rezhgTGc3dWAQVn01qPNQ1dFauyCPheuDrs4EfpL7kbeWh67tm8G6O8lFRCRNXvq2G6XoO58zg3ZxNHHegBGmO59zgQxWUEnA6aenpbKgK/EvUd5aQaIIGR437SMq0g/z75HreO+6AeAvjO/nqblm7gLT0dNLSN1Kpyz+BiVeuWMltcVIV1835f4sBM21Y7lRD8mUHU7dfxmEexoIp6jl+y7fqXOlFZa5UCcwYls2G0u2XcRDLghWx1G9voNIBFovSueQR0eAwMmdFLPXbHUx92UHpqWgy58VoFtgY2blC0x+1T6QlsNPVJ6KwmKF+RAxHFhnY87KrLUjO8LSVnx3HkdlGKtVruT56JVTXlWIvuI3qonT1/3M6ZfWZrO6weCgZq20O9UWe3wdzxlLNYj414GrL3O0ovzOeN3WFVvUa5TXqcc8107J8nvKUZMV+Xz0b3D97yVh7aUFT8dIstR9l1HR9uq62nauB+JHc2sfX7U2RN2I1HGC6uqCls3dMa1omYzIe4yXNO66S6APc3TqHjNYxMOSs52Sjdxu1Bie0DNeMdIMUP5IEatj7j85O6mrh0hqmzU+izmsxUh6Jqf5GuUpbdftCHg/1At/qgFYoFYBkRmhWUt876zhzUeZaU6Yd9HN+MUuz+tFD6a5NYl+T+rMX38k7+S4ogRhNsmvkCVDXjlel1mLATDN7tGHkE7bJI6LB3Er19mYKLbEsABz2KzxeF8VOs+s8AzcNB8xQrRmh1lxshfEG9+isMDee5FOa/gD5qTGYaaW63vv65vFQ+nJzwNGVEuSX+aAuwAm6yWfLfck4qjZ6VTMKd1Qyu+A2svKg2H3cu+pRvP/vLM3IxDJB/XTeWCxAzRFPNaPDOaHwGsEWU1G9lMwMi5/RcH9a/9ANjRdoYAbfugHo9G9jYItHJ8O5ziuBfSnygjUoJsa2gzP6rM8fNicfRjvJaDWRB57PGZxe55VE76GkG/9y9yQkAl38pehq4dKSqcqodP5B5s3XHPdX3tVt4ZIezvJgfJkO7dRwsRFGkswPf3CclDP/wb9olzs31nNKh6v0ivaZynRCzAGma9+4dVsrlR97Qowp0STTSqUaYoUTYsFx2XsE4hW2amCeaubxOshPNQLN7NnfDokxWFznJRpJNbsCN1BflJEwxHNkhfZ4s3eAWgzKc233eodq4U6H9+sTzSyYPYyCFcMo8AlrfSVhMYE5YxV226oOnw0pEEvOUF8AyVPXAkrQ5Wffhpka9g70RW+un12t5jkcalb/O+YA04fg583zZFY2TmYlAGfZGX8g9GmPTiyeuouc0XDSNp+cboZybxikwRoeHzTUsbqLc1wLl44HWLiUeHsSOKqo+PGTgUvFXm1F1sIl2Eqd8+ekTXyIEVUTeV7zpmG82Rz4y/oDwwGmx01iX9NMDnU199R5Q9yTFA2nGr2CzjMPqpxz03DgUrumvGjg9Qxt2Cpl2ZoqJbSSR0TDKSXw8lNjMDtalPPUhUuV1d5zJNrz3aHuZ85VS+ljM7auSrpHm5l6tFmdZ1XC2uEzV6ynzucUg1VLvROSk6zYbVb1mJPKovCuSdCFphLY2Ryr9s1zUHOsbo1c7HxRiV/bjsxn2xElYMsnHGTDR/1jnnaQBquTMwbIaB1DXrT2f7qJu1tNHUaougm25OGo72LhUnCCWwTVV/QqBcMphwNG/4Nqr5H486SOhobj++kXA/RAoj5lVvxZXrkyh5WN47i7W4vglEB01HrfU6qUT1u8QtPrnCkxZJqBU2rYJhqwuMu0yoizZq8mZC81U4xvYKsSY5ijOT9Y3n0Mghqw+dlxFCQZyd/frvPtIGoYWkKe2OloXS6ZpvAv7htw4keSQB1nevCHatu5GnJGK/O0/SFYI2/xUpDWR5+Ftsk83upZCZfXOpOMNidVMXqU6fxo3E91I6SM/knn55ktuN8cztpM1q83k6C+rPukFswZTAzirpLG807vtsJKKQVP9/sRWricPPwnTnErc2c97z5276yHGM9n/KXDLhj5bKlQdt0p6zfTUE6WD1UXwflZLNclv4uSlBGqo7bNf/BMieXIbKjR1sktBsyOFmUeUw1Z5XYatS11gZMShu2aMDSyc9EwzKcaPYuJjrZSQzSZd3a2M5O/UXQw1BG6369z7QjW3f+/xSx9vwaSrDrtyjSKscGsajxRjwMTqdl6XHNg74q2eHQyNF7gs3B3REeDdMSKpiynmSfohTkAb/vZ/9VyZtw6lzUnf+l316WG59+nrjxHc3tMLYdzHvKUfbc+RMXoP5PlO8fqpzzc8PxWjv/6aU1b2ltyguR7GwImrDYbVvQqn3XHM2z+LTz5w4f49x8+pBxq/Cuv/zbfz2i1mDP1q8DkPfcVCt9bETC5Sn09uIUHWD+kjPXRMzl0eSZrQvm587soSZkH9YRtG6X2VgrSEjiSBspcZws3PRaLRR3FFk6IhUuNSlipq4y/rHO11Uq1WvpVFimp851q6w57A1O9yrJt5G6/zIeLfOdYNeVhtY+u0rN/yu04mT5V/Y7XU6kLhgIpLPO+vQX3XKpmZLl2AWmUYs/xmWf1vf2lK2sXUDbVhlV7C42r/76/KyXLyJrgc81Qr+emjrpNalCXhN5CUP9ObsGtl1g/JIjbyOKfZfZoOGnrHyVcvURNSk3u9h5lD8wagu3TazQ09Z9tzr75pjXcXehCNmvuWs0MZxk5Pd1tRATH9eZAp/tPhfBHeQN2vkMQKcfp3e0L1ftdw/dmtzt0/Ft4wybK06Fcl+0Re27QloLDx7PbSPnULkrCQheFCzMx46Ryh4Sq6D3JFv87vSnHz3Om1/YEVm4Zghr2DphQhcVTV3e5C13QGi/QQDKzw7z5vouMWMMl/lnevOs2qj/6pwAb8Yue8pRwZUGJ6AuuXb58Dne7xNs1dwm3F6/RK+Kf5c27RrJXzxHmDZsoT1fu8m34bAOPhHHfYAlWIYQQQkcRt3gpLjou3F3olmEDtN9CCBGsy61NurTTpFM7vSXignXKiG+FuwvdMuG67ux5JoQQA8eJb07o0k7V+Upd2uktEResRrOR6m+qaWrpP+9orn7T3OU5/f0HRQghRHBkVbAQQgihIwlWIYQQQkcSrEIIIYSOJFj7pR7u/Zn3GhX9am9cEarCXDNHcjvbd7fvRc05SMLPj7s/hs3xv2F1/pYK7DYb9jL/z0oLth0hBqqIW7zUr6lb69WXp2MN8/MZO+x/62NgbY0WaZQnzTjs/ef+cLdv/krjK/n0pGfX9sygYQ/AEqKX/5wYnbomRH8hwdovrcOa3rvDzeKlWZ5dWvJeo6LgNqp7cy9TETy/T68ZOLx+toQYhKQULER/oz5YXHmEmxBioJERax/wLbuac2zYc1yvtPvYrqXMZiUZf59TuUeXW+AJzb6kHZ7c4qT+hPfepd0u76pPzvA07bMv6bpS7DlQlm4nTdP/jtfz/f48fe3ekz+Uh6dbYvcwK9oZ6hcHT32WqfLYNc0jzU41MnWn6xFoRnauiMdib+BuzePNCnPNLEA9b0osRzLaKaoyUDA7FuVRbq2kr4gnGajZ6yD3qPbB4kqbyr+X5vFrGoW5ZhaM97x2eF1feQRbam0Dd1cb+XDRMPfj/1zX8v4eY73a7nBOF3x/zns+neD6eZG9nsXAIiPWPlC8NIu09HTSiipxADXl6crr9HTSvP5grMOqHt9Q1VlQmMgsWIXlfbWNcuVBzd6LlTqeY85YFfKCpvwtFdhzRlFZ5OrvRirJZLWt1OcPXTJW2xzqizz9N2cs1Sy+Uv9I1pa5v3fle+zZM037Qr7FCA5IV0Nq6ssOpu5thvGxvJ6onuS3fKvOlaoPDFcCM4Zls6F0+2UcxLJgRSz12xuodIDFovw6Kg8WNzJnRSz12x1MfdlB6aloMufFkK9pe+cKNbRfVs6Zuv0ypCWwc4rrnCgsZqgfEcORRQb2vOxqC5IzPG3lZ8dxZLaRSvVaro9QQhU0P+fpZZqHogsx+EiwDlA12gVQa+3UAJYx+SGf07m1WDNMOKq2aIKvmKWvVuIgmTSvkPYOyOL9f8eBCYtrp0b1gdQ1Rzxf1OEcHeW1zuFQo9X/x9UxIbWVPCIazEO0Ig8AABdMSURBVLFYajWjwfp2HNqT1IeP27wePu4dtko7UL29mUKLATPgsF/h8To1AOvbAQM3DUc9zzNCrbnYCmaDe7RfmBtPsteIGfJTY7xLyOr1k8dD6cvNAUd8SpC38EFdgBPCxvVGU0arYmCRUrAILG8sFpxU7/cp55V8SPUTmaSOyYdgl6mUnKG+AJKnrgWUcM3Pvg0zNewNZYV0+0wOXfYJxuY5HHLtGhlzgOlDzlISvYcSXX+6m9mjKfEqIdbGl2oYFU6IBcdl75GaGrZ7joI7ME8183gd5KcaPW0mxmBxnZdoJNXsCtxAfVFGwhDPkRXeffQKUDW8a/Z6h2rhTof36xPNLJg9jIIVwyjwCWshROgkWEUfqaXeCclJVuw2q3rMSWVRiKMRwwGmx7te9MUcq+vWlxavfrpGeUqQqqF5qV3zNsPA6xnasFVGpTVVbZ6vP6UEXn5qDGZXW+rCpcpq7xXB2vOZEk1ygDlXLaX07DOK9udoM1OPNqvzrEpYO3zmioUQwZNgFYGVnKG+IJPU7Hwo0YxM8+4m1QT1Z0NYmLIul0xT3y1CyWudw8rmAPfpqqPaoPidO/UNUiU0HbWauzunxCiLnE6p5yQasNBKdT24wrpmryZkLzVTjHbhkrYPMczRnB8s7/APghqw+dlxFCQZyd/fLrfNCNENMsfal0rOUI+rHDoQrMNei88ipHy2PJGJ2VlJgI11OjGKsd3ZSaobSqL3MD2+zP9HsKEKAW59UUefJwIEnbqKuOaUTzuueUw1ZJU2lZB2LXBSwrBdE4ZGdi4ahvlUo2cx0dFWaogm887OdmbyN4oOhoF7kqK78XW9oYc7kAkRJjJi7VPrsBaNpaJAWw7VjOLUnZnM7vNNWG02rIRvJ6RCazo1WypYXWDDXqAe7HBrTxDWLqBsqg2rth1V97+3szwYX9aNrwuesiLYZ2GPqxTrDts2Su2tFKQlcCQNlLnOFm56LBaLOootnBALlxqVsLIYPPOziUZSza1Uq6XfmoutMF6d71Rbd9gbmOpVlm0jd/tlPlzkO8eqKQ+rc7Wu0rN/yu04mWbvox2vF5zCMhvWJM2BjFXYbavwe9tYUNTpA5OpY9VEiH4salJqcrd3J3tg1hBsn16joan/bL12myVjQD6PNdIp9zie7/AHVjlOv7/lRih7/MbfeqzHWxp6qFsafvYfXN6z1f8p6j3UssWmGEikFCz6RLLF/3yncvw8ZyRURQf5bLkvGahhr4SqGECkFCz6RKF1I2MrVrlL227OSjakL+sH83kiKNd9m/ifHweg7VAnI81ORM05SPx0T/3ZX7HaXVaWnw8xAEkpuA9IKVgIIQYPKQULIYQQOpJSsBCix6JiE7o851pzQx/0RIjwk2AVQvSYYVxml+e0ffZ+H/REiPCLuGD968mPw90FIQYdCU0hPGSOVQghhNCRBKsQQgihIwlWIYQQQkcRN8cKQPyzvHnXDBKAhs828EjN/nD3SAghxCARmSPWxud45L355Hx0EG5dzcYbwt0hIYQQg0VkBqtL43PsPQcpo38S7p4IIYQYJCI7WIUQQog+JsEqhBBC6EiCVQghhNBRxAfrtnM1MHoua+LD3RMhhBCDQcQHK/94mpz33mPEXbson7uJxeHujxBCiIgWmfexatyT/J+svrWO8vfmsyrcnRFCCBHxIn7EemtCPJyzsy3cHRFCCDEoRHywCiGEEH1JglUIIYTQkQSrEEIIoaMID9af8K3R0NBQE+6OCCGEGCQic1Ww5uk2nCsjR55uI4QQoo9EZrA2Pscj74W7E0IIIQajCC8FCyGEEH1LglUIIYTQkQSrEEIIoSMJViGEEEJHEqxCCCGEjiRYhRBCCB1JsAohhBA6kmAV5G+pwG6zYS9b270G1pVit1WwJU/ffgkhxEAUmRtE6GzNVSu57cd4aeinlIS7M6FYV4o9ZxSVRVksDWvH89lSsYpMU6DPO/tBH4UQQh8SrILipVkU9+4VWJrluUL+lgpWp/6dDVnLevm6QgjR96QULIQQQugoMkes7TM5dBl2xh9j7JU5ZLSpx2MOMH3IWc2JJl7Rfh4nVXF7WB4FMIZ3GmeS5D53MisbJ7PSdWbsHmZFOz1tGLzb7lA+DqZP7nNOk6a5tudawSkss2H1dJzMAhv2Aldjle6RYv6WClZneOqzjqqNZC0t7tgWZaQdScOek+z+d+pYuj3PmZK1lNmsuM6qKU/H2o1pW99+UVtGmnVd6H3Ke42KgkzMHa5QQ1n6Ago9V1RL1VKSFkL0XASPWMeQ2ziH1Og9TI8vY3rcMZwtM3mn3fP5d7Sfjy9j+jAnGU1zeOUawFkeVI/vjAGMx3jJdV58WUhBF3yfXOdMpj5Ouc5LsU5MzTPVPgWn0JpOWno6aeU1KIGjvk5PJ01Tfi1emqUeL6PTB+slWbHfV8+G9HTS0jdS6TSR+cRr5HudlIzVNod69Vobqpwk54S+oKmwzMbqjPOUufqbXkZNkhV7hc/1uuqTGqpUbXR/72W10DFUhRBCXxEcrFA7TBOAUU7qAUu7MhLKa51MkvEYr2sD0nCMKqOJ1LaAq2x6tU8K7agZSoyncWLCEkKw6k4zyoViKqqdYLK4R6bqSV6jveL9f8eBCcuEEK6T9xqzk6CmXBt867CW14DpNrK0Id1VnyZYMOOker9nBF54pAYYxdgOYV/M0qx00tJltCqE6LnILAUD4KQ+SvtaGYG6JLWboM27vOtmMAHdGZH2rE+D3gQLZmrY61s+XmunJscaWkifqMdBMqnZ+VCihGvh1GRwVlIh4SmE6EURHKxBMA7AW2hEcErOUF8AyRmrsNtWqQdrKEuXlchCiN41aIO11uCEluGaxUki7E7U4yCTtHWAdtS6Lo1knFSeCL6p/C1zSPYqFwshRN+I6DnWzpREH6OWMeRemURX62tqDU5oG8fdfuc5nZwxAO0mdztrrlrJbdG1u91zoh4HJqUcOhCUfEi1E5JzSjVzrGspy0mG2j2hz392mAcOJJ8tFTbsNhtl67o+WwghOjNoR6zK/OYB3mmc6TPP6r14CKAkeg9J7VZym6wccp2luQVm/ZADpGnaccbu4aXYmaxs7bvvxq+SZWRNKMWeoymHakZxvrfl4C6bhmvlrLKRRGGZDavNhlU96qjaSNrS0MadxUu3kFWxyqsdl463ARVzpn4VmCB56lpA0lUI0X1Rk1KTu73e9IFZQ7B9eo2GpnAuWfX2zTfhTjPRHxSW2bBaOpaClTcTft44uO559blnVgghQjVoS8EikuUz1tLJcWd9h/t2CxdmYsZJ5Q4JVSFEz8iIVUQo712g3HxGpJ5dnmTjCCGEPiRYhRBCCB1JKVgIIYTQkQSrEEIIoSMJViGEEEJHPZpjFUIIIYQ3GbEKIYQQOpJgFUIIIXQkwSqEEELoqOd7BWcb+fjpIZgBR9UV7vxfMmUrhBBi8Or5iHV/G3daLzNl01XIGMquxTr0SgghhBig9CsF729j9+eQcrtUl4UQQgxekoJCCCGEjvo4WNdSZrNht5XKZudCCCEikoxYhRBCCB3pu/PS4hiO/iCKA5uusni/bq0KIYQQA0YvbGloYFdZLCm0ssPawrP6Ni6EEEL0az2/j1XjsX8dwk8zrrHDepn5ejYshBBCDBC6zrEmjzLC520yShVCCDFohWlVcAVb8vr2ykIIIURf6ONgraXeCWAiNTu/by8thBBC9IE+DtZilr5f07eXFEIIIfqQjsFqIP0WcJzvbJFxPlvuSwZq2Lu0WL9LCyGEEP2Erk+34fNmpgR4uk1hmQ1rEuCsZEP6MiRWhRBCRKJeuI9VCCGEGLxkS0MhhBBCRxKsQgghhI4kWIUQQggdSbAKIYQQOpJgFUIIIXQkwSqEEELoSIJVCCGE0JEEqxBCCKEjCVYhhBBCRxKsQgghhI4kWIUQQggdSbAKIYQQOpJgFUIIIXQkwSqEEELoSIJVCCGE0JEEqxBCCKEjCVYhhBBCRxKsQgghhI4kWIUQQggdSbAKIYQQOpJgFUIIIXQkwSqEEELoSIJVCCGE0JEEqxBCCKEjCVYhhBBCR9E9+eLEUcP16ocQQggREWTEKoQQQuhIglUIIYTQkQSrEEIIoaMezbEObD/l9d0PMN79+gv+6/5H2dhbl3tiCE9mx3hen73C5oK23rpaRw+38f4c+OMyI0V9d9VOPXRLMffzLss+/89wdyViPXRLMXdd2czT5z4OfNLDbbz/bXhllZG3+q5rQkSsQRysL/L4/S8C8GDR71mW1suXe/Uqm1+9CkQx5/U4JvTy5bx8u41dc1r5Yk9svwnVzNGvcP+IL9j9N99QfYR5d/0zk4Z6jnxVncn2M6Fe4RkWzc7hRt/DVw6y46OnOB1CS+Mm7mXhOJPmiJNPq2bzriO0HmXeUcl3Rgb45IVyNv3ted379PZXdu6a/CSbIHC4vmXgb9++yvKNgISrED02iIN1sLjGLxe3gn0IP+kvfzGHr+fxG+GTY2t42+dTmXf8M5Oaytn0kRIy4ybuZWHqXuY5Qw8y6G4oezt9fDabjntej5u4l4UZeyHEcK38WyaVHY4qbwCua/y8d/rUvIGna9fzWtKj/I+LH/N/mv21FsXqVUP45WtXyfvvBt76v1Eh9UUI4U3mWCNcwZqr3NwQTUm/+WP5T/xb0s00ffWG3z/ylX/L9Bq5nT7+Pl9hYtzoR/qwj53Ts0/jJt7HjdRiO/5m7/Xp0hp2X4zj9pTVZAZsIYqf7IkmIa2VDd/uUVeEGPR0G7Gu2raP741zvWrA9sp/42c7tGf4zmn6nLNwI6XLJ/LZK8WQ9xTpCerx039g7uIXva6llG4TNEf8XK/gDd777s2aUw7zmnUV7/T4e4NTf5rF471WUzWy4DdDSXS/buNEyRX2/LGzcwKde40p4+CLPZ2U93znfoG6/Y2Uvqr9vMG73e/H8GjeEJz7Gyl9VekL+69AttKnuv2NfDEhnswx0HSsiTf+5zVP48MnM54v2N3ZnJ8fcfG3hHR+X/imsWdhCM/wnXEmmk5v8zOS7Z5AfVJKwmnMHQ6VlwJ88VsG/vbtVu64/xr81d8bsYd5oewp0hP8/X4LIVx0GLE+zAtl+/jeuC/4r/tnMff+Wcy9vxge2MiDrlMWbqR09wOMtP9C/fwsXrND+vJ9vF6gbSuB9OVPMfIjtZ0/fQHjHvA+p+ANlqWB7ZVZ7rbm3u/9S/5g0e9577vXa875BTamsWz3G6zqzvfGHzzXeuUwI7/r22+dfD+GR38zFNOxJjb/qJHNP2pk1zGYkBfPgidcJ6mhevaK5pw2/Abww+3cjIELpzq5XnYMdfsb3W1t/pEmVEOQmB2Do6SRyrNgyhjKty41setYG3GTY5iuOe+h4TdD8yW+CLZh81iuA5pCLJW63JhaydOz1Y+7fsG4rr+kS5l35HDjlYP8pYclZmW06uT0uZ4GdBB9av4LJ5vBMvTOTlqJ4sBJA4xo5+Ee90iIwavHwfpgUb76Dla7ovYtfrbYMzpc9cA0EhoO85sCz7jpnYJibA0wfvJPvdrzGg0W/T9OASNHe37NHxx9PfA15wK+W/4p30tLoMFerAnbt/hZyWEauJnJoQRiwQOkJ3zBf2lHzDtW8eHpjv3Ww/T7hhDXdJU9mhHemf/ZzIkmSJxgVA5834AJqDvhWVF85nAbTRgx+6TGw6PaocHAgb8GuOC4KOJowxHKSp5Azra4Qz0urp3/px2lut3J6DhouvCXIEdojzDv9hnEdatU+jzb92ayyf3xv/mUGSycvb2Tcmhg4ybudQf0d0Y6+fST0BZAdfQI3xplggvvd2vuOPQ+fcy5Jogb+Z1Ov/+3zhsgoZ2ZfsvBb/Eza8c3skIIbz0O1vEjE6DhOJUBf9EeZvQIaDj5V58y7FtUnmyAETd6RrZBeKdgP6e4me/t3sd7u3/PCwt9Tlh4IyNp4LOPfYqfO/7KZw3eId0VJcRd1/J8fG8cIfe7a1GMGA5Nn7fiPei4xt8/b4PhBsYC/LEdJ5qgBcZOMxJHC1/4jDTHj2zv/JKvtnCiyciEvHie/I12VBy6pkuaazVd45zfs27hutjg28y8Q1kd/FX1Ih1KpW/y7icHaSKJpLGhf/Xp47M9IV31KeMyKlk2sQdzrGPnM2mok09PBr8SuNf7JITQxQBcFey6TUad71m+j/eW9+a8Zy/f3xqydhxNkDhmKE/+xnWsjRMlVznkc+apCwYY0Vlb19jzeCN7gOlF8WRmx/Nktp95Ud18zjfNYAniTNetKU2n/3ePV/X6ui7+EaAH5VfHU7x7ei8Lx80n8/ib3Qj9R5h3SxJcKO/2aLXbfWo6G0R/DXwVqMohhOhSj0espy40QML1mkVJvt7i3EVISPm2zwjvYTJTEuDiV91aUOQpS/3Cu6S84ysukMCtd/qMTBd+m1sT4MK54O85eefc18D1jPYdFfeKa1y8BHG3ROM9oIritluMcKldGck+EcOEuBYqf6SdF/Vd3KTovKzn7VCB0lblWX990Etw5chxE/e6Q/W1Hq6W9WK6njid5jQBuPI1X3Xn68bOV0bi/+j+aDWggH1Sy/BXOp+rVqYPINC0vBCiaz0OVndptkyzWImHeWGb5/XGY19AwjR+VKSZK3XNzf7hRXrmZkYmQMMF13KYFzl2GhLS8jVl4od5IU+Z5/2vUEa1RX/A1pBA+vLgFj2t2qaWi7d1b/710IkWiBvCnH/zrMgc+2+xTIhr48T72l2aDIz4fhANvmXgC9qZMD3Y0adSjnaHOMDpa97zt+qK4LggW/T19qUvIHYCMwOVhMduZ+E4U1Ch+mDR74P/9zb/gmWpSQHmNH/K64GmFjrp41efd5zT7LpP6mi1y8VP+vUJgNjvkBIL9Vc6W419jZkp7XDREGAVubKY773dvbR4T4gIoUMp+EUev/8LXih7imW797EMcN3+4h6JFj3K3NqNlC5/ivd2P6Ue7F6J1ffWF4AG+y9YoFkYtXHxLE4V/Z5lapkY6HjbzsKNlC6fhuemnQS+t3sf3/Nq7y1+ZoUXyp5yf86lY+lZmUsOZOy/DWX+ZM+8KHGuUq5mNe+rV9l8+hqP5sVpyrwtVP5IU+Z99SqVE+LJzItnQp73NTqWcKM4ehq+n9ZOAR23MuzQJ+i41eIfW9gzzch8tUys9OcKN/9mKN1y6RinmMftN/4TdNjK8BkWpSYBEDfun3l63D9rPtdxZ6F3zn2t3HY1LpsXFr7ovaDG/AuWZczQvAFw8mlVZoDS6xdcaIDxCQmkP/BT2KF9s9dxJyio5S97/W320EWfwDNare5q8ZN+fQJ46MY04prtvBfoVhuAh9u5I8HA394KdM/zW5y7+BQkuCpEPX1TLERkipqUmtztyTR5HmvfU8Kw3Tts3cfxc8/rNX752lWutw9hfn/ZJGL4el5LGsUnx5YH2AkoWK77KnWYB1fve/Z9kxYRfQrq3zvInxPXG1I/95cLIRSy89IAM3q4sZPj7VzsMNfq2lHnKrv+e28sSOoG105Ak1/hf4SwSriDggdIT4AG+x96uLjsYV6462bgCz7sUaj2wz7FrmZTJztdKa6xYWNwO3StemAaCegxhSNE5BqAq4IHt0MFTYx4PY7M38R4LwBqusquH7Xgd9ruLSP3Ae/P8V8SDoe3P88Hirnfb0m4K55dvHq6Gty9i1fDYV67v3s7c/XfPiklYL7q6uk27dxBdKdPt/HsdtbfVskL0f9IKVgIIYTQkZSChRBCCB1JKXgQih/WT+ZafQw1DAt3FyLClfbLQZ3XeLmfLGYTIsJIsA5CUyf2z2AdR2q4uxARTnM4qPM+tkuwCtEbejTHKoQQQghvMscqhBBC6EiCVQghhNCRBKsQQgihIwlWIYQQQkcSrEIIIYSOJFiFEEIIHUmwCiGEEDqSYBVCCCF0JMEqhBBC6EiCVQghhNCRBKsQQgiho/8PlLWzwIttdJEAAAAASUVORK5CYII=&quot;&gt;&lt;span style=&quot;font-size: 16px;&quot;&gt;&lt;br&gt;&lt;/span&gt;" style="text;html=1;strokeColor=default;fillColor=none;align=center;verticalAlign=middle;whiteSpace=wrap;rounded=0;" vertex="1" parent="1">
                    <mxGeometry x="480" y="540" width="390" height="200" as="geometry"/>
                </mxCell>
                <mxCell id="21" value="&lt;span style=&quot;font-size: 16px;&quot;&gt;Spead&amp;nbsp;&lt;/span&gt;&lt;span style=&quot;font-size: 16px;&quot;&gt;Operator&lt;/span&gt;" style="text;html=1;strokeColor=default;fillColor=none;align=center;verticalAlign=middle;whiteSpace=wrap;rounded=0;" vertex="1" parent="1">
                    <mxGeometry x="880" y="140" width="130" height="30" as="geometry"/>
                </mxCell>
                <mxCell id="26" value="&lt;p style=&quot;margin:0in;font-family:Calibri;font-size:14.0pt&quot;&gt;&lt;span lang=&quot;en-US&quot;&gt;Javascript v&lt;/span&gt;&lt;span lang=&quot;vi&quot;&gt;ừa c&lt;/span&gt;&lt;span lang=&quot;en-US&quot;&gt;ó tham&lt;br&gt;tr&lt;/span&gt;&lt;span lang=&quot;vi&quot;&gt;ị v&lt;/span&gt;&lt;span lang=&quot;en-US&quot;&gt;à tham chi&lt;/span&gt;&lt;span lang=&quot;vi&quot;&gt;ếu&lt;/span&gt;&lt;/p&gt;" style="text;whiteSpace=wrap;html=1;strokeColor=default;align=center;" vertex="1" parent="1">
                    <mxGeometry x="860" y="180" width="210" height="50" as="geometry"/>
                </mxCell>
                <mxCell id="27" value="&lt;span style=&quot;font-size: 16px;&quot;&gt;Tham trị: 1 biến gán vô 1 biến khác. Thay đổi ko ảnh hưởng nhau&lt;/span&gt;" style="text;html=1;strokeColor=default;fillColor=none;align=center;verticalAlign=middle;whiteSpace=wrap;rounded=0;" vertex="1" parent="1">
                    <mxGeometry x="780" y="280" width="160" height="100" as="geometry"/>
                </mxCell>
                <mxCell id="39" style="edgeStyle=none;html=1;entryX=0.5;entryY=0;entryDx=0;entryDy=0;strokeColor=#FFFFFF;fontColor=#00CC00;" edge="1" parent="1" source="28" target="38">
                    <mxGeometry relative="1" as="geometry"/>
                </mxCell>
                <mxCell id="28" value="&lt;span style=&quot;font-size: 16px;&quot;&gt;Tham chiếu: Ex: 1 mảng A gán cho mảng B, mảng B thay đổi, mảng A cũng đổi (&lt;font color=&quot;#00cc00&quot;&gt;Đặc biệt là Array và Object&lt;/font&gt;)&lt;/span&gt;" style="text;html=1;strokeColor=default;fillColor=none;align=center;verticalAlign=middle;whiteSpace=wrap;rounded=0;" vertex="1" parent="1">
                    <mxGeometry x="980" y="280" width="160" height="130" as="geometry"/>
                </mxCell>
                <mxCell id="29" value="&lt;span style=&quot;font-size: 16px;&quot;&gt;GIẢI THÍCH THAM CHIẾU&lt;/span&gt;" style="text;html=1;strokeColor=default;fillColor=none;align=center;verticalAlign=middle;whiteSpace=wrap;rounded=0;" vertex="1" parent="1">
                    <mxGeometry x="3940" y="110" width="260" height="30" as="geometry"/>
                </mxCell>
                <mxCell id="30" value="" style="endArrow=none;html=1;fontColor=#00CC00;strokeColor=#FF3333;" edge="1" parent="1">
                    <mxGeometry width="50" height="50" relative="1" as="geometry">
                        <mxPoint x="3790" y="810" as="sourcePoint"/>
                        <mxPoint x="3790" y="130" as="targetPoint"/>
                    </mxGeometry>
                </mxCell>
                <mxCell id="31" value="&lt;span style=&quot;font-size: 16px;&quot;&gt;[1, 2, 3]&lt;/span&gt;" style="text;html=1;strokeColor=default;fillColor=none;align=center;verticalAlign=middle;whiteSpace=wrap;rounded=0;" vertex="1" parent="1">
                    <mxGeometry x="4080" y="180" width="130" height="90" as="geometry"/>
                </mxCell>
                <mxCell id="35" style="edgeStyle=none;html=1;exitX=1;exitY=0.5;exitDx=0;exitDy=0;entryX=0;entryY=0.5;entryDx=0;entryDy=0;strokeColor=#FF3333;fontColor=#00CC00;" edge="1" parent="1" source="32" target="31">
                    <mxGeometry relative="1" as="geometry">
                        <Array as="points">
                            <mxPoint x="4030" y="360"/>
                            <mxPoint x="4030" y="225"/>
                        </Array>
                    </mxGeometry>
                </mxCell>
                <mxCell id="32" value="&lt;span style=&quot;font-size: 16px;&quot;&gt;Mảng A&lt;/span&gt;" style="text;html=1;strokeColor=default;fillColor=none;align=center;verticalAlign=middle;whiteSpace=wrap;rounded=0;" vertex="1" parent="1">
                    <mxGeometry x="3830" y="340" width="130" height="40" as="geometry"/>
                </mxCell>
                <mxCell id="37" style="edgeStyle=none;html=1;exitX=1;exitY=0.5;exitDx=0;exitDy=0;entryX=0.5;entryY=1;entryDx=0;entryDy=0;strokeColor=#FF3333;fontColor=#00CC00;" edge="1" parent="1" source="36" target="31">
                    <mxGeometry relative="1" as="geometry">
                        <Array as="points">
                            <mxPoint x="4145" y="463"/>
                        </Array>
                    </mxGeometry>
                </mxCell>
                <mxCell id="36" value="&lt;span style=&quot;font-size: 16px;&quot;&gt;Mảng B&lt;/span&gt;" style="text;html=1;strokeColor=default;fillColor=none;align=center;verticalAlign=middle;whiteSpace=wrap;rounded=0;" vertex="1" parent="1">
                    <mxGeometry x="3830" y="443" width="130" height="40" as="geometry"/>
                </mxCell>
                <mxCell id="42" style="edgeStyle=none;html=1;strokeColor=#FFFFFF;fontColor=#CC0066;" edge="1" parent="1" source="38" target="41">
                    <mxGeometry relative="1" as="geometry"/>
                </mxCell>
                <mxCell id="38" value="&lt;div style=&quot;color: rgb(248, 248, 242); background-color: rgb(39, 40, 34); font-family: Consolas, &amp;quot;Courier New&amp;quot;, monospace; font-size: 14px; line-height: 19px;&quot;&gt;&lt;div&gt;&lt;span style=&quot;color: #66d9ef;font-style: italic;&quot;&gt;let&lt;/span&gt; mangA &lt;span style=&quot;color: #f92672;&quot;&gt;=&lt;/span&gt; [&lt;span style=&quot;color: #ae81ff;&quot;&gt;1&lt;/span&gt;,&lt;span style=&quot;color: #ae81ff;&quot;&gt;2&lt;/span&gt;,&lt;span style=&quot;color: #ae81ff;&quot;&gt;3&lt;/span&gt;];&lt;/div&gt;&lt;div&gt;&lt;span style=&quot;color: #66d9ef;font-style: italic;&quot;&gt;let&lt;/span&gt; mangB &lt;span style=&quot;color: #f92672;&quot;&gt;=&lt;/span&gt; [&lt;span style=&quot;color: #f92672;&quot;&gt;...&lt;/span&gt;mangA];&lt;/div&gt;&lt;br&gt;&lt;div&gt;mangB.&lt;span style=&quot;color: #a6e22e;&quot;&gt;push&lt;/span&gt;(&lt;span style=&quot;color: #ae81ff;&quot;&gt;4&lt;/span&gt;);&lt;/div&gt;&lt;div&gt;mangB.&lt;span style=&quot;color: #a6e22e;&quot;&gt;push&lt;/span&gt;(&lt;span style=&quot;color: #ae81ff;&quot;&gt;5&lt;/span&gt;);&lt;/div&gt;&lt;br&gt;&lt;div&gt;console.&lt;span style=&quot;color: #a6e22e;&quot;&gt;log&lt;/span&gt;(mangA); &lt;span style=&quot;color: #88846f;&quot;&gt;//1, 2, 3&lt;/span&gt;&lt;/div&gt;&lt;div&gt;console.&lt;span style=&quot;color: #a6e22e;&quot;&gt;log&lt;/span&gt;(mangB); &lt;span style=&quot;color: #88846f;&quot;&gt;// 1, 2, 3, 4, 5&lt;/span&gt;&lt;/div&gt;&lt;/div&gt;" style="text;html=1;strokeColor=default;fillColor=none;align=center;verticalAlign=middle;whiteSpace=wrap;rounded=0;" vertex="1" parent="1">
                    <mxGeometry x="920" y="540" width="280" height="200" as="geometry"/>
                </mxCell>
                <mxCell id="40" value="&lt;span style=&quot;font-size: 16px;&quot;&gt;Cách giải quyết để không bị lấy cùng giá trị&lt;/span&gt;" style="text;html=1;strokeColor=none;fillColor=none;align=center;verticalAlign=middle;whiteSpace=wrap;rounded=0;fontColor=#CC0066;" vertex="1" parent="1">
                    <mxGeometry x="910" y="460" width="150" height="40" as="geometry"/>
                </mxCell>
                <mxCell id="41" value="&lt;div style=&quot;color: rgb(248, 248, 242); background-color: rgb(39, 40, 34); font-family: Consolas, &amp;quot;Courier New&amp;quot;, monospace; font-size: 14px; line-height: 19px;&quot;&gt;&lt;img alt=&quot;&quot; src=&quot;data:image/png;base64,iVBORw0KGgoAAAANSUhEUgAAAaAAAACoCAYAAACmEjqAAAAgAElEQVR4nO2dbXRUVZqoH0FtDXXCR4VpioSPBCgSUZK2qZi5iBIRAb0WlKDLNSs3Pago3fOnG2P36nF6gJnx9po2Yv+57QfdMp2b1culaDQ9LQhK0MjqmKK5id2aECARJJY9pEBziuCg4P1xTlWdOvVdqZNK4H3WylqpU/vsvc8+p/a734+z3yvml5Z8gyAIgiCMMONy3QFBEATh8kQEkCAIgpATRAAJgiAIOUEEkCAIgpATRkQA2V3VrF/jxJ6wkJN1NdVUJSwkCIIgXCpcaX0TDlzzFXxtPfgTlHJWlKL4vLRFFFKoWlNNmS18xNfWzO6j8b/XCnnZ8bYv9NHuqsY9X0lYBhysrHHhiOqZSteuFlO/wmUj+4MmSFeVoiStI1XM12iqa66L9VXmXpvbizNOpv47l7lZbKpKPdzCTq8adV5oTAPdNL9mvLfxxjHUIgcavfQQu03zeKbTJ0EQxhbWC6C5RTjwceBookIOShzga4shEHxedrwWPu5cVk3VGdNkHiFMtPPWrzFNjMaJ0u5k3SoX65eZhVCKk9vcIhyBbrrUUspmOeCoz1QghpBY5aYo7YlTuxbb4RZ26OfZXdW4V1VDhICJbE8r42aSWThGCd0YGMvMdbG+qpp1mPutMK9QwXe4G9v8QubZe/CH+uJjd2NzqKRzmZvFxGpXF4qqlx2NxvbcrCRBv+P2SRCEsYbFJjiFqusdqIe7QyveWNhdpTgC3XiNk87cIhyodHVETlw9byfTJHzsbvOBrZB58cx5/h4+8AGKktgsGAfnLAeoKm3HfeAowpnshKNemg+rKPMXpWVidC5z4Qh002KYaP3eFg74FMqWxDdp+r0H6QqAY1Z8PSQljnbTFQAl36Q62R0U2VQ+7/VxMqBQVKLEPj8Bdtciymw+DhgFkz5OjipX/DGN1ydBEMYc1gogfaI62ZtopaqtptV+XwwTncKkyRm0e+YL1EzPTYqurR33wdGT+HBQMjf5Wf7eflTSmay1dmKNS89xH9gmJhCeKqdVMhawybCXFKIE+jniVznSr6IUOtJsR7vn+E5GLUy0cbIxRXyBgnDJY6kAclaU6hNVgkJzSymLJaT0la6jyp08gMHM5IkoqHx+Jl6bLhbHmdyTopsUe48C+Oj1pahp+FUCpLFytyvYgMCZeMI70SStMEUBVDX96zN2wbWIMpsubA11GxcM/t5+1ETaZkxsTLKBOhiI8338xUPsPgmCMBax0AcU9OskCT6Y5YCo4AMAlbbXmjniqsY9vxR3TSkpOfPtTtZVxajTFqwDvZ7mmPUo86tZP994xOQ01/sb/OwfVGF+EU58Cc2MWeXMF6jEF2TOZdWU2VS6Wk2TtMPF+hrjgRjjGVHGx4HGlsjrMmu1fpVAULPzZ8Enowvq+P2O0SdBEMYklgkgu6s0efCB3cnCqOCDSPzeFnZ4IeiQL4vlXDdNrL62Znaa2w0GIehRamUVDtpiOOQTByHoZrHD4SnS39uPOr+UkrnQkzDQQq8/7qo/DSZPNEXZKZStclMW/BjoprkxhuBPJwhBj65b6FLoMYyHvaQQhQCnDUEHvT5YXOjA7h2exqU1oGt+afRJEISxiUUCSDfTHD6YOPigpBAl0E1LChO3Fl3VokVOXe/EftQwwaYysQbx99ByuBD3/FKq7L70QqPnFmnhxVFaEigxo+EMJDWpmfupaQK2yQoQeY59sjZFn/YDk2F4Yd5xOOrlwCw3i+eX4vQGNT7dd4PC4ho3iyNOMEfDJSLA5wFw5NswX1vQfHoylvk0Zp8EQRirWCOAhh18YC1+bze++a64WlA8nLMcMd57Cb4Tk9gM56woRcHHBykJW4ivWQQd+IkjC7NBT0c3Cx2lYY3D7qDIFuPdJ107Td0MpwUvlMUYs+AYx/MbRvVJEIQxiyVBCNpLpd2JV+RzSymz+fggziRid1Wz0hxdNrdUc0D/JbFfKTna5I6jNI2waM2xH0tg+s8EIEE0XPBlSl9beqv2no5uVFsp1a6wwS1m+LJV+H2cDIAyv1QLi548ESUUgGFE02jSiYbze7vx4WDxMkMAx1wXix0qXa0J7q+5T4IgjFks0IBivVQajdmZb8bvbaF3mZv1Vcaj8YMH0iW4kjav2qODEHTzFtrqP6YJ7ehJfFUOLRruDKTsk0mGv4edu2DdKmOfIoMi0iIqCCGWNmNEpe0vPsqqdOGqayfR1xHUaNIxw/nY3ejVXhoO9SkVU2Jkn1LxuwmCMDq5ItsJ6TRzVCDxJKkHAgQSTn6CIAjCpUyWTXDB4IMkOx/owQdeET6CIAiXLVnXgARBEAQhFSQfkCAIgpATRAAJgiAIOUEEkCAIgpATRAAJgiAIOUEEkCAIgpATRAAJgiAIOUEEkCAIgpATRAAJgiAIybE7WVfjZv2yFBJwpsj4goLJW7JWWxzsrmrur7yaT7r9nItbyMm6tQvJ7/+Yk3ELXa44WFlzG0sWTueaMTA+dlc199+2kO8szGfog09HfLfzlJjrYv2di/iORWPqXObGXf5N4md+zKNQtWYlyxfNZ9rQYY6etqgZi+9VJPo1FQ7S0ZeF3F0jSHrPXCpzSvD+Tuea/v/m+lXlXH24hd+9l71ftIUZUYM4cM1XkmdGrShFichiqmi5f8yJP9PJ/SNE4FzmZrESnU4i2wSTCDqXuVlc46ZklO35F96dfBj9mutifZUt+3mYrGYs7sN41MuOo/o+k7ESUqbJSP0OxjZaihWHz8uOvxSxfpUrdqLPYWK9AJpblDwzaswdtLWU3G2hz7pAsqqfoxofuxubc92JtOl5u3lUJo0brf0ae5h/o9YSzo4sDJ9kc4rxex87LFqsWOwDUqi63pF8c1JXKQ7ZnPSywO6qZn2NS3L5CIJgsQY0QplRtRQQ4aRtEVlL45ocDCpmyKSnHzOUijbTxDANxsiSGl3OlMdnrov1VXCgsZspxnIJ+xMjF1ConpOUGMqqh1vY6VVj1FGKu6Y09ClcLgVSHEvnMjeLMV6HPhaqlx3HAxD4Qh+r6LFMqz8mgqY1vaYY5jHzWKSfyjyyDaLzPhmfA1XFP9fF+qrgCbFyOSV65rTxKer3crLQRZlNG58WFmnPexrmaPNvRKky5toy9kvrD23NeCcbzzGWMd+3DFPCxzNj6s8ZxmchYhzN/UmF9H4H6mAgcsxi/cYT9ik4jl6o0tr1tTXTO0t7fjJ7zpPMKZDCM5fCnKJjftYj50LDb9rwDKZr3rRUADkrSlESpFcG9CynKl0JhVSi811Uc5AdjcHztQF2L1O1gfH7OBkopex6J/ajhkGZW4QDla4O4yRZRG9jM7v1I3ZXNe6qaqrOhH8gzmXVlJEswZx+kyMS0TlYucxBT8SE4WBxjQP1cAs7vKr+w3Oxcm7wRofVYO3HEL+9xTUOfG3Nmqo818X6qmpWnmlm99FwHcO2fac8lvG66WK9Q6Vrlxc/4Fy2CFqb2RGsKKLf6XQs+MM0TZLLnNjfjlyIEBxrMvMphMx3qfiAHC7WK900N3rx631cvMaJPzT+qT1zynwXk9qaaZ5cjbtwEdVqNzvailhfVUqV3ZfSxB8yX6XoA3JUuXGHnl+976Hn12B608chI46exFfloqzCQZvhd2EvKUTBx4HgBG13sm7WSXY0Bu1vscYyGen9DpT51bh9XnY0+oiaU9Lok6OqlK5dzfRWuFl4fTUL+1toHlyEe34pTm8GAjTZnJL0mUtlTjEIl0bD9a5ys5Ls+g4tNMHpfp0k6bO1zKhJ0ncn4qjXtJLQ020rip4eWsugia2QeYZ80c5ZDgj0G4SjSttrkQ+Ev7cfFYVJk4NHtLTcqGria1rm0vxeEQ+4j90xVqu+tuZw//0qAcA2WYkql4yI1cnRbroCaBlas0qqYxmvk152NIYn1p63TZP30ZP4SP/6tTTlmmAL3z+VtrfD4x9cDLUYnhW/96BF46QTsWrWssZim2hIW57KM6fVEzJP2+BkMkGfDXxedhj6flrF8JvKWiN4D6vgKDKYZDWLCL6T4XHx97Dz7Uj/cPRYZpkI7dI8p6TRJ8PcptgCfJCxdp/inJL0mUuBuaXaYs5Yt7+HD3zZ/61YpgHZXaXJgw/sThamkL47MXGi5YwRlPpKK5x+Oxj0kEylNlcVTAetp5GOY3qbohD5A4qLyudnjJ8zDTYw12OcMDI3bcYk1bFMBX01bhY36f5E7fkKJNS0tXsSbebVU4kXWjBOqZL0mSO04LHr35z2A5OjTskq6mBkCLJVgRv+3n7U+aXh9Oq62b6rNXJOMJuDNHIbJp1KnyLGMWR6Tpd05pThY59sAxQW17hZbP4ykN3fikUCKJgZ9WBKmVFbMlbpYplegiq2sZy20nIXOrB7VfyxIvP0iSDCNhs02xjRQ0KD32l25HTt0SNEEk0tM1IYy1QICp8YPq8MDTpjj1SfuUsZfw8f+EpZPMsBR336nBCpTWsTfaSfKbFJ2npGY5+yy8jMadaY4EYo+ABsTLKRNMoO9JWWbjpyzoqOzNOkvi91Fdnfw87GZnbs6kbFQcnc4BdWmSvSQV/xD1qzQkw2likxeSJKKn6jVPozmMzMoN0TpdBhKqObeywR1MlJ+5m7ROk57tPNcNr9iDTbB1f/wzDTZ52R7tPIzin+MwHAxpQRaMwSAaS9VJrk5uh2xvg/Ps3BFlnePGEF+DwASn54zRxbLUZ3oCsUlTgpcUQLx6hBj2MeikKfSI0msJ6OblRbKe6ILStM12MhzmXVMcdWm6gj/TcZkWwsByPt+lp/THWc+cLk64iOBku5O95ufDhYvMZp+IHqQQj6p57jPrCVUu0K39GQ7ygTIaj3v6gkfX9dqN+ZPnPDQfczWub3yoSjJ/HhoMTloMjmozdCm46efKOiXtNk+L+D7PcpGSM6pxztpiugULYq0esS0WMQd+5NgAUmuFgvlUajBR8kUvF87D7uYn2NS/8cK9RTpa21m6JVuk8GwOel+XAp7kJzfZr/Zn2VZvbZbRaOR70cmOVmcSisVnNqT1rlMhSKNUnG6Je/h52NKitrDP3SVdq0iJqQwnbZyDBOJTocOEaUnt/bwoF84zVmGg6aeCz93oN0FVZH9PUA1ZH2ZH8PLYcLcRvCgX1tLXRdX01Rmr3RfGctVK2pNoTWavcl1LWjXnaccbJuVTXr54fPy9jM4O9hZ9tE1lcZ6ovpE0xASs9ctvGxe1c361ZFP5uZhzQbwtEz2qlEN+vOL0U93BLVj563vZTUuML3NtBNc9tE3FVRFaVENn4H2e5TUkZ0TlFpe60F1lRH+YGMwU7mMVAP6xF+UXNvfK6YX1ryTXpXkBhtJRBI/ECPxe1ARitjdUsYQRAue7JsggsGHyTZ+UAPPpCdDwRhLKNQtcbN+ppqqnLn8BTGMFk2wWkvqCVD9nQSBEEQsm6CEwRBEIRUkIR0giAIQk4QASQIgiDkBBFAgiAIQk4QASQIgiDkBBFAgiAIQk4QASQIgiDkBBFAgiAIQk6wLiPq0mdY8iMXZ5sXceg3lrUiZJ1xNDd9izmhz1/ziucr/jmHPcoel/K1CcLYwzoBNKcAGyqfHstCXQ++zCo3HFp9L3/NQnWjidrtrTzqUkBt56klD9OQ6w7pHPv9OdwvJCrxBN+//15mMkjnnkW8eDqTVh7k/rt/QvmE8JETXifPpP3MBPti4LOX+en+x03lLuL2nNP+feAqPrw77Q4LgpBFLDPB2aYVAAME9meprsEBzg6/qlFGLUtKFXq97QwqZSypSX7GaKB6aQ8/v/87nOkZHGY9P6FcfZmfvujkpy86+XXPIDNdB7l/Sro1Pc4zeh3a38ucmHYvP1/6xLD6JwiCtVgkgGr4dqkCfR9kQWPR6/J/muMEvBZQczOlisrAO+/RrSqU3lqb6x4lZc6NB7mDl/npi3cy3O38WvY7I7SUY4fe5AT5zJn94DBrfpw9PYMw7TtUD7MmQRCswyITXDET8yHQ3Ze4mO4nCucq6wub2R58mVXu4nDZ/NWsen116ONfU/UtbX2VztXQ9Dp4VpcAvTRVdFLe4aEElfb6JWxoDBbeTFOHhxLD6b2vV+DZrH+oeZ7WujK667fDI5uoDCbV6Gui3LM1otktTR14ioli0LuNJRs0Q1vtrWXkq120NjbArRuoLL2ZWhpGjRkuFscOLeKnFrdhyy9JXigVzg5wIsNTg6ZR4/0SBCG7WKMBLZ3OBODsZ41xi9geb2HVj0r59OlF7Fqt/R3qK+bG//uMJpB+c692/GkvATSBEyy3a3W6gQ0leG4b4KmKJnqZyrLW2xmo30a7qlC5NihdatneWk5nRQXl+t9TXpWS1a1sjzCNKVTWbaJgn17u9V4o9tBkkD+a8OmlKVhXfTuDYJrMNPPbYPd7NAAN73SNKTOcJUyZwRQgMNg7zHoauN+Zz4mPasmGC1IQBGuwRgNKFoCw9Bm+Uwk9T1dzLOQj+hmFxUCfydQ2pwAbffQMM5Kud9/DNLAZDwr5A01saITtjxhLNLBhSeRKt+GdLja4KimYZ6rLqBVt7qR3dQkF02uBBqCWwgKgr5MtwRMa36P7kUoqCwwqkW5+635Hb7Oxn4G6Ss0M15jGivviTfzp3PTY343/iKevOUz8ZcBo4kHuX1yFjaPsyShs0hSI8NnLPDEM6dOwYcmo1kQF4VLAEgGULADBtrgUGwrOHx3E+aPw8UD7L9n1ROR0qQUgdA8zAEFl4Ej40+BAHNPg1lfpXB1t/hlIq60G+gc2QXE5W0ATQjU3U6pA776wmlR7axn5nKI/dLlb6ezz4EnXDDfufb47IXmx0U71Ui0a7oT3TloyquFxnnkx7E8KBkrseTHT+gRBsBoLBFAwAGFfnACE4Pevs+uH/5paXSMRgKALnwgzWc3ztNZVpl1V74AKxSV4Ojrw6McGvdvCWpNufgMlooyGZoZrGBtqS1aoXtrDHdMg0PPvGYRgx6Zl/8uU3n8v/+PGB2mRF9EEYVRi2XtAgVNJAhBSIsVghixQO30q0Mvbw3Y4b8bjUiLNdGaCGlFUGS0IIi0z3Bg3wc258WBI+DxhgaA4/YUIH0EYrVj3HtDUsL/D9ngLSx4Petcb+Wu3CsW3MWdpslr6+GIwsi6raPj0FDCVwmA3de0nP8P6NJ9QHOYVkE8vnVECqo8BFfJLbyblgOxx7/PdCU2x/3IufDbT1NFBZ4c5kENnzhs85MxPSfjUbm+ls6ODzqZ4Ut3Ig9x/973MPNvGngw1qvTaEwQhEyzQgBo5tn81TrchbLrvdXb9MDwVBp6o5tAvD3KjyQcUbZZr5NhvFjP9R4a6Br20/q/vZ98kt/kemhZ24KnroLMOQKW9vomCOk+yM01sxfN6OZ2rN9HZsSnyK323g5KFJaC2Ex3r1UBr9wYqXaPYDDelgcfvqDKEzkP5HT2UQ4zdBzSBWqLo0YaNxlD1J/i+ay4ANudP+LnzJ4bvondXaPj0FI+iQPHtbK/ZagidB+a8wc/1uoIEev6dnw5Dowq3Z/DlCYKQVa6YX1ryTa47cUmha04DZvNa0J806t8r0fZLI+lWPCkSy7eWEbVsb91EpdJLU8U9wxcI+lY88feCy3J7giBEIbthZ5t5BbHNdvrxgU9Hs/DJNrVsv017+XfYvrWta6hUYND72sgIg5FuTxAuQ6zbjPRyZfM9PDW9lUdXd9C52viFSnt9RaTpaBQz5+5r9c06M9sxOmKT1YrhbLIa3p0iYWBHSkTvhh2Fwfc3/PYEQUiEmOAEQRCEnCAakJAytrxc9yBzAkO57oEgCGZEAAkps2jB+Fx3IWP2ey/kuguCIJgQE5wgCIKQEyQKThAEQcgJIoAEQRCEnCACSBAEQcgJ1gUh6NlOz6aauVQYJUS/K5PJe0DCpY48J8LwsU4AJUtKlw4PvswqN+F03ZcAMVN263vFjYa9Eo5layueS5jQPYyRkt0aHuT+u7W8SVbtHh6V2C/I2TZ+/XtjhtmLuD3ntH/1bY0EIV0sE0DJktKlXdewk9KNQiIEjvbG/6NNm2kYkclMGB6bKS9WafeeotI1QhuWzllL+QglHzzhdWYtN5MgxMMiH1Aw6dwHWdBYRjApXU7ZSpNXDe2+LIxytpZTwin6N3TSSwnllq8ZtN3DAz0v03nJrcSEyxWLNKAUE8npfqLw1v59YTPbgy+zym2wUeUbUjIAf03Vt7T1VTpXQ9Pr4FmtbYzZVNFJeYeHElTa65cY9mcL7zsWJGI/sJrnaa0ro7t+OzyyiUol2O1oE0xMExsk3xVaHYiRpuEyJZ17F5VO3bSLdbCu0Pka0fcj+hnQiGxvy8IS6GtiC1vZ0ufBs3AzYJ0UmnPjCmZylD2Hevl2oWXNWEJwX8Dh74guXGpYowEtnc4E4Oxn8XfetD3ewqoflfLp04vYtVr7O9RXzI3/9xlNIP3mXu34014CaAInWG7X6nQDG0rw3DbAUxVN9DKVZa23M1C/jXZVz1MDaNvvl9NZUUG5/veUV6VktTmZmkJl3SYK9unlXu+FYg9NhrlHEz69NAXrqm9nkCTCp+Z5NrgUBrvfGxU+oNFDCveu5nlaF3aG7lt5xTba1RI8rc+bEvuV4Om4nYH68P3Nd20w3F9d+PQ1RTwDZuGjmd+g9wPtpm/5oNdazXVKA/c78znhvZMWq9owMdPVw8/v1//ubjAEGwhC9rBGAOkBCF/EsyEvfYbvVELP09UcC/mIfkZhMdGmtjkF2Oijf5j+1t59QV+LQv7AWzF2pW5gw5LIvC8N73QxiELBPFNdRq1ocye9GDOg1lJYAPR1hutqfI9uFfILTCqRUsmjHR1a5s26SvL7mtJfIV68iT+d9cT++3I+sRKRjjWS3rvGh1kSoYE20NqtglJg0mQiBUnU/a0ppICwYIlZBnTzmyGj7ZEBBi00w1UvrMI2jOyu6fE4z7zo5Kehv3+nkyoeuv8NqjOssWHDEsorKkT7EaKwxASXLADBtrgUGwpOU0bUQPsv2fVE5OySnQAElYEj4U+DA3FMg1FmHI2BtNpqoH9gU2QmzZqbKVWgd59phooIQtASoHV2lKeXAG3c+3x3hBzTuSG1exfb5HkqvaYa+xmogxKDOa321jLy6eVtQ1qGLeaMto3v0f1IJZVWmOHmvMEd0wbp3GOMQBtJfsOLB25lzh1VlM6BFglMELKIBQIoGICwL04AQvB7c/rtBGVHIgAhVubOYBbTNOkdUKG4BE9HB8GE3oPebUlyyzSw4bmbaa2r1FbSkocmZTThE6ndaH6HdGvSU4gXe+jsCN45lfZ644JAM7+Bpr0+ajxdyXY03IPcf91c+OzliPTkuWLKxAcBealPyB6WhWEHTiUJQEiJFIMZskDt9KlkJXMnm/G4lGEkM4tc8Sfl4k386dz02N+N/4inrznMGMmBlyFBk2css2qabF2TPAX31vIYwSuEFitZXTxMuZU5E4AJ9/Lz+++N/M75E37u/ImF7wMZmFyAjUE6PxbhI2QX694Dmhq2h9geb+E7/IbWJxqBRv7a/SDOytuYs/RfDT6gWPTxxSB8e2qMcLIs0/DpKR5lKoU1QCMRmTHTM8FpaD6hdIRZLdsfqSRfbac1nYk0Vya4b+azf+g6FFS8eW+x8YpYhaaz8+xNFAN91zaxLo7H8WfnPaz5Crjqfb579adpdkQ3eRYUEhzxUDbWdE1wAMZnIAa106eC2hV9j2KY7zD2JZOXVU/X8sSL5oPay6hz+mMLnqApMmsRZ1MaeNw1PC1sWGMgXNJYIIAaObZ/NU63IWy673V2/TD8iw08Uc2hXx7kRpMPKNos18ix3yxm+o8MdQ16af1f38++SW7zPTQt7MBT10FnHWimlyYK6jzJzjSxFc/r5XSu3kRnx6bIr8w7HSgmM85Y+oF+MwklaRmFgqQVKRReHF5XtniaKO/whMdSbeep1wt4dHWyM01EPQNhtAkdlpQqMNAfY2mxlc4+DyXFkWY4bWGjQPHtbK/ZanlKds38q5DvWsMWGtI3B05p4PE7qgyvRgzSucc5LBNgeAxG6IVdYcwg+YCyja45DZhNcEF/0qh/F0Lb44vLcCsebaV+KsoEF/QnRZndUquV7a2bkpv2soYeSj6S2zrpW/HE3wtupMdAGCvIbtjZZl4B+QmOD3w6moXP5U1JQWydTjt+iv5MtJeta6hUYND72ohMvLXbb6cEY+j6KGCEx0AYO4gGZAFhH4SRGI7rUcnlvMtxcKVuOpyRNhHeUSHzgJQ0CPksR+o5S+E5MfhRR2QMhDGHCCBBEAQhJ4gJThAEQcgJ1uUDEi45bHm57oEwGggM5boHwqWCCCAhZRYtGJ/rLgijgP3eC7nugnCJID4gQRAEISeID0gQBEHICSKABEEQhJwgAkgQBEHICSKABEEQhJwgAkgQBEHICSKABEEQhJwgAkgQBEHICSKABEEQhJwgAkgQBEHICSKABEEQhJwgAkgQBEHICSKABEEQhJwgAkgQBEHICSKABEEQhJwgAkgQBEHICSKABEEQhJwgAkgQBEHICSKABEEQhJwgAkgQBEHICSKABEEQhJwgAkgQBEHICSKABEEQhJwgAkgQBEHICSKABEEQhJwgAkgQBEHICSKABEEQhJxwZa47MHrYTFOHh5LQ516aKu5hi1XN1eWzZYUS/nziFFsePG9Va9E8cBUf3g2veL7in0euVcv4l6evZfmpL/nb//1NTtp3LnOzGC873vbFLWN3VeMu7Kf5tR78I9g3QRitiAAKsRVPxVYAare38qjL4ubqB9lSPwiMZ+1r07jB4uYiuHU8f7z7So79/tyYET5bmjrwFAN9TZR7tkZ9/8+vnWf5D6/hj/+YAyFkd7LQodK1K77wAQeu+Qq+tljCx8HKGhcOVLp2tdBmoXRyLnOz2BH+rB5uYadXtaQtu6sa93zDImsErk8YW4gAuuwYR/MPrwbvl5QPi24AABUgSURBVLhfyHVfUmUz5cUq7d5TVLrK2QLRmuk7F/jbOV/z4d1X8cKt53ngnZHrnb2kECXQz5FEE+vcIhz4OHA08rAmEHx0HVZxzLe0m9hd1SxWumlu1IXgXBfrq6pZeaaZ3UeTnZ0+fm8LO7yR7btXVYMIIUFHfECXGf/y9LeYM3ie53JkqsqIreWUcIr+DZ30UkJ5tAKk8cJXvPLxeG56YDx/P2Kd0zWbvyQyqylUXe9APdxNj+Go3VWtme0avRyxvqOaQDCa/4520xUAxyxHotOy2H43PhSKSpTkhYXLAss0oJDJBACV9volbGg0ljD7XExlap6nta6M7vrt8MgmKoPPbAwTjGYyi1T1o9rb+iqdq0sMRdp5asnDNAz72qD39Qo8mzOoKCWu5qG9UykKff6SPz/r55VXEpWJV3YcFbPh2O8v8B/moltfpXM1NL0OntUlaD6wTso7PJREjaf53pnGIFhX6HyNQe82lmwwjnh0PRqR7W1ZWAJ9TWxhK1v6PHgWbgZiSyHNFHc19zxwjv+IqeEF28ySjy+OZhOB3UGRTeVkb6Spy+9tYcdw288GioId34j5pQJnrDH5CWMPCzSgWra3duAp7qWpooLyigrKK7bD2uepDRapeZ7WDg8F3m369xU85YXKug6aIuYVhcq6TRTs0+t5vReKPZFltr7Koy5or68I1VVeESl8are30rl6qqHMNtqp5NGOV9OcgPRroyncVn07BavN/c4SaydQt3cqkzo+Y8vyfrYs7+e3HXDDxkIeqgsW0oXPiVOGMl8SU1A9MJ45XGDgWLwGS/DcNsBTFU30MpVlrbczUL+NdlWhcm1QutSyvbWczooKw71TKVndyvYaU10dtzNQHy6T79pgKKMLgr6miHqiFw+bKS+G3g+0Ad7yQS8Ul8e/b+9cpGsQpk67IsVBHg6aZoPvZIRmY8ZZUZrcRJcTbEyyAao6IsLHucyFI9CN1wJznzA2yboAqt2+gUpFpb3euLpsYIMnrG1sWVtJvtrOdsNquGHDdtpVKFkYqUpErKw3d9ILFEwPiTJqp08FTtEfoV0Z2YzHpTDo3W6Y1BrY8Fw7g4nMObHYuoZKpZcmowbW+DBv90X3OxvccuckbGc/55XHLoSO9T32OX8+C0VlV2sH1l7FJOBkVziCrq/tSwJcw+TiyPr+ftoVMHiBdxP4R3r3Be+TQv7AWyatFaCBDUsiNYeGd7oYRKFgnrFcpCCJKlNTSAFhwRK3nq3llNBLZ3B4jwwkuW/fcPI05M8fF8cMtxVPRQXl2dB+dM2mqyNx8EGJgyQmutzgXKYHPiTs//Cwu6pZX+NmfY2bxQ6VrtbRNw5C7si6ACopUEDtojWuQKilsAAGu98zmb8aaO1WoaAwrCmlQMOGt+ilBE9HB50d5lU4+kSn0v2OydjW+B7daqQwS4Ym7IJthf88xaTd7+SMZ6odAke+pC/i+AUOHfkS7FdRDPDKV3yOQSABxVXXYEOlpz6yxpKp45O0qTJgcEYMDvTFLrb11Yjr76yrJD/VywrS2M8AkYK79tYy8o3CBt38pg7QGzpPu29WCPx0SUWzsbtKceCjd5St+u2uahY7QD180NKAAL+3hR2Nzdrfrn6KVrlZ5xIfkKBxCUTBBcOna9neuonKug4666z0y1j8flDaXODMWSiaOZUte4PHvuTPzw7yrqlk76kLMGWYzem+tAh/Ts3ztNZVpllRHwMqlBR76Ozw6MfMmrNmfoNKHu3o4FHj6UqcaLggp7+J9nNlFV2ziRlWHURhXqGCevhgQhPdSBMKj/Z5LQvBjom/h5bDhbjnl+L0ekfVmAi5IesaUO+ACkpBDMdykAb6ByC/9GaTxlDLklIFBvozCgzQTEO6f8e4Qm7sZwCF0ltN+knNzZQqMPBp6q01fHoKmEqhWcuyhAuc8oNt3jVEWtLGc+O8a8D/laYZ1U3ghgkq+3T/j/ZnDlLQ+I/PvoH88dxya+a90rTAXt7ekNldChE0Z1bE991p5jfV5N/T/G7xzXBXUDQFBk9ZHOWnBx8k1GziBB/klLmukPBJ9NKspQS+EDOcAFgggEImsVZD0AG1bG8Kf97yQS8olWzYbigR9B29MlxvfjEFitF8tJXOPkwO8Fq2P6L5oZrS0ZI2v6Y55OtSC17Y0qSbqNJqJMy7XSpMmMTaJ8Oms+InJ3HDhC/58xvGXROuYuraFCp84QLHGE/Z4swd9FFCWNd+0jbBAcmEee30qbHNuTHMdyFuHUdZPpz6LJ4A2kxTPHNtysQOqzbjrChF8XVnycTlYGWNm/U11VTZM6zC7mRdlSM14WN3sq7GzfoaF84Mm4tCF36j0R8m5AYLTHBb8VT0sb11k8FsojmkQ2vmzfdQfuR5Wus20dmxST+YmWnLHBIN0eG+WzwV9G5v5VHdPAdEh3NHTaQKno4OPBH1NbBhCWxv3RT6Lki0yU/zdcWj+Ek736u4JnxgQtCEZoheqx9kS98F6jZOM5jXVPYtN5jX6gfZV1bIbRsLuWFjZBuBjs+oNwQwwEU6Poa1riv5FzLcgmfzPTQt7MATGkuV9vomCuo8yc5MUk8YbbxJoBFvpbPPQ0lxtBnuX9ZcTf7geZ6L+5KtbvpTdK24MQNNLiXNJmiiSzDR252sW1WK0SNStspNGcQQEgE+D4DDplBW4aAtbe1FoWqJ3pbDxXqT8PW1mV5G9asEAAUHC10KPWmb6hSq1lRTZotohQONzWJ6E0JcMb+0ZAy9kSiY0QTZV5FCKXScGO8MjaO56VtM9eZu3zQIvrt1KmrREdwGKfq9sRR44Co+vPsK3v9lkp0QYvmx0sC5zK3tKJBgTzfNzxLgQGMWfR1zXayvcli6fY6RoK8oSjgJQpaQnRDGODOmXJPg+FecivIFXcT9+6/Jd13DH/9xJN6ViU1JQexIKO14orD6OOj72w16v0qyDU8t22/TXrTNzI+VSlh1MPggsYkuPfR3jvDxwYgEDmg7PCDv7QgWIhrQmEffzHSC6fDZz/ntmrPECaQeBbth61GLZjmU4Q4VqeyGHTLXDmMXjFwQiloLJNa6skVow9JcBioIlwUigARBEIScICY4QRAEISdcAi+iCsPFlpfrHmROYCjXPRAEIVNEAAksWpBsi57Ry37vheSFBEEYlWTVB/TtqZOyVZUgCIJwiSM+IEEQBCEniAASBEEQcoIIIEEQBCEnSBBCiMf49d67mBn6fJzdy7/HNquae+Rqvn/rVeHPn37JM3Uj6FC/7wL7boc3Hh5PffLSo566n/03t5y+Gvf/yc3uDjMW3cINfMQbBwfilskvW8TNU/+L9949weAI9k0QRisigEI8yUPLnwRgXf1/8nC5xc09d55nnjsPXMHtv85jXtITskjVBZpv/5rjb31rlAuf+/hF0w+osJkOf/IH7njgyYhD9Xuv5JYHztP8DzkQQhNnMsc+xPG2+MIHCiibmYf/w0yFTx4LblnErGvB/+G7vH8ys66mRNF13LnAsJPuuY+tE5rmthiB69PJL1vEzTPzLLy+Am5acR1Rm5dbOZ5jDBFAlx3fsOOBr6Hzata/lOu+pIhR4Kzdxqsb7+LV+uPcU2e4gLbxuGfCvtu/5qmqq3i0beS6lz/9b8g791988kWCQkV/g50B/pzBxKpNlHD8xADMTLDFejaYOJOlC/I43vYuH34BwUn05kVDCbW7jDn5EW8Yx6ToOu5ccAs3YbUQ0hYEI8FICdSxiPiALjPqfnaeWYEracyRqWrYvLKJ9z4B25wq1pm/e2k8b3xyke/cd4H7RqxDumbTm2hFm8eCkgKGTnzMJ+lWX3SdZrZ78yAfjsQepF+cYP+bB3XhAzBA14khsP8NM0ageU5+zPFzYJ9mraCdseg67Oc+5s8n5E3mXGKZBrTphf2sDD2xATqe/Z/8OGJnZrPPxVRm7TZe3ejk6LMNUGMww8Qwv2gmM6OdJkZ7db9lz4pZhiKHeN6ziZ3DvjY48eZSHrLMljWee353Dd8Ofb7AkcYveeuNRGXilf2GBTPg+FvjiVJ+6n7LnhWw+01YuWIWmg/sL1y39y5mRo2n+d6ZxiBYV+h8jUDnryK1lhj16CVjPC8mzvhi3jvNFPc1q+4bz0sxNbxgm1ny8aWi2UwsYOq1Q5z6NIPJzqwh5Iw88icCibS8LDJ01kLBMHEmc+zg//AEXyh/Y107QlIs0IDu4xdN+1k54zi7ly/ljuVLuWN5A9y1LbxiXbuNV/fexZTOX+nfL+X5TqjYuJ9fRyQns1Gx8QdMOaDX8+ZxmHFXZJm63/JwOXQ8uzRU1x3LIyevdfX/yZ4VdkOZX9HBjTy897dsIh30a+MP4baePcSUFeZ+Z4k7r+J7v7sG5aMhnvm7szzzd2dp/gjm1UzgnkeChXTh8+mXhjIXiCmo7rvILMZx+kS8BmexcrGf55f/gRPYubnpVk4/+ys6AjYq7nrMMAbX89HypYZ7F2Dmiv/kF2tNde29ldPPhsvYymsNZXRB8MkfIupJKnzqfsvKGXDioydjf982jiMBsE8diT12Nc0G/38l1GxmzJud3EQ3ipk4IQ8YYnAE+p9fdh2zrh3gWJdVAiiPBeWzyfN/NGJmMfuCW7hzhf53y8wMswdfmmRdAK2rr6XCFqDjWePq8iV+/EBY29h0143YAof4nWE1vLOugY4AzLzusYj6IlbW9X/hBDBlWtjAsm6aHfDzWdzV8mOsLLcR6GwwTGov8ePGQwSYxXXpCI66u6iwHWe3UQPTTULmfmeD7952NXlD53nr38KTaf+//TdHhuDb8/Ttc+4chwL89Ug4gq7/0AWGGE++yWZy39SLEBjH+wn8IycOBO+TDduZd2IIgpf4sSdSc9j5xx4C2JgSkZk2UpBElVnrYAqRgiR2PcCMu9izd7/2t2IWgc5fJdA4r8B3BmxzLsYxwz3JQ8uXckc2tB9dszl+JHHwwXQ7SUx0o5ii67jBTmbmwzTaCE7QN8/Mw//hRxa2NZtZSe9Zthjg/Tff5Y3Q30GOM5ubV1w3MubMMUDWTXAzp9ggcIj2uALhPqZNhsCxNpMJ5SXaj9VSMcfBOkjZNLaz7h1W7r2LlXv3szLW6nmtgykEOPpHkz3mlTaO1tzI3Gn3QbRBKiaasLPpbZkIpNfv5FzB5Ekw9PHX9Ecc/4aujy8wb/Y4CrlA/xsXUWuCAkkTQoU3jiePr/jLc5E1zpxykcRrjgCnDQmEAqePxy5mNmfqnE5+UWFe8XF6Y1Bw69GHf+vExnHeMwuXCLPrY/x67w/Y01SVsQk1W2iazccJNZv8stkZBx/knIkzWbqgAM59zCHLNBJMZsYCblpxC3dOSxzSnhkF3LSggKETRh/XSDLEh50fM7VqNtOL4JOx+ExkmUsgCi4YPq2H7G7cz56NVvplLH4/KG0uMjgE355+Dd//XfDYBY40nudPppInTo+DycNsThc+Ef6ctdt4deONaVZ0nNMBmDnjLvbsvUs/ZtacY/EkD715PXtWOKlcCzvjLXTOjEtxWZEpumaTMKw6jxlT8xg6YeGK3iomzmRp1WzyGODPIxoyPMD7Hw5w54LZLJg4kFVBEVoMWClMU+RaRTNrXu5kXQCdOB2AGfYYjuUgL/HZmR9QMaeKdbxkWMHeR+UcW1zncnJe4seelwgJouDK+hUfpzfeyNy/vQ9eMUxJa6uYa4PTn6U+Te38zM/D5XamrQUSOcizwjec+Rzmzb6SQr4yaEFXUDZ7PHyuH3vkKublfUX730ULHDMvnRrHxvKL3FQ1npcyDFPWtMDjvFc3zOk9aM7MWJjHM7t+g2MyBI4Nq3fJsTr4IKcUcFNQ+LyZK+GZbZ+TthiAPG5YcQs3RHw3m5tXzB6Z93MUG3kMcXzMPRPWkHUf0M66dzjBLFY2GYIOuI9fvBD+vO2j42C7kb+rN/hygr6jP8RxLqfMLKbYjOajJ/noE0wO8Pv4RY3mh9qdjpZU/wfNIb8xteCFTS/ofosXMvMP/enIV5B3Nbf/UzhkuvCfvsW8vAsc2WfcNWEck+9MocKXxnGci8z7buYO+p2f+QFdCENI+zG/K5oahnpS5jF+vWIWfPKX2IKr6iLzbOA/FS/M/DF+vXc/e/aagybSIbWw6hnzZpPn/3hEzT0zFmm+lKVlmb7jkseCW67ThGtS4aOby1YsYsHEDJszo5v9Yo7txJksXXELd2bkQxniw3eN/hjt770TQ5rgefNd3jAJn/yyRZpvalGWQsKDJs0RfiZGMxaY4J7koeXH+UXTD3h4734eBoIO6ZBmU/897ujbxqsbf8CevT/QD2a2GjaHREN0uO+2B5Zyov4/eVg3zwHR4dxRE2nY1xOu7yV+7IFfNP0gyg8UbfLTfF3xKPyna3BfZ8jDkxc0oRmi1547zzOffMP3avIM5jWTtvPcedrnTaCyZgLzaiLbGPpoiN/+m1HYXMGHn8Cd5RepI8MteOq/x+7r9rMyNJYBOp79A1M23pXszCT1hIkK144w02nf3xFHA6tb/jW2wJU0xlXQdNOfzRatFadKSppN0EQ3XD9G9Nv09gW3cOcCYq7Yvzg7BPY88mbOZkZX+tqLFoWmtRulKfjNfpkhAufAfm0es+YV8GEGPpsZi27hhoitAoYML8Ga+GKIc0AeBcwpy+MTi01pg+oQkAf2DM2BITNmkATXdpki+YDGOJoguxhlgtOOE+OdoW/Y8fx57J252zcNgu9u+aMWHcFtkJK+BxSL+y6w7/aL/L8XkuyEEMuPlQYzFt3CDXmJzTXa7gVDOTBh6QJrpLZ70bfSGTpxkP0j4FsJbp8zMrsLBLc/yqUp8tJGdkIY40ybFDubqXb8ImfeMH9zBevfuhJb+Xma/2Ek3pWJzcwpsY122vFEYfVx0Pe3C3RemWQbnvv4xWLtRdvM/FiphFUHgw8sDF2Og+ZoH6mwb/09KKx8b8eIvn3OuY/pGokIsqLZzLrW4hD0yxzRgMY8+mamZpP/0HmaH/rKFMJtIOe7YcfZaDTDHSpS2Q07ZK4dxi4Yo5aQuWeI423Whxlbv5FnJCFTXZQZ0ArCZk/Zx81aRAAJgiAIOUFMcIIgCEJOuAReRBWGy4Rrc+cLGi5nz43RXb0FQRABJMBC59gVQH/sFAEkCGOVrPqABEEQBCFVxAckCIIg5AQRQIIgCEJOEAEkCIIg5AQRQIIgCEJOEAEkCIIg5AQRQIIgCEJO+P8aUPiQMh2OAAAAAABJRU5ErkJggg==&quot;&gt;&lt;br&gt;&lt;/div&gt;" style="text;html=1;strokeColor=default;fillColor=none;align=center;verticalAlign=middle;whiteSpace=wrap;rounded=0;" vertex="1" parent="1">
                    <mxGeometry x="920" y="820" width="280" height="120" as="geometry"/>
                </mxCell>
                <mxCell id="47" style="edgeStyle=none;html=1;entryX=0.5;entryY=0;entryDx=0;entryDy=0;strokeColor=#FFFFFF;fontColor=#CC0066;" edge="1" parent="1" source="43" target="45">
                    <mxGeometry relative="1" as="geometry"/>
                </mxCell>
                <mxCell id="48" style="edgeStyle=none;html=1;exitX=0.75;exitY=1;exitDx=0;exitDy=0;entryX=0.5;entryY=0;entryDx=0;entryDy=0;strokeColor=#FFFFFF;fontColor=#CC0066;" edge="1" parent="1" source="43" target="46">
                    <mxGeometry relative="1" as="geometry"/>
                </mxCell>
                <mxCell id="43" value="&lt;span style=&quot;font-size: 16px;&quot;&gt;Destructuring (bóc tách dữ liệu)&lt;br&gt;(Array - Object)&lt;br&gt;&lt;/span&gt;" style="text;html=1;strokeColor=default;fillColor=none;align=center;verticalAlign=middle;whiteSpace=wrap;rounded=0;" vertex="1" parent="1">
                    <mxGeometry x="1380" y="140" width="180" height="60" as="geometry"/>
                </mxCell>
                <mxCell id="50" style="edgeStyle=none;html=1;exitX=0.5;exitY=1;exitDx=0;exitDy=0;entryX=0.34;entryY=0;entryDx=0;entryDy=0;entryPerimeter=0;strokeColor=#FFFFFF;fontColor=#CC0066;" edge="1" parent="1" source="45" target="49">
                    <mxGeometry relative="1" as="geometry"/>
                </mxCell>
                <mxCell id="45" value="&lt;span style=&quot;font-size: 16px;&quot;&gt;Array&lt;br&gt;&lt;/span&gt;" style="text;html=1;strokeColor=default;fillColor=none;align=center;verticalAlign=middle;whiteSpace=wrap;rounded=0;" vertex="1" parent="1">
                    <mxGeometry x="1340" y="290" width="49" height="40" as="geometry"/>
                </mxCell>
                <mxCell id="52" style="edgeStyle=none;html=1;entryX=0.25;entryY=0;entryDx=0;entryDy=0;strokeColor=#FFFFFF;fontColor=#CC0066;" edge="1" parent="1" source="46" target="51">
                    <mxGeometry relative="1" as="geometry"/>
                </mxCell>
                <mxCell id="46" value="&lt;span style=&quot;font-size: 16px;&quot;&gt;Object&lt;br&gt;&lt;/span&gt;" style="text;html=1;strokeColor=default;fillColor=none;align=center;verticalAlign=middle;whiteSpace=wrap;rounded=0;" vertex="1" parent="1">
                    <mxGeometry x="1530" y="290" width="59" height="40" as="geometry"/>
                </mxCell>
                <mxCell id="49" value="&lt;img alt=&quot;&quot; src=&quot;data:image/png;base64,iVBORw0KGgoAAAANSUhEUgAAAVoAAABqCAYAAAD9XJlvAAAW7klEQVR4nO3df3AT55nA8S8QCHe21DQWBWO31DYY0xzgUuS44zhgemUKM9golCkzdd0EcBL+6QTbzE3DpJhm0vwRhzD9hwYnJHHdmXQ4IgwzcJcfOInKlEiUyqEpxoB8tDaGQ4acJC4cKXB/7Epa/bAsyVpJNs9nxjNo/Wp3LYlH7z7vu+8zaX5Z8V2EEELoZnKmT0AIISY6CbRCCKEzCbRCCKEzCbRCCKEzCbRCCKEzCbRCCKEzCbRCCKEzCbRCCKEzCbRCCKEzCbRCCKEzCbRCCKEzCbRCCKEzCbRCCKEzCbRCCKEzCbRCCKEzCbRCCKEzCbRCCKEzCbRCCKEzCbRCCKGz+zJ9AiJTJnPIej8lgcf/4IDlS36hadHy6x+xuggudv2eJ6jiWF0h9B9nxc8G0n+6ABTyxuEq5jDAkTXHQXt+r2XolOK1bAp/fGYaRv9jzy1e+ult3szkOYm0maA92npKfnuS6u31mT6RrHfh8Bc8ZPmCh8KCLMDFqx7Aw7ULwIXr+MJ+v/65VRz73bdYH2374SpaUn62Hq55AM91LgbOT38lS07y4oY+Xlz+wggNjii/D/wcoSa8zUe3+a5Fea1fctzW+5RFlpmgPdoivmKEG5c7M30iE44vTcEtfuoXgR4e7GD7ykroO8HfqOQb0dqUHOFF89foebeUt68pm2qW97FywxF4ezXdOp2aGF8mZo920yJm4uV/9PoPeC/q9jCc6XMIs39Iz6D/AltWfosL75bywqm/j9iq5utz4fJ/BoIsQPffzwNfY+aDOp6eGFdS0KN9jiVddcwMPO7nVN16rmibbNrPqtqi4GOPA9tPtgQuRWfuPskSujh6cDbVW83kqtuvHFrKqde1O6qn5LfPUGokyr4if1e69SSlW6Mfc3QNtNuaqDBoD7WL6saOYIt2G81lZ3i5ehCL00JxtHY736GnDqzlBynQ7q/fymLLzrjPJhP2P3+U/YFHAzyx5vdJ7MXIy79bxbeHQ3O7Lb/+EavzTrPnx3+F51axpQL+vOsozdouYM23ONS0kOFADtZD84815/DacVbolpvdzp63t8fX1PB1SgD/93rJV74G/DdXrsV4zoj8nzsv9rZqGuWibEIYU482d3s3q7rq4NBSjtapP4egVJMbnbn7JKtqTfS94m/TxRWjmerdz6kt6snNAx+LqN5axiW13al+mLl8TyDoKgH9GUqHu4LHqlvK0UDw7OTCT4LPxePAFrVdfFqtjfBqOYvL1Z8uF0ZzE9bw2GiooNlpgS5tu0baQ9LDxVicTZT17lLatNnxFFki93WP2v/8aS5iZN4jxpDt6x+ZQ67nNEeyeKCr+9MT+HIq2ezPy5YcYXOpEV/fAUkbiIDke7TL9/DtCkNkr/P19dj8/960nyVFXvpeqeHCh/6Nz9NnX8HMikXMBK6o+dRcoymk3Y2rXsjTHm82OcCV08+PcmJq4O49nlBgDddqqQ7dsKMHV10xptkNQIfmF2E9j3NuPBRjmhf6dFdXOZYd6oPOQdwtRNlXDHce5k9fzI7+uyl/5ZXpZ8lI58e4kC2HF7Il4heJXNYP8Fk/rK5YSAvHaQOgkNUVRnz2AU2vOgtda+CFtzexYc2/sXJDHyvxhORrE9dBY3WcnwkxbiQdaGeuNZPrcfDn12O0WVgE/V2aIBtD/zFNu3pmlhlg+FIwWH54nEubzJTWnmRVbXjw1krRQFj9XmwtFRjDNkeGj6sMag/V+STVEYf24j6nfbwTS3mC3dnJn/CdnMSekhYe5fJfGwzXq6mARLRZT/No00Ie2gy8Bmyeo0zjej7bBt/CqANmuZf38/PD2ylZcpLNK/tYfHk/P/8wztSDmPCSTB0ovcaQQBjhOQqKwHe1P+I3OTMM0P+pksdVB676Dmp7qkqwDH2uPzWwmz6PgdKtJ1nVtV+TG1alYiDMH2T7rcHUQbkV1xh2KUbRPcA5D8xZVAhAy6JCfPbTau82W21iQ5UaZNWgeuHUUn7uOA+z1rOlZJSni3tG+qd3Ld9DaRFcOaQE1txZJsCNT9s7VdME0XulnVz4SScX1EG4gk1wRdOrjrq/RM0zYcSL/UAWJVGzNXWQMh6auwc4VjeHFuChogE+/lmW92Yp5qs54BsM+wq+7sbH3MyckshKSfZoO7nS64WiFZQsD27N3b5f8/h5Bvsht0IzI2H5HmVWQX9XIK+bM8MAHjc3tLsvMZFLP4Mx0hIj9Vx9l92AidzlUZ8Vn3NuPBg0edYdWDWzCjJi8id8J8ca/Serg6yHoWEgzxi4scF/x1mE1y5ykUJWH65iTv/FsfVm6/diczrpcb5D61j2E9N2ei9DbukWNmimctUsqiSX8/QmdVXVQLvNSY/TKYOlE0jSPVrfCzWc2n2SJZopVD77bmyanuSVZ3bT99tnWNJ1Mrjt0FJsgQAafeBq5sIi8DiCwTd8ehigTCOrCZ1GBvD6ek4tDD2vyGlio+h8kvZlNprrnPTUKZtcXbuwr2iiLIHdCEXbz47z0OGqwKCZz36UPVer2BLxYg5wxO5RpnpZx3ibrzrgaKSY77U30NqY+ABTzfI+Vs7SbJi1nhc3rAc89Ly7lLevQfeHpbC8j5Ur+1gcaHied5O+WaGDQXcTGKB40Q5Aou1EMGl+WfHdTJ+EyARlrQMOf0HtvkyfS9D651axpexixABbMhrabTSbDaEzPrLA489OY9v82yOvdaAdI8jyudYiPhPzzjAxPm2uUnqzr409yMIOLGYDeO1YsyjIxqN1XUX2jRGIMZmgax2IeJWs+Sc+WwPRVu9Kl2DO1hN5d1gSWq1OLEVk1913Eat3RS4s4++Bgwtr+WM65pZFuknqQAghdCY9WhEh958zfQYTh+9/M30GIhtIoBURlj40JdOnMGF8KGvPCiR1IIQQupNZB0IIoTMJtEIIoTMJtEIIoTMZDIvh8Wensc0cHBjyOG7y3V/5U9rqSvjuLJqreQ+I/Z4IkZ0maKBVytrM7t2N7YUxLreie1no0RaskcnrWm/+6pb6Xkxi31vTWZDh8xEiHhM00I6nKrihi4C3Wp1YkF6yEBPJxMzRShVcIUQWkSq4Y+Rx92vuUQe8dl6ufjK0EtjOd+ip0yQHorWJU+A+flXoylRK3risdxftNAbPSdf0Q2TqI3K1rJHSI2H11sJfp2xaqyCW8POOeL2Vv5+ucqyzbSO8L8H3rvrSWs3+olfD9X/mwiszi+wkVXDHyGhuotn0frDcjaGCZs1yUQ3tNnrqZmBv85fE2YWdCpoTXpBaWRDagqa8TpsdU13kAtER50QxFl2WsGqg3baYnvJgteCXHV6K62yaKsBqkNWUBXrZ4SU8gCivE1jLNa+TyUJPti+9Vb8X26IeTcmjXdi9xVhse2kIa1pc51TK02vbhf19RnNTyOtg7TdQ8VTkvsT4knygjVUF1z8ANWIVXC8ULVJ7wWoV3CITl8Kr4IYcL71VcOMW0uvaSU8/YCpQ/2MoS/V5HO2aHkkHja/a8VDM4kQ6azvXUmFwYdX28Dqf5IN+/wLR8Z5TKnXQWB3aU+746ExodYr6AkyA69OdI7dRXydXl3ZfHTQec0HR4tT3xO88zJ9uWKL/3JxP/eh7COp8kuqQXncHtl4vGEyRPfh+K4sDVzIdDLqJfF+8dl7W9IZd7uj76misZnF5ufRmxwmpgqun+gJMeOn9KOw/Q+cf6H2qgrIEyo03zJ4BGLA4nVjCf+lV/rNm5L9cxGWzwu3/h1rpQFstoGHZAoy4+MD//aAGY6OmokWQl4J6SGmtnhRXFA5P5yiuRrTzuEMLlbZayiO/RNyDIe9jR2N1Zt5XkVJJBtoEquDaR6qCe2z0Kri94VVwO7ngz8VuPUnp1mj5YHV/E3IgLMumeqlBNiRPqFYHCOrH7YXiIgs9Tv9XhBd7W+TfkW2VEOKhBNnINEizObPnJbKLVMHVU+cg7pYKypY1QKemX1L/CGUGcF+Kv6/ScekqzcxIfe9uDJRetosPYl2++lMesb4g1F6vKYEe/pikrKJwAwUmoP/9iMEqIbSkCq6ulPyo0dyoGRxqoP2pCoyJlljZcRC710BFS+qquja02+hxOpMecOq4dBX8wR+Cta4iWmraRLUTq8OL0dyUnsqvKasoHJlnDZmBoqOxvncivaQKrs5aLeW42m00tzjpaVE3JjVtqYPGami3NUXkaZO95FZ6yQYo+lfa63cm3ivb8RjWRU4sgb/Ni73NiqnFEqNNkDbl0KH8cSGVh4Gsn+LVarGy2Gmh2emkGZTBrC4TzRG55tQKvnfKYGHWpJNEVLIebQyjVisd99T1Gka7tB/LEdptNJuvRuzfn8eMNkc0PuotuGfv1bUO9H/vROpMzDvDRHx2rqXCAB7HQd3+oxabol9GK9uvMii5zeSk4b0TqTNB1zpIIeM0tllhGxNppajgnVp6j/S3WnZRECXdocwXTfzuuIjVu1JxkuOJJg8+Hmdp3KskdSCEEDqT1IEQQuhMUgdJkpLc6SVlu8V4JoE2SVKSO72kbLcYzyRHK4QQOpMcrRBC6EwCrRBC6EwCrRBC6OweDLQ7sDqdyoIcTic9CVc6SFCLkdb3CoI/r0/T82iRNk7lM+tUfqnZ1Gp10hOlAoDQ0capfPbWFB7P0OHzzDU8sbaUvJiNSvlhfQ2VMRuJZNyDsw6CVWfTsm5om4fWNg8whXUHZ7FQ58OFWDaFP665jwuHv+AXKd+5lElPyL5/8Mmy6Wx76xakfe2MfMzzDQyd6GM4RqvS8jIMQw5OxGoULq+UH64qYOBod+jz8kr54aoyfCcO8R/nkzztmAxUrq1hQS4MjXCMPHMNtfM1t4D7ejl0MPZroJd7MNDeKyZz6Jlp4LhJ7T499i9l0hNzl40//T8OWe/nqWdv8mY6b+WeW0g+QxyPGfDyKc6HoRND6TqrpCkBFM6cHYL5+THa+Dje2U0f4A/MtWvJSLC9B1MH94ZfvnI/JZ5bvDoh1maYKO5Qe/gfGM1T2bcsXcc0UPkv+XjP9qoBJ7o8cxn5vl4cuvQ+U2iumdqCQQ51dnPi+kiNDMwrMIT9zV7ODXoh9yux0yc6GXOPNrReUrTSyOGXmGFt6vdia1lAb1s7PNVEhb+nH2Ud0shFlaMcL22lvVNtGpvfm0Fh4PFNTv9mmAMHYrUZqe1kyr8JFw7HuER1D9IR8lpFu9Qf5b1LQPaVSfcvMxjcEq10d/R6YEQt3xNY8DzWZ05NITy8djJ8dCfGeSX/WofIy6cw18uAyxujkRqYBod06+mVfq+WKkPopXuw1+mgj3x+UG8mf8jBGx8Mjfzc8w7eiPPLwGDMBYJ/d57RAL7BjKQOxtCjVctfF7k0JaLbYZ1mkKV+LzanBZNjl6bUNFS0hJfINlDR0oTpmLqfLhcUWULb7HxHXb+0XFPaOfSDmInS3imxLoeW92bwgPMyrd8fpPX7g7zlhIVPF7A5sFi2GmT/dlXT5iZRA/LGKZRwG3esumlFFnpWuENLX9uSee9Gk41l0qHV2givaj5LXa6ICg9KkNV8vtvseAgLsjvfoadlAb2az6XVXUHziIONd/n47G14cFJaBsZKy8sw+AY5Fyu6zC1jwajBWG9DOM56Ib+Q0pDtakrjL4lc7ns58ZchyDcHBgDzzDVUJbyf1Ek60Da0N6rfumEloi3Bb/LWdUrJlnZNL6GjsR27N7JEdkgPZ0cPLvw1pNTjzZ5B7PVLM1TaOwUeXf0AuTc+58C24G2m/ds+5/QNKFygzlJYN5UHgIEzt4JtTtzEx3S+GtbjenzWJPDc5uOPYhw0pNcVWSI7kfcupqwskw6tlrDeYsRnzl8PrCf4+e78A71eMJqKAm3aVxSHfeag9YAdj2EB1SOU73nz8l0wTuHRqOmDDhqrIzsRyYkvSJXOyYeh3sQGwUIYWLCqlifqNT+ryki0oM+waxAv+SzSXLXmmcvIZwhXoimN8w7e6HQwlFtGbX2t2nPWa2BudEmnDopNBvDasY34YVA+qJ7eP4RdQnVg622koiyxEtkdje9jcVrUdU2jXFaN29LeU5iRB75zNwmtF3ybU+dusnDeVIq4Rf+BL/n8aX/gVYJtUeV0cvFibwvdY/GMKcBY1gZI3XuXtWXSR6hvFlzftoNBd1NoqRi1qKbrmP/LoAiTQemJ9zibIg5hmqfTucfJH6RiDoLllbJozINgXs6MMOsgIcN9fDpURlVBPnkOL8OBXOvJmPnlqOaaeaIyH+/Zbt5weJX0Q30ti8528++O9Pfcx9GsA/8ot5rDUmtQ6Zc3zbbpSbe5fgMKvzGD1vf8225y+jcePg5r6bp6Gx5M8+nFlGWvpT/IhvSglXy0SdPM5fZCUXHIl4THsSvi8xYttzu6uwzEuuIYs/iCVF5xAQZfL91ZMgjWd3GIqsoC5uX1MUw+hblDfJpwYMznB2qQ9QfVvg8OMWyuoXb+Uipd3WPovScn6dSByx16qRlJqRBqLHsk7NKvgeoygzIYk9SR/ZdWu0IvYzsHcWNQSntrJVnae/TKralym6vDkDtvOqEZgCksmTcdhr9UerotOSzM8XJMzc8qP+GDZYrYl6bxSN17l97XMk7zTBjxYj8QK5+kpKJcXdoxgfKwgNqPOySVEB8ltXMHV1InH6csGQRL2PlezvgMFBYbyCsugFFmS0SVZyAX8F0P/duHr/uit0+DpANtR+P7ymBFSNK/gXZr8HHrpy4wVNDYrmnhz+3G/JDHQ7ls87j9F9yZK+3danWOqfTzx2e8kPMA614KLr1Y9NIDLMy5yekjtzQtpzJjXRw73HebC0xhQdWkpM4HUvjeZWGZdM658WDQXNqPfPOFdpwgUgeNx5SBW1t7vJnkSTw6fwpcuzvCjBBl8LDHObaBV+Xmg1HyrnPLWJBUjzFxw57QqVURNxMEKNOwDPOVubJJDdANDzHgg/xKs2ZgTZnmxmgDgzoZQ+pgJ5byftptTcFSy2ruNPCdv+MxFp/bi61Fm8NK7jIy2jSb8Eu2uEp7R+TmgvnD4P4SKe2tDpqMoOilPH5aPj24Icd/6a+ZLdDmobX/Ni1Pz9KkBbwc+74mLdDm4diCAlY8XcDCp0OP4XNepm2bNid7B+d/wTrzffySL5O7Kyxl710WlknvfJL2ZaGlzV1du7CvaCKYVdyJpWsxPXVR8q/agcQdj7GYdyLbjTTFa+N9PGy8zSf7ok3tgkBu2OC/Wksm2sZ384EyCOZIvMeYhGHHSc4U1FBVX0sVwJCDN04U8kRltLa9DM03kx/1i0KdBqbdUlmr7Cdw55eXEwe7Ya3meJDRO8NkPdpxQgnYX4YG38B2osy5ncwh6/3MmDAFJbXSUGpb/UJ2h38ZqNtJKi8b53sSNYccv9D5qSM10vsW2bFQgilZeW7JkTvDxomvPzg9xvYvuRqRq/XfhTSdPz6bfAohK6Wj1PY8U8SMBO32RHL+iknseyu+u/Va11XEkUMeSbS7oiL5B8Gy704wA5VrlRsXJkqQBenRjiPqojQ5YZtvfM5ba2+ETQ3T2DiVz9bAAUuSKYSskr4y6RDtTkRI+u64jVP5bNkdXoqxoEzweFk2SyMd1B62AZS0wgfZv+ZCIiTQCiGEziR1IIQQOhtHNyyIsZIS6eknZdIFSKC9p0iJ9PSTMukCJEcrhBC6kxytEELoTAKtEELoTAKtEELoTAKtEELoTAKtEELoTAKtEELoTAKtEELoTAKtEELoTAKtEELoTAKtEELoTAKtEELoTAKtEELoTAKtEELoTAKtEELoTAKtEELoTAKtEELoTAKtEELoTAKtEELoTAKtEELoTAKtEELoTAKtEELo7P8BMHVYcmQkCUkAAAAASUVORK5CYII=&quot;&gt;&lt;span style=&quot;font-size: 16px;&quot;&gt;&lt;br&gt;&lt;/span&gt;" style="text;html=1;strokeColor=default;fillColor=none;align=center;verticalAlign=middle;whiteSpace=wrap;rounded=0;" vertex="1" parent="1">
                    <mxGeometry x="1280" y="440" width="250" height="90" as="geometry"/>
                </mxCell>
                <mxCell id="51" value="&lt;img alt=&quot;&quot; src=&quot;data:image/png;base64,iVBORw0KGgoAAAANSUhEUgAAAX8AAADICAYAAAAA/OEeAAAgAElEQVR4nO3df3BU9b3/8SdgqYTdtZJFKCCQpCA/RrOlJMXRaLQqCl+JC4qdNsYWhaJ35o6E6My3rQ2pbe+Mhsh05hZLFK9pbudbFNZg/YlFMDrVQOmmlh/VkhB+KWWD190YvEjg+8f+Ovsjm91kkw05r8dMZrK7nz3ns+fsvj+f8/58zjnDrpiRex4RETGV4ZmugIiIDDwFfxERE1LwFxExIQV/ERETUvAXETEhBX8RERNS8BcRMSEFfxERE1LwFxExIQV/ERETuijTFZDeKKO2sZxCa/Cxj6bqIpbXZ7JOqfv5k6NYMhXgLJudX/KzTFdIxERM0PMvJe93uyn6SWmmK5JGdSwvcpDvcJDf0JLpyvTKD348kiVTz7LZeZrZCvwiA84EwT+HS2zw+ScXWLd4SBvGdVeMwLvrrIK+SIYM/eB/31WMw8dnBzNdERGRwSPNOf9HmdNQwrjQ41b2lNzFCWOR+57ntkU54cfeXTTe8wAdgYfj1u1mDg28+uIEilYVYAk8f2LrXPY8Y1xQKXm/e4jpNuIsK/a16at2M31V/HUmVLqBxoqZHKiuhR8Z8uytLvKdVZFlq7bQXJIbfpxMGV8Ta4tWUBfxOrgczeS7nQRLenfVULS8jlStcblxGjZ3S4MDZ2XKixGRISZtPX/LT97itoYS2DqXV0sCf1thuiHXPm7dbm5bZOfDJ4NlGjhhK6Bo3aOBEqVYsqGDqyhaNYPjgXJ7WmFc8fpQQ+BvZB5ientDeF0lc3k1FNDrOXhP+L14d9EYt1yyrBRWlDPjQI0/z17dhDfHSWNtWahEWW1jIGgHcvGOGprsTppdlVFlxtJUbShDIavdW1gTsb5cnG4nNITz+raCclxR7UhiZdQ2unHiCqzLX297iTvF5YjIUJSe4F+8nm8WWmN758/cReMvA7n2+55nTo6PD5+8gYM7ggUe48MmH+RcFTha8OfnLTl2jhvKfX7SF7W+CYwGTnzwWA8VCzQmB95NMdjHiuh516/gT61gm3Et/vBfibPASkvDYkMQr2P59hbIyQ885y/j3VVrmJVTx/LfNuEll/yogBzRQ698kSYf5F6VQpe96g4KrS24jEcegXqntBysPPWFk798Hv/vhXMpLCro+uHMtHWx/13dR0gkU9KS9hl3RwEW7y7++kyCMlfmQGuDIfAn0LrdUK6UcTOs0H48HMB3vMvx+wqYvmg3ty2KblCM0jfY6zkemXJp8fggx+5Py5ROxA7YStw0l0S/08fEUoCJ2PFxYGdU6qb+HQ78qJAZE8oglPzx4fnIWKiOY55ysE/EWCqRsgljAStOtxtnTJWSXw74WHmxK6mSPbp+BH9+aCQ27xmecJ7hv9KzVBHphTQEf3/vOiI4x3iUiTnQ0dQa88rosVZo3e4fFwgMzn74orFH7w/gHQeM763n4D31HAzm9lftZvqqeOMLgeX112Cvz4NxomXCfHo6Zpp6jiUZsINacDkWR6WUMmhnF1fvPO1vBFyjWPzSaRZtzHSlRMwps7N9itczPSecvrGMtwMeOoy9+ECKJ37vPZjbb+AEOUy8L/LVuMtLk1y7NRyM64/hAewTyrp/Q/0xPFiZcX1UmdJrmWGNPbKIVMZEO3g9sY1nd+qOnwTGBo46+qIf0j47z7HfC2PHD+tr5USkl9IQ/Os5ccAHOTeSVxx+1vKT5w2PH+NYK1gKDTOBitf7Z/O0NoTGCUaPtYLXw+fGxefZsdDKsQQppe6mc3Z84gHsWIrjvqvXymobceb4aNoczKdX4drl62FQtormVrAVLKc2FJDLqP1RITZfE64Eafg1rnIKrS38KZXZPpUv0uSzUlgRPZicKn/a51uj4//dOfQnC4sMScOumJGbllG3cet2M8cwpbCjaV14sBeINzUzcoDY//qEA5HvG7duN3OyDVMzo6eKAnGnlHZTr9gpoz0o3UBjRSG2iCfjp1PKahtZXWCNfDJqumdMmejpoNFTQSF2OiiVuAzTQLtfX/RlIAK1z/h0z2FsfO5iZv7jC67+lQZ9RTIhbcF/yAoEf89ABcyqLYHpoBfetXqSp+Avkmk6aJcMOM/RU2AruIifZ7oqIial4C8Z8bNVX/C+9yKWuEax1/UVNQIiA0xpHxERE1LPX0TEhPp8kpclKx3VkKGuozPTNRARoz4H/7mzR6SjHjLE7djVlekqiIhBn4P/6NEjcP/jPB2dg2fo4LPPzma6CiIig5py/iIiJqTgLyJiQgr+IiImNPSDf9UWmt1umhs3kOCam2GlG2h0625XIjK0Df3gPxjlvcJ/fPdD/uP2OvIyXRcRMaU038B9EKpcTP6guWH5L3ngu3cx+ZP3aP78G+RnujoiYlrq+Q+Y+/ju7XfBrun83x07M10ZETG5odvzj74ufvR180PiX/Pe0205Xy8vt/wM/++lVG4kICLSf4Zuz79yMfkOB/mOGpp83RbC5S6n0OMKlHWQX92EdyDrKSKSAUO355+EstqbyKUFV9wjgmh1LC9K7fbpIiKD1dDt+Sch126F1uY+3uNWROTCY+rgLyJiVgr+9omRJ39Ns0fdrF1EZOgxdfBf87cWsBYSSvlHzxCKUEZto5tmdyO1pQNQucCZxs3uLUpLiUjaDdkB37LaRlYXGOZvWp00u52AYapm5WLWTmhkdYmb5hLA18RaRzNOt7Nf6pQ3Zzf3TzceV8zj/u9+CMDhXdNZf9DwUv0xPBVgI5fv1JaxZrkGm0Ukffp8D9+FxSN1Pf9+EmzAWhocOAfNWcoiMhSYOu0zuFXiLLCCrwmXAr+IpNmQTftcyNa43DhzSHBWsohI3yj4D0JrnA4N8opIv1LaR0TEhBT8RURMSMFfRMSEFPxFRExIwV9ExIQU/EVETEjBP1rgmjquhNPrK3G53TTWliUqNIRM4tmX7mb7S9dQAVT8+m62v3Q3z96f6Xqlx12P3sb2l+5m66M2uGEWW1+6m+3/PYu7Ml0xkX6kef6SBC+nvDCFT2kDOOmFHOM1iibx7EvXMKXb9x/lldvfpfqGWWwtvxJL1KttDX/gh08HHtwwi63lU/io5lVWv2UoFHhvu7Es/oZoQU74cUfTqyx6zGt4zctfjcsK1sH7Aeu/v4/ngec/9vIANto/9sJbXtrLiamjyFCj4C+95OVU6EJ0R/nh7X8IvVLx67tZwLvc+O9H474zItjffw3bS+5m69fDQTs5gQbH+wHrb/cHcfD34p+9/1VDA2Fj2rU2eMu/7LuunZJcYG/3hpYpMhQp7SMpe/7jNN7l+Ol3eaUVLDMmpZRmqfj1NUzhKK98f19EkH7+sWDgt/H1bGhr+gBCy7Yxb4aXVxriN0p+/qMckaFuaPf8Y67P34LLsTjq0gll1DaWU2iNfKsnalGh6+0YGGNEWW0jq2fsZ23RMZxuJ8G1enfVUGS8HHPpBhorCsM3jPE1sbZoBZEXbK7EZVgGEOc6P8mUMdStwBpbl6R5Wf39cM+ep9/lxqe7L52qtpNeyLk0Qdoo2iRm50BH0wdU91T046N8NOMa5t2wj+fzruSb7W2sZgoLbIb1RXyeqM8qMkQN3Z5/6QYar2om3+EI/NXQ5MvF2bjBcOeuSlzucgo9rnC56iYiO37+m7g47U2sDS3LRUu8dVoLWe12QkOgXEMLtoLl4Zu/VG2huWImB6odofW5PIWsjqhTGbWNTnJbDXVyOKKCejJlLhxTxtrAGxhPSMYNNrLBn6PvkZf3DsC0a21UXDWJtr8l6vWLmMfQ7fnXr6Co3vhEHY0HllNYYA/1lstqbyKXFlyJgmbVHRRafTRVR/fO4zHcKAbgIw9ecrFPAyij9sZcvLtqwq8DazY38Z2KmRSVQl09QA52K3gPtCZYTzJlwuqWFyVR98y469HbWJADbQ3G9I2Nb5bfzfby2PLtSS/ZxpjA4dXz77Rxz/1XMpuj7H0aGCKzlET6YugGf+KnauBk6L9cuxVa30x4Bc2yCWPBt5/G+gSFDMs+ZiwX0QD5A7atoJxmd2xU8zcQAFW4dt3E6mC5uKmcZMoMXlNK7mZ7SfDRUV65/dWo9E3UDB0IzdLplbf28bbTPwj9w9CTNr5+A/BW928TGcqGbPD3B/7Inrg/953ZeiWTdw/11Ku20FwSuP1k1NhAMmUGq7ao6ZopC0zHzP66DUhudLb63/8QbmAOfkoHtkTFRYa8IZrzL2OiHWh9MyLFEpd9IhGnak2zx4YFqz1yYLV0IvaU69SKxwc2e8yhSPcqF4fGDrD6U0O9KjPkHGVvK1gKr6SiuyI32MiOmI4qIkZDNPjXccxDRGCPuaE7sOZvLWAtJJQxiZkdBHU79+MN3EQdiJ2tk0Kdlm9vgRxnymcGl00YS0xKKYUyZbWNNA+xM5KrXR/QwSQWRJ2J65/n33/rXeNyD7ltKeY0dNM+Thf5bier3W5Wgz8l0mBndYmhUOVi1k5oZHWJm+aSQBlHM063M1ymfgVF07bQXBLM1bfgctQwsbGcGalWqnIx+RiXFWBM18RtXKKmqCZTZqh7ax+L3jrK2v++jQdeupIHAk93NL3KoqeBG3pagI0xeaSc82/x+CDHiq3gDtZQZ57tLUPOsCtm5J7vywIWFo/E/Y/zdHT2aTFp9dlnZzNdBRmyAudXXCDjKyLdGaJpH5H+4Z8eDC3bFfjlwjZk0z4iaRVKtfloqnb0PJFAZJBT8BdJRsxJgyIXNqV9RERMSMFfRMSEFPxFREyoz1M9RUTkwqOev4iICSn4i4iYkIK/iIgJpWee//Uj+PNDI7EB3l1fcPWvNIwgIjKYpafnv7OLq52nmb3uDBRczNZlaVmqiIj0k/SmfXZ2se0Q5F2pbJKIyGCmKC0iYkIZCP6VuNxumt1bdC10EZEMUc9fRMSE0n+G77KvsPf2Yby/7gzLdqZ1ySIikib9dHmH4Wx1fZU8zrLZ+SU/S/8KRESkD9J+Pf8f/HgkDxecZ7PzNIvSvXAREUmLtOf8c8eOgENd6u2LiAxiGZzt00ht6cCvXUREMhL8W/H4AKzMuL5s4FcvIiKZCP51LN/eMvCrFRGRkDQH/+E4poL3ZKIJRGXU3pgLtPCn5XXpXb2IiCQl7Vf15ND/Mrubq3qucblx5gC+JtY6VqDQLyKSGbqNo4iICenyDiIiJqTgLyJiQgr+IiImpOAvImJCCv4iIiak4C8iYkIK/iIiJqTgLyJiQgr+IiImpOAvImJCCv4iIiak4C8iYkIK/iIiJqTgLyJiQgr+IiImpOAvImJCCv4iIiak4C8iYkIK/iIiJqTgLyJiQgr+IiImpOAvImJCCv4iIiak4C8iYkIK/iIiJqTgLyJiQgr+IiImpOAvImJCCv4iIiak4C8iYkIK/in6+ZOj2OsaxV7XV/h5nNfLahtpdrtpdlUmtTx/+S2sSW81+ySpOpVuoNHtxlU1ULXqjWFsfC6wv54bwQ8yXZ1BqxKX2+3/3rrdg+77KP3DBMG/lLzf7aboJ6V9XtIPfjySJVPPstl5mtnOL/lZGmon/ek8y+49zWznF7zPSB5+0gRf916pwulwkO9wsHaXL9OVkQFyUaYr0P9yuMQGn39S38flDOO6K0bg3fVFwqBft7yIuj6uSdLtPMt2nmXv7SP4OefUaItghp7/fVcxDh+fHcx0RUREBo809/wfZU5DCeNCj1vZU3IXJ4xF7nue2xblhB97d9F4zwN0BB6OW7ebOTTw6osTKFpVgCXw/Imtc9nzjHFBpeT97iGm24izrNjXpq/azfRV8deZDmW1jawusBqqUkPR8jjHAKUbaKwoxBbx5Mk01iRxvfA1sbZoReTRSVJ1KqO2sZxCa+SzntB/lbjcTmhw4JpgXGcLLsfiiBzyGpcbp+Er0NLgwBk1RBJTb3w0VRex3HgAV7WF5pLciPfFW9agUrWF5hJwOZrJdzsJ1j7e96VX26nVRb4zPBCzxuXGiYv8v+UbtlWcbZmkZOpkrFe3vwPJuLT1/C0/eYvbGkpg61xeLQn8bYXphlz7uHW7uW2RnQ+fDJZp4IStgKJ1jwZKlGLJhg6uomjVDI4Hyu1phXHF60MNgb+ReYjp7Q3hdZXM5dVQQK/n4D3h9+LdRWPcculTt7yIfIeDfIeLlu4KVW2huaIQT4MjULafc6xVW1hObWhd+Q4XLdZCVhsHo5OqUyUudzmFHld4WdVNeOOsMrfEzeoZ+1nrcJDvqKHJl4sztL4yahsDwciwHHtJ1MBx1RZWF0BTtcNQ96hgVbqBxpJcWhqMZQZ54A/JxRloKPMdDvIbWrAVlBu2QXLbaY3LzeqCk7iM+zfHSXPjBsqMq8txBhocfzlXq5XCilQHdZPcd3LBSE/wL17PNwutsb3zZ+6i8ZeBX+x9zzMnx8eHT97AwR3BAo/xYZMPcq4KHC348/OWHDvHDeU+PxkVjIonMBo48cFjPVQs0JgceLfvwf764cy0dbH/3fO9XEAZtTfmQqtr4AJU5eKoXlcVza2AfWIgOCRXp7Lam8ilBZcziV95q4v80JFFHcc8hvVV3UGhNWo59Sv4UyvkXhWuQNmEscBJjiXqmU6zY8OH56OeqwTAxi4OchE3/3hYkm8wmsALnzv5S9y/m3iqF1+JiB5z5Ys0+QzbIJntVLqB7+RAS4PxqKoKZ0MLWGdSFDG/IfLoa83mJrzkkp9K0E5y3wUFO0Pq9Q9eaUn7jLujAIt3F399JkGZK3OgtcEQ+BNo3W4oV8q4GVZoPx4O4Dve5fh9BUxftJvbFkU3KEZpGOy9fgR/fmgkNu8ZnnCe4b96vaAc7FZo2T6Q3aT4qRpCbWlydcq1W6H1zaR6il5Pa8TjNU5H6H3+oG7F6XbjjH6jz99A1AF1y9/E6XYGynWToqh8kaYbyymscNNckUy65xyLnKcDU3Xh4EunWbQxiQ8EwHHuHO1KtnASohutOo55ysONZDLbaZodGy38KfozVzbTUuLEPs34Hk/k0Wj9MTwVYJ8Q3OI9S3bfyYUjDcHf37uOCM4xHmViDnQ0tca8MnqsFVq3+8cFAoOzH75o7NH7A3jHAeN76zl4Tz0Hg7n9VbuZvire+EJgeX0Z7N3ZxdU7T/sbAdcoFqcUNDIpGPijen0uN057JusVOwYQqwqno4rQZ4gb4OtYXuQPN2tcbpwlbppLEoy1BBrxky+dZvaq2JcHBc8x6iBwVJbMdurj6o6nGq77v04ycDI726d4PdNzwukby3g74KHD2IsPpHji996Duf0GTpDDxPsiX427vN7aeY79Xhg7vjdpgzB/byss1x7dLU8Xf6/eu+vFHn+sSdUplCoKmGaPGiDuWd3xk8BYJiZ9ykUdy4uCYwfx0wvgP7rw57LBNuPayHoG5Q3HxlncvWq405/2iVTGRHv4qCmp7fSRJ37qpiqf3J7SYaUTsaeSMku2TnJBSUPwr+fEAR/k3EhecfhZy0+eNzx+jGOtYCk0zAQqXu+fzdPaEBonGD3WCl4PnxsXn2fHQivHEqSUupvO2fGJB7BjKY77rgHmz7fbCu6I7IXndFM8cAZt78+2bMXjA5s9vILY9SVXpzV/awFrIaF0b5xZNkmpfJEmX28GGwMNmSf2yDHMH0CDvef08qd9vhX3701W9q0/wBqX/wjtT8EjlmS2U/07HPBBbomxTCWuklxofTPBTJ5KXBWF2BKWife21PZdqme6y8AbdsWM3D73WyAwRdMQNDqa1oUHe4F4UzMjB4j9r084EPm+cet2MyfbMDUzeqooEHdKaTf1ip0ymqxhbHzuYmb+4wuu/lXsJus+kBsPlSNz8N5dNRQdvyMwEyP6cNo/dTKXBKmMnkRP4Wx1sdZzk382TmhQNrk6RUwp9DWxtuhYaMaKPxXjr6+9x7rGH4cwpnTibcvobRA7FZSYaY4Rln2FvbfD5kyfmR2v4Yw3/TaJ7QSx2yp6OyWzLeNP9Y1XNrk6RX5OpYoGq7QF/6EvcfDvD8EAN+jnrl8IBlXwH9vrefap8o/xxGtc+lv8MScZPIb+Gb5pc56jp8BWcFHcC7qlXyXOAiv4mtCRc9/9/MqLwHuu+3MwJL2q7qAwyTEnyQwTXNsnfX626gsmPXcxS1wXsYSz/daLDB2qJ0pjSBL8R2vftgGcZbOzqw9TdSUphhSSjlgHN6V9RERMSGkfERETUtonDSxZma6BxNPRmekaiAxeCv5pMHf2iExXQeLYsasr01UQGbT6nPMfN/Zr6aqLiIgAb2zbDsAtN9/Yb+tQzl9ExIQU/EVETEjBX0TEhEwe/B/m6W07eCP09xzl/bm6H43kgd+PDv9VD/BA8dIutm/ooiLeaxXP+beBq4Y7k1nWkhq2bNvB03EXln7lG3uu253Vf+z/fZgOS7vYXtPF0gyt3jZzLguum5z4qqyXTKZ4/lxmXzJQtepOFrOvu44F82dxeaar0h8mzWLB/OsonjnwUwZNPtvnCe6/+QnAHzhW5Pfz6n57hvW/PQMM46ans5jW4xvSaF4XW286S9ubX6V6INcrsTYN56/zzrCyBigfwaYBXbmdmZOzaN97OO5tOIMunzaVrPZ97P2sd2uxzZzLtZOzoH0fr+z29PyGlGUx+7q5TBnV3eudtL23m72fdVMuol52vj1/Fux9m/ePGgv5nx91eDc79hvmDU+axYLZhptinD7EO2/7t2fwc7dHLMu/nGw8fPD6Po70+jOnl8mDv1mc59llZ6F5JD/sLtJU38stahUGyDBWl4/k2Q1nKP234Wz6zz5eEzoVky7zB6GjiQrZmZAN7Xt7EbQvmUzxvKlw+BDtTCW7t/XsUSd7336bvYFHtplzuXbsv0JBOEacYL/gukPdl+/G5XOv48rsTtreezvcMF4ymeK5dnYYGrns8XY4Gng86bJ+3A69Z/K0jzlUPHqGKR0XUT+QQUZ6MIwfvnkRlvyzrJ03UOvMYnaunc7DhxL2Pm0zp5J9+hD7EzYQ8dj59rzLOPne25E95T7pxNsJnO6glwchcXh4f68HRl3G5amktSbN4spsaN+7O/KI6LPDocB/yegsOg8foj37slCa6vLxWbTtPUTcLeLroBM47Rv4MxLT2vMv37iDW0OJuQ7cT/0fHtlsLPEwT29byGS6KbOkhi0rp/PPp+qg9EEclsDzR17mlmVPRKzLn6axGJ6Js76K53hj/hRDkT1scJbzQp8/Gxx+vZj7+62nPILFv784fOMbuvio/gvefCVRme7Knmf25dD2ZjfphehtFGdb+y3lcZdhnwScSurzRIrZd/H2S3S9gJj7hC6pYcvKOURWqd3wv//7xuvFvDbeuM42Xrv5XmoMJZPZv736znWzLCCQ/jnLN28+D+/Fa5iD2zzeb6kXLrEzdlQnJ48nCjRZXD42i86TnpR6xH4e3n89/SmeI7vfTn+qxNdBJ3YsVki2Vbl8vB2SahQ9HG+fyoRJcMQ3mbysf7HHB2PJwnZJ1Po+O8yO1w/36iP0VZp6/kt53LWDWy9v47Wbi7nl5mJuubkOFhoG6JbUsGXbQsY0/ybwejEbmsGxMnrQ0IJj5YOMeTewnNfb4PKFkWUqnmNFPrifKg4t65abI38cd1b/kTfmZxvK/AY3c1iR8oBg4LPxcnhdT+1hzPx+Guxc8BXu/f3FWPd1sv57n7P+e5+zdR9MKx3N4h8FCwUC//EvDGW6iNtILD3HFIZzqrvvV/W94e3T7U2YH+bpbQ/i+DRyG3R/z+YEKp7je9QZ9tvLHLbMYcXGh0NFYvddMa9F//ornuONlXM49Xqx4fsUv0aT5+9gRd6HbAh9zincGlpfkvs3ie8cS2rYMn8Kh183lknUSRjG+weHw6XnBmTw9/JpU8k6/S+OJAp2k6YypccGYgiwWsiikw5fsm/IwpYFdHYm1Sge+cRD9ng7tgmXQa8a0v6XluB/Z3VZoHdi7E1t4pFl4d5c+cI5WDr28PuKcP/zhYo63B0wedbDEcuL6ClV/53DwJjx4Z/HneOzgXY+6bYn9DC35lvoaK4z/Dg38Uj9HjqYwqxUgnbFQhyWNl4z9oY3l/POkdh6p8O3bhxJVucZ3vxF+MTrY7/4Xz7qhHHTArODFgzHCpz4KHz5gmN7uuhkBLaoKRFLx56DjuG8/17v63Rn9fVMJmob9Fb1vSyuMB6DPMG+I8ClXw90FOLtu2hLefyaKXDk5eSOvo68zC2hI4tNfPKpYX1J7t+ev3NATjYWOjiV6G6TUTadHA6Wc3w7bupnE4844zQyvRLI47f0MNA73g7th3o90HtBuGQyxbNjP2f27OtYMN/4NyvFXH2ggQA4+i/asy9j5mgGbUOalrTP5DEW6NhDU4If6/hLoePge1Epl000HSzDkef/ISabjnmhYie3blvIrdt2cGu8Q+8lX2cMHfzzz1GJjs3v8c/SOXxj/FJIco6F/0dvCawrSkdq9e7ZMC79GnQeOsuxiOfPs/9QF9OmDmciXRx75Ry+0mBj4G8AJs4ZQRZf8vffRi5x8phz9LWNnzzGAkd2RqRJei9++ih0GNHdvoswhTEWOPxuco1Rx6m2iMc1y4pDnyXZ/dvjdw6g+mXc1zyIY+UO3ljZ36nB1NhmTu15oPeSyeT1dqB3sMuexYL54Yfte99mR9S2aO9utk+vVuhh/+GpXDv2X+z/DLgEICulNFN/u0Bn+wSnaAYCSb//2GJzxJl1Dm8njJtwMQ/8PvhcFx/Vn+EvUSUPnxoOlw5w9boVDPyR27N84w5uzWgdk9m/yXznNvGI099olW/cwa3zd/DGfOho/k3U0U604XzchyOzngXy+IcTTzO0TbiMrNOH2JPyQO8FoM9TTgMDz1lZ2CCpNI53/25e2R948Fknp/uw9v6QlrTP4VMdYMk2DORG8x9qW/LmRZ2ks5TCPAt8+nEve8/Bw+LfRKaPNn/MKSx84+qoTOqSeXzDAqc+SX5m9QuftAPZjF/Sqwqm6Dyf/g9kTTVctXAAAASMSURBVL2IiRHPD2Pm1BHwP+f8RwQ/+grTsr6kKZDv9/9FDwj7JU4rpCCUlgnIySa6894zf4+9o/nlHgKthTERNx33HzlGM6YCIXCEkqLU928337koNcvCYxWx3/swf1oO+nXIr98Hes3hyCceGDWVmZO6K5GFZVRmZu70RlqC/wsVOznMFG6NOANzKY9vDD+u2dcGljl8r9qQuw+OFbzc11xyIKiEDu/9eWRLfhmPh37US3m81D/u8FoqRwfVL+PusOBYmdxAcfnGwNnCG3s3HvCXj76ErJHc9NPw7I+JP/0q07K6+Gi78RLFw7l0QRIL3DScNs4x7Vu9v3hrcN/dGhwriTcTJyR41vQfDds+qI1THWAZE35v9CwbNr/HPztg8jXB7068NFFw/y4M7ZOY5SQrxf0bFv2diyfQaHXbuTnPt/POwafDu0lC+gej3+jjmdT+E7Z6yONPmsqUUR4Opm2K5hB09BBtpyF7dtSZz4F5/heaNKV9nuD+m9t43PUgK7btYAUQnAYX+tJX38strTVsWfkgb2x7MPBk79Ip8X7o0YfWNcuKOVz9R1YEDs+B2GmMMVMFw7nf8PI28YgTHnc9GJMXjk0zxe+hBk386cUsmmW4pENWMG1jmKXz2zOsP3Kee0uzDCmdL2n6niGl89szNE0bTWHpaKaVRq6jc18nz/3CGOiHsfcILMg/RwUjYs7ujZm+aFnIG9sWEjGNsfpeNoz/IysCaQw69rDh5r9z67aFcT6lP8BPtlhwLHwYNhsb9k08Uj+PLSuD6wCOvMyG5utZkWco45zC09sWhr5Lh18v9q8/L7ykmmW/Ybxhn3Q0/4Zb9i301y8lye3fZL5zsVNBSTB1Flh6jm9ahvPXTd2df7GJTz59ECzBI4zedJKSO2HLP9Db97NP/SdBGZ4I5dqDZ9z2cQUZ5T+x7MjMuVw77zpCXZjTh3jnbQ/QcwMwypoF8Wf8Dzhdz/8C5G9EzkU2CKHniXNOwHme3XCG7OaRLBqIE70CRwY957rNLMl9EuygJGpEEvBfbqAz8WUFAmflno4Z8JRM0fX8Ja7xX4t/QTj/8+f4NCb3Hzyb9Axb/61PbX0SAtMwaeMdBf5unGdtTXJnXZcvnIOF3qZGgwO9PZzRGxjoTf2MXrmQqed/QQpcGC76QoCdZ9h6/5dR00QNlnax/SZ4ZUVs+icdQmmPPpxJbQpLu9g+D55KcFG3cAppsM00k4EwED1/BX8RkUFmIIL/BTrPX/pq9Kj+Tv9ItM9P68J6Mngo+JvUVdMV/Afan5sV/GXw6HPaR0RELjya7SMiYkIK/iIiJqTgLyJiQgr+IiImpOAvImJCCv4iIiak4C8iYkIK/iIiJqTgLyJiQgr+IiImpOAvImJCCv4iIiak4C8iYkIK/iIiJqTgLyJiQgr+IiImpOAvImJCCv4iIiak4C8iYkIK/iIiJqTgLyJiQgr+IiImpOAvImJCCv4iIiak4C8iYkIK/iIiJqTgLyJiQgr+IiImpOAvImJCCv4iIiak4C8iYkIK/iIiJqTgLyJiQv8fGCXbP0QFoKwAAAAASUVORK5CYII=&quot;&gt;&lt;span style=&quot;font-size: 16px;&quot;&gt;&lt;br&gt;&lt;/span&gt;" style="text;html=1;strokeColor=default;fillColor=none;align=center;verticalAlign=middle;whiteSpace=wrap;rounded=0;" vertex="1" parent="1">
                    <mxGeometry x="1580" y="440" width="250" height="140" as="geometry"/>
                </mxCell>
                <mxCell id="53" value="&lt;span style=&quot;font-size: 16px;&quot;&gt;String Template&lt;br&gt;&lt;/span&gt;" style="text;html=1;strokeColor=default;fillColor=none;align=center;verticalAlign=middle;whiteSpace=wrap;rounded=0;" vertex="1" parent="1">
                    <mxGeometry x="1730" y="140" width="120" height="60" as="geometry"/>
                </mxCell>
                <mxCell id="58" style="edgeStyle=none;html=1;strokeColor=#FFFFFF;fontColor=#CC0066;" edge="1" parent="1" source="55">
                    <mxGeometry relative="1" as="geometry">
                        <mxPoint x="2030" y="320" as="targetPoint"/>
                    </mxGeometry>
                </mxCell>
                <mxCell id="55" value="&lt;span style=&quot;font-size: 16px;&quot;&gt;Object Literal&lt;br&gt;&lt;/span&gt;" style="text;html=1;strokeColor=default;fillColor=none;align=center;verticalAlign=middle;whiteSpace=wrap;rounded=0;" vertex="1" parent="1">
                    <mxGeometry x="1970" y="140" width="120" height="60" as="geometry"/>
                </mxCell>
                <mxCell id="60" value="&lt;span style=&quot;font-size: 16px;&quot;&gt;- Lưu ý: tên biến phải trùng với tên thuộc tính của object&lt;/span&gt;" style="text;html=1;strokeColor=none;fillColor=none;align=left;verticalAlign=middle;whiteSpace=wrap;rounded=0;fontColor=#CC0066;" vertex="1" parent="1">
                    <mxGeometry x="2060" y="260" width="270" height="40" as="geometry"/>
                </mxCell>
                <mxCell id="61" value="" style="shape=image;verticalLabelPosition=bottom;labelBackgroundColor=default;verticalAlign=top;aspect=fixed;imageAspect=0;image=data:image/png,iVBORw0KGgoAAAANSUhEUgAAAokAAADoCAYAAACD4H73AAAgAElEQVR4nO3dX3BT95338TchySaLpXZjMdSY58laCcY0C1bS2KVD3AChM6XPgBFJJhfreEsSk+ZmJ9juzWZS22W6NwXC9IYtbpqu4150CAjDTOlMAyRVmVKZTaTwZDGkSOUZjMMgJ41k2mxSynNxjqQjnSNZtuX/n9eMZ6yjn875StaRv/r9vr/fWbCixnsLmTZff7WSDf87yclvJPhNEdsBeOYO3t98O4n+T/nav8+RP9+jC/ndi3fCqM+pme5gK/WuKAHfNjqnLEAREZH5ZYGSxOm2kMePfIlVi3I23/gT/7n1BrF8D3vmDt7fDIf8n/O9SY5wKnz/lbv5xvXCCWJnIIy/CkiG2NOwg56pC09ERGTeUZIoIiIiIja3T3cAMnFlfz/dEYzfyJ+nOwIRERFxoiRxDnj4gYXTHcK4vdV/c7pDEBEREQcabhYRERERm9umOwARERERmXmUJIqIiIiIjZJEEREREbEpKkksr1vP9q3VlBdsVM0TTetZU7CRiIiIiMwGRcxurqBuhYuhMxcZLtCq2leDa6ifM4Uaicjscn8d29dUZG4P9fPaiSHzhos1W9ezsiznMVltHPYBQJLzx09ZPi8q+GZTHbmt7O0wvpBuqsGVOSCne/u5iPGFdssKl20v6b1dOMUb/cm89+eqfmwLa8l5PlnyxQ1DZ47yqz+MISbH1wkYGeDoEfPz1/bcwfr888WWiiVLeTVPbKrkSu7rKyJiGj1JvH8ZFQxxOvcDJksF3goYOpPvg1REZhsjuRnhdO9RMwExko7tj+UkTdaksLyaJzbV8USdJRn7Qz+vWT8/7q9j+5rczNIwWhKXSriGzhzljfQ+K/jm1mqGj1xkuP8Ur/WnGk9FEjTEr3qPZmKrHMwkdKaxxeSQFBdsYyTqa5vqIDdRvH8ZFSMDnE/WsPLeCviDPp9FZGxGGW52seafKkheGHD4lppRXldDxcgA/QUTSRGZNcqrWb/CxdAZa+IxxK+OD5CsqOOb9+d53PBF3hsCV2VF4fKUCcSUvHAqp1dsiF8dKTzSMXclOfN/h4Ay7sl5wavvrYBkkjOXh6BiGdXTEp+IzGaFk8TyCpaVJbkSLTQ842J5pYvk4NA8/ZAWmXvKvZW4GCKa+8VveIgrI1D2D/mHTwFIJkv+eZCK6b0xDBfPX+bozuUh+MMVhqjAmy+xFxHJo2CSWO2rwTUyyAeFPu3vr2HlqImkiMwm5W4XjHySN9FzuZ2Hi7m/jrWp5GSKY5qfKvjmmgrI/Zw2y4SMJH+I6BBU3OtUOSkikl+BmsRUneEoE1burQBNWBGZJ5J8lPt9sKKO7U2WFrbh4OK5Vqxn+wrrlnyTMuYqFys3bWGldVPuRKCcNskLp3gtp3c19bmcet2GE0lYsYxqhubRaykiE5U3SSyvqxl9wkp5NasLTVhxmq1n+8Bzmh2Y+4/BaRalvcDbaRahrRB+BsY0W+NWTHM9Jicu7nEB1pwk63EVfLNpPdsrB2wTOIox1tnHc89YJq6Y74cVNVT3W98nxhf85IWR9Jbh6CDJFTV474eLY0rg5/Z5MFvjVkyKqZRxF5Ln2s3GjpcNFjHT0GE2n4jMbpmZzbm9eMYHU9mFU7zRj/EBlHRa8qYs/weR4/3W/Tp/5uSPKd+TmPjs5tGXwMmJb7TPw0Ixjfa6OT3eXBIH6+uWbykdcJiJriVwRCQ/555ETVgRmdfy9jzdv4wKkpyPJoFCk1dG+KjEHwypmFbXubg4r3sbLYYv8t5QDWstvYnV91Zkr61oMpJsDTmLSPEcJ64YC2MPFP52eX8NK8s001BkTjKXsqlYU2dZOsWYJJG8cLbAZ4M5kWLoSjoRKa+rs1yJyVhWi9E+XwrE5FqxPmcJHmOdxPl6saeLl4eAClbXuUiVAzh9eR/+eAQ0y1lExsChJ7G4hbFzC6NFZG65eOIoPLaFtU1bWGtuc6wZdJi4Yp1IMdw/wPKtW9ieqospUPton7iSXT9z8cRRLt5fx/Y1W9i+JtXGqMOZtBGNnOcH1tchty6ohi1NNUZUTlc5GZXDxBWHXsEsfxjg/D9VsLKygvIoLCuDkY8dvrz/4QpDayqMWc7phbUdjjfvJguJSD62msSi6n7MOpiRcX0IioiIiMhMlzPcbNYZjnaFFW8lLl1hRURERGTOyjO7WURERETms1Gu3SwiIiIi85GSRBERERGxUZIoIiIiIjZKEkVERETERkmiiIiIiNgoSRQRERERGyWJIiIiImKjJFFEREREbByu3TxfNNMdbKXeldkS7fPh77C06A7SVueCWIBaf9fUhyhZ2n/0FN+qgst9v2A7aznZuAxip9nwr1cUk4iISInNsp7EJu57/SwNLzVNeE+dgVbqCbHH56PW/LEmiFOtMxAmEjxAs8N9zd1BIuEwkUCHfXuex8xFl68ngAQfXQIufcxIzv1PvryJkz//Mk86bT+2lvZpiElERGS2mmU9iVV8wQ03Puyd4H46qK2CaN8Oegq06mlpKHj/1EqS8NTSCXROdygzyMj1xHSHYDMTYxIRERmr2dWT+OxqlpDkk0sT3E9TJZ6SBDSVrjMwsJjHuudLv+EoTiUYnu4Ycs3EmERERMapQE/iyzzU18iS9O0Y7zQ+yTVrk2cPsmlLVeZ2op/g0y+kh9yW7DvLQ/Rx/MhSGnbWUWZuv3b0Yd551bqjJu57/UWq3Tjsy35f9c6zVO90PmYppGsR04fYS0NLTp9i12EijRDwHaHSWttoq1/sIBD247U+Nt0m97562sJh2vIcd/Dt89Q8/wjN9OTt4cyNnWSIPQ1mj2kq5j7wN3qBKAFfhNqwHy9JQrsbaEl30ubWbObeP/UO7jrOwfStK2zf/Itx7MXNnp9v4sHh7LrB9h89xbfKz7H/n/+bg88ZtYWX+37B9p9YH7uM146tpTx0nC27EmOMKfV6Tv/rKCIiUgzHnsSyl06xqa8Rjj7M8Ubz5yhUW2oBl+w7y6YtHi6+kmrTxzV3HQ37XjZbNFFWDiOspmFnDVfNdu/EYMm6/emE0UhGX6R6uC9zrMaHOZ5O/Hq59HTmsST6CTq2G00z3cGwUdvXXo8b8Daat8PZ9YA9LQ1mnWKAaMF9evGHW6kZ2Gu03x0iUeUnkM4Rm+kO+vHGAum6x1qfz5JEduE3twViGAmdpZ0tMe3dwYl4PXnn0HQdpoVuy7ECRF31tGXVMnrxb4izxxcgymIeC24kvnsvoaSL+sdT7ToIWJ+Xz0dt33Xq24N0T7wcdOb7yTneTcC9q5dlb3/uXu7lCr/ZpeFkERGZ++w9iev282C9y97b9+qTBFO/P3uQh6qSXHxlPZfeSm3cxcXQBpbUr2YJcM2sHyxze7La3biehHLr8ZayCLh2btcooZpJ58DpcfYa9tDSYCZdTQcIttcT75v4ZJWsGdG9g8TbwbO0GegBqvC4IDEQm9hBLDrfixJZ3QE4ZIod22jI2tBFJObH66kkFRFA9OQOeujAjwt3PEBLL3Q/n3lUc/dGvMkQe6xJascRQhtaqXm0GXqLrdRcyhs3vkqV431J+v/+Tb6zoMhdFcu9iheOreIF2x1jSewSnBlI8GD9Kvasv0LbKQA3e9YbM5d3jyswy/tPRERkFrAliUu21lGW6OfdV52am21WVUGsz5IgFhA7aWnXxJIaFwxfzSR6b53m6rN1VG85y6YtuYmnVakmrZRSkvgH1ttd+H1dWbcD/Rtpq2slEm4tzVI6HRGi4Y10N3VlkvY0+7I+Zph5Y07E7Qms1+MCV/bQd5rHOeVzdpUnFgXG0L4EEuaQsWXTky9v4oX6se3m4K5zfOvYWpY/4oZTCVi/jOXuBO/+REvbiIjI/JAz3Gz01mUlcTYvU1kFI9ftycWixS6IvWfULZqTTC4esfYQGole9mNTw8n7uJhwUb3zLJv6DlpqIU2lmrQyxdJD131RqPLbhrbHrotAP0aPXpZUghglYBmyDoy3EzNn6Ns+VD7XXeH9GJTVLONJ4MlH7qUsds7sVRQREZn7Sje7ed1+qqsyw8ZlX/IAcUasvYLm0LJzb2AqWezjGlVUPpt9r+P+ZpOObZlk0bWShgnU9vW8fR5qHsmeDJMa2u4/MuElcqLxJLg8Ofsfj6W8ccPPfzn+bOQ/bk34AJNqd+AcI+57WbPezZoaeDegXkQREZk/cpLEXq4NJKFqA/ety2wte+mg5fYuBmNQVm+Z+bxuvzF7OdaXrmNctNgFiTg3rLu/z0MZMQYLDGXn6zEc+TAOeChb5/ioWaN56WLgOoM5ebKRmBWZPPbu4ER8JbVZ6/jEiCfBbRkO7gyE8Y9ldNjU0/ImUbz4J7xQtzHc/BXHn0moRyxKgqFhoNydXnQ7ddUUm1NX+CDh5sHWTTzIZc5MqBcxM3EqMF86Y0VEZFaz1SSO/GA97+w7y0OWZWZGQvsIWnrwrr24j4uvv8hDfWcz244+TDCd/DlPMlmyqgoS/ZnEMXcJHcBYamd99lI7AK8+yTursuOyL6VTGrbkKlVTSJSAb1vxPXXmBBl31kbnffS0NOANhPG3h4mYlwZxXHonFeN714k0ei31hj20/PgRgu1+ImG/sSkWYE//Rtpqig04pQu/DwJhf05d4txYvmX3v57mgWNr0xNcRkLH2X99LS/YXqcEbaeuGMvhnMqucxy7HgbjreACb76JRyIiIjPIghU13hk+6CcyjZ5by8lG+OXm8c5qtkh9adC1wEVEZBaYXVdcEZlK67/M0cZlXO4rQYIIdD5ej5skoUNKEEVEZOabZdduFpl8xpI5RpGA/aorY5e5Cs4YyxVERESmkYabRURERMRGw80iIiIiYqMkUURERERslCSKiIiIiI2SRBERERGxUZIoIiIiIjZKEkVERETERkmiiIiIiNjMs8W0m+kOtlLvSt2eG9cinv2W8dqxtdzLFX65+TT86Cm+VTWOhazXf5mjrasYLsEC2MVqt8bKWk42LoPYaTb865WpCUBERGSSzLKexCbue/0sDS81jfPxPbQ0+Kj1+ajti5Y0svya6Q6GiQQ6nO/tDhIJ2+9v7g4SCR6geSpCnHYJPkoAiY+5DFy+nrA3eW4tJ489lfOziT3rpzrWbEasCT66BFz6mJHpDUdERKRkZlmSWMUX3HDjw7nW9Zck4anV5dqymIlXzrZ39/6CDZuNn/0heLD1KV57bjriy2/EKckVERGZZWZXkvjsapaQ5BNb8jDbXWdgYDGPdc+PfsPRHBwqLsk6uOs07ybg3tXLJjmiIp1KMDzdMYiIiJRIgZrEl3mor5El6dsx3ml8kmvWJs8eZNOWqsztRD/Bp19ID7kt2XeWh+jj+JGlNOyso8zcfu3ow7zzqnVHTdz3+otUu3HYl/2+6p1nqd7pfMxSae4O0lbnymxIhtjTsIMea6Ouw0QavVmPi/b58HcATQcItteTDtvlJxL229uZBt8+T83zj9BMT/YxMhHl1FNCon8vDS09mXhrzhMYWIm/zmXE+2Noaa/HTZSAb1umpzI3NqfnNqUStP3zLzI3f3KaDUXVFCYYGoYHy908CRw0t310yc2en2/iQfMJjoSOs2VXduL55MubeKHe8qZKnGP/P/+3sY/n1nKyEX7ZB99qXAZc4ZebL/PAsbXcS4J39x6n7ZTxsIO7jpvHBbjC9s2/wFnq76c6WBERmR0cexLLXjrFpr5GOPowxxvNn6NQbakFXLLvLJu2eLj4SqpNH9fcdTTse9ls0URZOYywmoadNVw1270TgyXr9qcTRiMZfZHq4b7MsRof5ng68evl0tOZx5LoJ+jYroS6DtNCt1G76PNR6wsQddXTZq0bbDpAsNFLtM9naWdJ/Hp30ODzUevbSygJxALO7ci0PxGvx9/lHFJnoAV+bDlWXxR3XSsBa3tXPX7Pm9TuDpFwraTleQ8nfAGieDO9lF2HibSvZGB3Zl+BeD1ts7L+0U1FOTCcsCRqbh5s3cQ9p8xh6b4rlNVvyh6Sfm4tT3M6PWy9YfNpLrtX8cKPrD2Sy/jW+o/Zv/k0l3Hz9Z+v4qO9x3k34eZB/wzpuRQREZlE9iRx3X4erHfZe/tefZLgD8zuj2cP8lBVkouvrOfSW6kGu7gYSkLVarP30agfLKvycNXS7sb1ZM7xlrIIuHZu1yihmknnwOnJnxzQsS3dQ2foIhIDPJWZRGq5BzdJ4h+U7rCd70Xxrnae4NLpz+l96ogQBTxLraldktChVNbogoEjOXWOzXRv8JLo787aV+chI6lsGMt8oL99lf+64Xf++XQF451aNBbtP9rEg+4E7wayZxJnzYr+yWUuA+UVll7Dn5zO6Vm8wvsxwOyRTO/nlNmziJuy4XPp3sPxSU2aUi+iiIjMDrbh5iVb6yhL9PPuq07NzTarqiDWZ0kQC4idtLRrYkmNC4avZhK9t05z9dk6qrecZdOW3MTTaionrdiHdgGw5rcdRwhtaKW+PUyk3T58PC4dEaLhjXQ3dRHMvS93iNiUPYh6ncFeSGVo8as9gDWoKjwucNe1Egm32g7vWT6GWG/7PV9ZNIb2JeHmwdanOJkKPXGO/Zv/29KLWPx+rMPRaYnsG9aJM5qMIiIi801Okmj01mUlcTYvU1kFI6GY7Z5Fi10QO2nULZqTTC4esfYQGoneyID1sb1cerqXS6naw51nqd7pVP9o7m/SJ62kEsTsOr7OQBi/x9quh5aGnsx9jWEijdl1gmPXRaB/Iy2PNmcniakEMRagNj0e3UEg7MfjsJfRTCzG6ZRdDzg+qQTRWJNxt7m1/UdP8a3yEoQoIiIyR5RudvO6/VRXZYaNy77kAeKMWHsFzaFl597AVO1hH9eoovLZ7Hsd9zcpjN62RH/uUG1+nX6zti8G7ppHJlTb1/P2eah5hKzpMObQdmYoebxixJPg9lSN3nQ0M2C4eXzc3OOGkdC5dIIoIiIidjlJYi/XBpJQtYH71mW2lr100HJ7F4MxKKu3zHxet9+YvRzrS9cxLlrsgkScG9bd3+ehjBiDBYay8y1zM/JhHPBQts7xUSVkT6Q6A2H8o+ZVzVR6gPhgzizhHgbjQFWR6yD27uBEfCW11i7CD+IkcFmGg41eRK/DwwvroeVkFKr8BCe63M5tv+criwLOP3ddYOaW3RkLd5ctzow1p66aMrnMRdXD4ezJRiIiIjOUrSZx5AfreWffWR6yLDMzEtpH0NKDd+3FfVx8/UUe6jub2Xb0YYLp5M95ksmSVVWQ6M8kjrlL6ADGUjvrs4eaAV59kndWZcdlX0pnNPbkKlVTSHoot4eWHz9CsN2yZE0swJ7+jbTVZB5nWyIH6z6ydfr3UhlsxR8Ok1oEp1ANY+d7142ldVI1kL076H40SJs5pG08fi+hDa3UOO8iv45t1HKYSGNOXeK0L4MzVRK0/eQcR1vXcvKYuSl2mv2hVbww5hdzLHoYjLeCC3NykjJFERGZ2RasqPHemu4gROYFx9pSERGRmWl2XXFFZBbrfLy+RLWlIiIik6/AFVdEpBQypQk5V74RERGZwTTcLCIiIiI2Gm4WERERERsliSIiIiJioyRRRERERGyUJIqIiIiIjZJEEREREbFRkigiIiIiNkoSRURERMRGSaKIiIiI2ChJFBEREREbJYkiIiIiYqMkUURERERslCSKiIiIiI2SRBERERGxUZIoIiIiIjZKEkVERETERkmiiIiIiNgoSRQRERERGyWJIiIiImKjJFFEREREbJQkioiIiIiNkkQRERERsVGSKCIiIiI2ShJFRERExEZJooiIiIjYKEkUERERERsliSIiIiJioyRRRERERGyUJIqIiIiIjZJEEREREbFRkigiIiIiNkoSp1rTAYLhMIGu6Q5kGjxzB+8H7ub9wN0cfWa6gxEREZFCZlmS2MR9r5+l4aWmyT9U12Ei4SDdU3CokpqpcT+6kN9tvp1Lx/7CA/6/sOWn0x2QiIiIFDLLksQqvuCGGx/2TncgMkbfXrsQd+IzDis5FBERmRVmV5L47GqWkOSTS9MdiIiIiMjcdnv+u17mob5GlqRvx3in8UmuWZs8e5BNW6oytxP9BJ9+gRHz5pJ9Z3mIPo4fWUrDzjrKzO3Xjj7MO69ad9TEfa+/SLUbh33Z76veeZbqnc7HHF0z3cFW6l2WTckQexp20AN0BsL4LU+pvj1MpD1PO0/mNkBzd5C2uusEfNvoLHQ8IJ4TVe5xo30+/B3mjaYDBNtXMrC7G5637CsWoNbf5fj4fHGLiIiIFMMxSSx76RQN9S6uHX2Y46lk7tmDNLzUxLUfGEO9S/ad5aGqJBdfeZhLb0EqqWzY9zLHX9wFNFFWDiPDq2nY6eGq2W7JvrM8tG4/Za+mEjszGY31cfzpXQ7R9HLp6V4upY5ZPtakMFtnoJV6QuzxOSdNnX6fkeB1HSbSuJjQ7gZaxj263UEg7McbC1DbYM5UaTpAsL3e0sZMIuMBan3WNmECWBJFXNS3txLt81HbkYrPT6CrC39HqeMWERGR+c6eJK7bz4NmgpjV2/fqkwRTvz970EwQ15sJIsAuLoY2sKR+NUuAa2b9YJnbk9XuxvUklFuPt5RFwLVzTgmilZl0Dpwed4IIzVR6gPjglPSqNXdvxEuUgL/AVOaurdS7ogQaLG16d3Di8TD+1R1AZntW72JHhGijF8/SZijxs2n660Z2/o/L+c47fs9X7rw6xj0u4OsrFpK48Dk/m3B0IiIiMhVsSeKSrXWUJfp591Wn5mabVVUQ67MkiAXETlraNbGkxgXDVzOJ3lunufpsHdVbzrJpS27iaVWKSSs9tJzcSqTRTyTsn/RhWK/HBbE3LUPPds1LFwMu/OEw/tw7k5WUPgUcXe/tb9JboBCheAv46X/exVfdN/n9vr/wtbdLsU8RERGZCjkTV4zeuqwkzuZlKqtg5HrMds+ixS6IvWfULZqTTC4esfYQGole9mN7ufT0wxxv3MfFhIvqnWfZ1HfQUgtpKtWklY5t1Pp81O4OkXDV0xYOEwkfLpjITb4oAZ/PiMv6M+vrCG/xzL/8hQf8n8Mzd/P+K7NrnpSIiMh8Vrr/2uv2U12VGTYu+5IHiDNi7RU0h5adewNTyWIf16ii8tnsex33NxG9O2hIJYt4qZ2sxa09Rm9g2nIP1vk5PVevA4upnEHrGjb9dSP/dcPv/PPZ0nHs8Ra/uXAT7lnAt0serYiIiEyGnCSxl2sDSajawH3rMlvLXjpoub2LwRiU1VtmPq/bb8xejvWl6xgXLXZBIs4N6+7v81BGjMECQ9n5egxHPowDHsrWOT5q/JZ7cJMk/kHO9g/iJHBR82iz48Oi8SS4PHjN28bM5uw6vs73ouCqJ12S2HWYSKM3qw0dRwglXdS3l6g3c5S4i9F7+5t8ZVHA+WfM9YgiIiIyG9kqz0Z+sJ539p3lIcsyMyOhfQQtPXjXXtzHxddf5KG+s5ltRx8mmE7+nCeZLFlVBYn+TOKYu4QOYCy1sz57qR2AV5/knVXZcdmX0hmNOds4a1vSeSZw7w4alh8m0thKJNxqNs3UMPa0dNMQbM3UEsYC1PbVEmm0Hm4be5YGaWsMG9uTIfb4IvjD1urDHloaoNu6L1PWRJVijRK3iIiISDEWrKjx3pruIGTu+/a/3cl3V9zkh/9yUzOcRUREZgHNJJAp8bMPb4H7TrY9M92RiIiISDGUJMrU+Onn/LD/Jvdtvpv3A3dzVMmiiIjIjKbhZhERERGxyZq4Uvb30xWGzEUjf57uCERERGS8spLEhx9YOF1xyBz0Vv/N6Q5BRERExikrSVy0aCHhC7cY+fPMGYH+5JO/TncIIiIiIvOOJq6IiIiIiI2SRBERERGxUZIoIiIiIjazL0nsOkwkHM78BA+QfZXiDgLhMJFwkO6maYpRREREZJabXUli0wGCjV6ifT5qfebPdF6TuOkAwXCYQJfz3Z0BI5ENdjfbtwfGelFmERERkalz++hNZo7mR1fiToboLphfdeH35cnapkMyCTWP0EzP9CWzIiIiImM0q3oSvR7XdIcwDucZiNfjn0F5q4iIiMhoZlVPYmEdBMJ+vOnbUQK+bXRmtWmmO9hKzcBeGq5uJdKYap0ktLuBll5Ly+4gbXXWpDTTJvc+d2OYSGP+4wbfi9K2ugPIlynmxg7RPh/+DmvMAQZq/NS7ING/l25ajBhiAWqtGWjXYcvzwn6/iIiISBFmfk+iZaKKvwpw1dNmmbiSqQfswm/WKe7pTxbcpbuulUgjBMz2gZiL+uctE2C6DtNWB6HdltpHXyaJ7GlpMLbtDpGA7BpJW2IKdBwh5NmYZyJNM93BWiK+zD729CfxNmZPvHHX+fGcNO5z17TQ4nmT2r4oVGX229wdzHpetb69hDx+1T+KiIjImM38JLFjWzp5CsSAZIg9loTKP578JxlijyWZi8aT4PKke/Kaly4GrjPYm+fxY9ZDcABqHm12vK+lITux7Hn7PAlceJZnx5zO9VwwcCi3d7ADf52LaJ91Xz20nIxCVa09cRUREREpYA4NN49BfDBrEklPS0PO7Tfxh/34w2H8DkPR49Hz9nla2rfS6TR9JXeIOBWmQ8xGmmkmsNY8sakSD7lD3ylJKpuAkiW9IiIiMtfNzyRxVKkZ0kY9YH17mEi7tU5wHHp3cOLxMLVdEMk6lJEgJvr30tBiJpBNBwi214/rMBOKUURERMQ084ebp1UPLQ1mbV8SvKsnln11vhe17cMY2o5yomWCC+T0DhIHPEudhrRFRERExkZJYlGq8LggEY9lbzYTs6KTx44jhDy11Fo29Vy9Diw2hoMh3YvoHnOMXQT6k7jrWvMu7m3V3B00Jv9oUouIiIg4mDtJonn1k0g4bC5P48Ufdr7iyWhSV0rJ/PjxWIeD07rw7w6RqPJb2h4uMEmkh+DAYrxVlk0d24zZ1e3m49tXMrA7QHRMEZt7b2kwZ0bnxCHK9f0AABWMSURBVO+QCBrJKVmzo0VERERSFqyo8d5K3fg/6+4kfOEWI3++VegxU+qTT/463SHMUWa9pctpPUkRERGZ7+ZOT6KMTddWc2HuI0oQRURExEazm+edzNVdNBNaRERE8lGSOO+klvcRERERyU/DzSIiIiJioyRRRERERGyUJIqIiIiIjZJEEREREbFRkigiIiIiNkoSRURERMRGSaKIiIiI2MyOdRK7DhNp9GZuxwLU+rXWn4iIiMhkmR09iR3bqPX5qPXtJZScomN2HSYSDtLd5BgQgXDY4X5je0D5q4iIiMxysyNJnKESSah5tHm6wxAREREpOSWJEzFwnnjdVjqnOw4RERGREpsdNYlF6yAQ9mOpXiTa58PfYW3TTHewlXqXZVMyxJ6GHfQAnYEw/qrMXfXtYSLt9naG3xKJtVLbBWQdo9iYjPvoC0Cj0Sba5yOy2ogh0b+XhpbM0XJjsz83ERERkdKYQz2JzXQHa4n4fGb9oo89/Um8jdl1g52BVuoJscfSrtaS+HX6zW19USBJaLdzu/T+DoXwbDiA86BzcTF5GzcS3+0jEAPPhiCPxfeypz+JO91L2Ux3MIyfQCaW3SE8jap/FBERkckxh5LEHloatmUN/fa8fZ4ELjzLU1uaqfQA8UFbsjduvb9lgJU0OE5wKSYmIPYmLb3Gr27XdU605ETXtZV6V5SAdUZ37w5OxMC7Wl2JIiIiUnpza7g5d6kcUzz9Ww8tJ7cSafQTCfsdho/Ho4fgQAttj3dA73higkQ8lrmRjBPNadu8dDHgwh8O48/dUbKSZihd0isiIiLCXOpJNJOxRP/erCHZRG671HI6u0MkXPW0hcNEwocnNPmkp+VNolW19n0UG1NRogSsQ+QFhsBFREREJmrOJIlGb1vUPlSbT+8OGtJJm9eYfDJuXURi9n2MOaY8eq5eBxZT6TikLSIiIlJ6cyZJtCVSTQcIttfjHu2Byz24SRL/IGf7B3ESuIpeB7HzUAjP6trSxJSr4wihpIv69uJ6PDsDYSLhMMFureEoIiIi4zMrksTm7iCRcJhI2Fy6pspv3rbMEu7YRiDmMpasCYeJtK9kYHcgp74vdaUUy0/jYkK7G9ITR9J6d9DQF8Vd15ppG8w3ixljAovHm7XUTXExFaOHloa9hJJe/DnxO81ujsaNy9K4tYajiIiIjNOCFTXeW6kb/2fdnYQv3GLkz7cKPWZKffLJX6c7hFnIXJuxJBNzREREZD6aFT2JMjbN3RuNhblPKkEUERGR8ZlbS+DMd+maR2MRcNsQuoiIiEiRlCTOJb07aFBiKCIiIiWg4WYRERERsVGSKCIiIiI2ShJFRERExCZrCRwREREREVBPooiIiIg4UJIoIiIiIjZKEkVERETExr5O4qML+d2Ld+IGEv2f8rV/V8miiIiIyHxj70l8+yZf8/+FB/Z9BnV3cfSZaYhKRERERKZV/uHmt2/y6z/Cfas0Ii0iIiIy3ygDFBERERGbCSaJHQTCYSLhw3SWJh4RERERmQHUkygiIiIiNoWvuPLMHby/eQG/3/cZz7w9hVGJiIiIyLQq4rJ8t3E08Hfcx1855P+c701NXCIiIiIyjezrJFp8+9/u5Lt1tzjk/wtbpioiEREREZl2BWsSvYsXwh9vqvdQREREZJ4p0ezmIN1NpQlIRERERKbfBJPEGPEkgIuaR5tLEY+IiIiIzAATTBJ7aDkZLU0kIiIiIjJjFEgSb8P3j5C4XmjyczPdG7xAlBMtPaWOTURERESmiX1286ML+d2Ld+IG+OP/8MC/OyeJnYEw/iogGWKPbwdKEUVERETmjiLWSRQRERGR+UaX5RMRERERGyWJIiIiImKjJFFEREREbJQkioiIiIiNkkQRERERsVGSKCIiIiI2ShJFRERExGYOJYkdBMJhIumfw3RO5uHa3XT+ujLz8+qdk3k0u2fu4P3AHXx/ao86CuNvEOyePdfxbu4OWt4zYSKBjuwGXYeN7cEDzJ5nNYet/zJHjz3FyZ9/mSdxs+fnT3Hy2Cb2rB/7rtp/9BQnjz3Fa88Bz63l5LGnOPmjZSUPeTYxzodJ/uycqNQ5me+clbTvv3I3v/u3BdMdRkHldevZvrWa8oKNqnmiaT1rCjaaK1ys2bqF7Y9VTHcgwJxKErvw+3zU+nzs6U9O/uF2J+j8xiCd3/iQczcm/3BZHl3I7zbfzqVjn/O9ce2gme7gbPxwLXHcXYdpq4PQbuN9U+vzUevvKs2+xxlPJByku8npztSXoNz7je2BaQx7Sp1KMAwwnOAgCYaGx7+ry9cTQIKPLgGXPmakNBFOic7A7PziUpK4O7aZ5+teQlPwUQ/M2nPze0c+g7q7ZnCiWEHdChdD//cihU7lal8NrqEBzozlfM+XWJZX80TTFr55/zjCnTAzAWzK+ZkhCaGTOZQkzhe3cfTFO6H/U7b8dLpjmd06V3sh9iYtvQUapf4hNcyMS08mklDz6GxLDSZbgqFTpdnTyPVEaXYk886MPDffvsnXjv0Vd90d/PTR6Q7Gwf3LqGCI6B8KNarAWwFDl4emKqrJN9TPa71HzZ9+hirqRu9NnSZKEmeZ77/yd9yX+Iwf57mmthSrmUrPdMcwDgPniddtndnDgVPocqmSulQPpch4zdRz86efc+iPC/nqMwv59nTHksXFmn+qIHlhgIsFWpXX1VAxMkB/wURyNhviV2eGoKyS5TMwS7w93x2dgTD+qtStJKHdDTk9Lh0Ewn685GnTdIBg+0oGdnfD863Uu8ztsYBtSK+5O0hbncuyxeF4XYeJNHotTULsGWfvTvZzg2ifD/+kjbzeyXO/Xkym0ulTzv3HMIcOFWqTr+1t+P4RLh27yc/yHS73dcLy/JoOEGyvx526w+UnEvbb23UdJtK42OHvWU8857XKfS0BbP+2c2PKeQ90BsL4CVD7Xq2lneU9UGzcpTRKzAbjHKDPR2Cp9T0cJeDbZvln0Ux30HIOQNb7N/c1rG8PE2m3tzP8lkisldouIO9zzj03ra+REUvNQICBGj/1Lkj076WbFiP+3OdZ1OtQvJc/87P1b//NK3ddoFAHbn5X2L75F+lbB3cd5+A4Y8l+bPZ+x+XWCt7685eJ3x3giXF//bb/7TKvee599bSFw7SZtxL9e2lo6SH9fos7nGeenPdT7rkFwPXskHLb5L4nuw4TaYSAL0KtJb5MPMXGXWqFzoOU+XFufu/IZ3zjxTvZ9sxf+JnjCFQqrtzPrklUXsGysiRXooVqBlwsr3SRHByatC9x1Y9tYa1rgKNHMkPe5XXr2bJihNO9/Vykgm821VEx1M9rJ4ZGfey4fPwJSSr44j9AakfJxIgZh/nmHHE4zv11bF9jHaoeMmMGzLg50w9r6qgAhs4cJXrvFtZWQPLCKd4oojTP4aPMqPvyV0UJpOq0fN3wuKWOpOkAwbAfT//edC3Xnn7jBMquv3BR396K56S5n74oVPmz2zjVhfmyE8Tm7qCZtPgytSjU0zbmAmvzuRHIHGt3CE/jJNWNPL6I9l8v5ovhD836xUH+MwyrvlPJc6kPmlSC+P+uW9p8imMy+cxC7uMm8Ut5jtd0gGCjl2if9bW0fCj27qDBWssTCzi3K4r5WnpC7EnvI0A0t1V30PwHYvnbefz2usIqP5ENcXNfewklXdQ/b77nShh3ZqKK+Y+hym8pgrfUFI2h7snbGKat5rwldi9+y/PrDLRSj/V1yh6+7vRbzg+S2eeCwxehzkMhPBvy1XU10x2sJWI51p7+JN7G7Hopd50fz0njPndNCy2eN83zc2O6XdF/OymRZrqDfrw57+/MP/5M3XUghpGkWNqNOdHqOkzE/OJnfa/Y26xkwPKeDMTrabPVFXrxhzcS353Zj7uuxXwvlTjuohR3Hsybc/Ptv3E+AYu/NHNqE6t9NbhGBvmgUHZ1fw0rR00kJ9sQ/ReSULGM6qzt5jD4KPWURfmHL+AiyZ8+zmxyrVjPFvdAZki6rIYt1trF8mqeuPeKZdj6FOdHKlibM2xdsaaGPx0/yukhKPun9axOnOLohSSuFTU5z8eZLUls7m6h3pUktNv6baKHFr/lxHm8HncyRLfl5O5p6SaUBO/q7Ddp1je3jghRwLM0cwo1L10MXGcwb7dCB/46F4n+bkvi2EPLj0Mk8Brf2orVtZV6V5SA9dtW7w5OxOxxl8LXv/VFym78iUPfvZneFvvunzh3A5atNGdDP34HXwSunP8s0+bMp4xwF/+Q00P37S8tgMRNfvN2ngMu9+AmSfyD0j4PR11bjffJjwv15hp/u2hfznvpZBSqarMT/Kxv5T0EB5Lg8mT3qJRAT0tDdvKX9Q85t7e8SLGA5R9GD4NxwFNp/qMwh7Xjg6Wraez9LQOspMGxiL6HlobsnoCet8+TwIVnuWVjMkT6/4kLBg7Ze0mL/ttJiVThcUEiHpuCYzXTvcELsUCBL1lGm+zPXiMRSrhy33/Zoz+O77kpVcx5MJ/OzVtc+QjcK27LM+ScSuSnqBexyASr+t4KGOuElSwuVm7KmSSyqQbX6A/MMhwdJEkFqy0jnuV1NUXUUxahvJon1jg8z6yeyyGiQ4DLlUkAhy/yRlbPZpIPBpNQ9oXs2kbLfl1lI7w3xom9tuFmr8cFyRDBvP8sjRMrMfDbnBOrh+BAC/U1xj/HYk+6npY38Yf9+MNh/E7DzE2VeEgy8HbOHnt/y8Dz9dQsLf5oRkLqMo+VIzm2uEe3kMXlMPLBp2R/5N/knQ8+ZdXyO6jiM2KHPudP30kljUaiWLXmLspIEtqdvUfv4oXATfLqOEJoQ2t6SGQyh9Gbly6G5PkC7xPMvx24G8NEGnPvTFLZBOMcc5xRcv+pd/p9OR/eW4k0mkPkEyiTyDDOtbbHO5xfP4eSA4B41g3jH6ORyJpf0qz/i0r2t1vKGze+Svb3nS+z88aX2QnAVY4s+j27itnVDNT0143s/J/sfzmuv/j5L/P35N+9ybrbi/1Q7iLQv5G2ulYi4dYJD+0XZiSk0ZOF9m+0cafiyTF9CWCRRj0P5vu5OX1SCdbpQglWeTWrK2DozEQmrCQ5f/xUdvJVXs0Tm2rGtpvhi7w3VMPaygrK+5MMp4bBL5wtWE+ZV0Ud2y1fJIbOHOWNcSSb1Y8ZQ8fZstdpSCYst0c+GXOvZ96axKnThd/XRbo2ZNITnCmsuSjKTT6+Acv+92I6f53a9inn/iPBb3JaRq/fhHsK7auHlgbjI64zEMZvfohMXs1PcSa35nMW6NhGraUm1KjHmtj70PhyVUsnkew7zH9CWX9z87jjMfG/3VWeWBRI35p4TeLM0nv7m/SmPkVLUJPY09JgJCldh0ucvIzfdH9+jEux58F8Ozc/upW/nn3KFJdglXsrcY0McGqGTFi5eHmItWsqWV5+kWEqWFY2NOZeuTSH+saxMhLE7CTYqGGc0G5tbB9l0fhow3zGcJq75pGcuotmGmpcE+i676GlITMMmB7+7R0kjsu+tEDTI9S4IH61+KP1XL0OLDa+aU26m1wfhrLld+X0oizkoeV3wfDnRg9j+yJWLUpy0qxHNH5yJ7YYfvbhLXAv5OtFLGWQqqUJxJz+ViWS+z4xv+Gm9Q4SJ7u8YF5L1VbuHkephE0XkZh9H0ZveZQTE/2nrr/d9ErVxPZFwTa0Wzq5f1+vx9orGiOeBLcnp+5lFhjzeTDnz80FLLsHEtdnwKoYM2TCypj9YYDzIy6WeV2UeythlFnZk8vFPS4mOBRfHFuS2NPyJlG8+LMKk5vpDmRud74XBVc9LZYra6RrGW31E2OVW5fTRSSGpQjajOd5oy5yTDX0HUeMCRHtxU146QxMbEX/35xPwqIv8vgPF6a3Vf3wi6xa9CnnfvmZpeUdLH68iB3+9CaXWMjKtcUWH+eruTHr5vLVr3wQz66TcZgBadTSeHks9R5wnCXZRaA/ibuutUQTg0aJOy1z9Z0Zuch0vtpR83Uvdq21zkMhPKtrs7bZvgg5/l2KUeq/nYxHvppt48t8/tq37LpYp1UIUp+rmSVb7G1SdW7+kl1FqXDcGRP97B33eTBXz81Hb2OlG65/mC9JzLcgeOkVtTD2/TWsnEhP3RgMJ7Lr+LJmFGcxav5cK4zeuumdTJPkoyRZNYr5454Yh+HmLvy+GN3BVssyBUatYDrR6NhG7QcHCLZba1XG10XvuIRKzvBGp99HtDtIm3X5gdx6HdsJl6k9zOyvh5YG6A622uoSnZZGKLSOXtUPy/kX312ZDYtSw8WWWcm7E3TGbtL+nS9ZhpKTnPyGZSh5d4KTKyvZ8J1KVn0n+xgj4Q/Z/V1rDeLfCP8RHq+7ne9jv9qKfSkh8tY1dfr3UpnzOqRfg94ddD8apC1d8xIl4AtQa1l2ht4dNCw/TKQx9R6IEvAZ+7RWe/QYL7hlX4XjGk3BuFNyezTHwfZappfdcVoOqhCHJU3y7cP2mlJ4qLH3tww830o9ZGaVd2wjsDqMP32uJAntDuBpt1XhjqrUfzuAXXcGZm394agWXGDdogvjf7xj0uD8udrT0oA3YP07Z39udvqN8zX1GZ7o38ueeAttlpMz91xK9O+l9r2t2X/rjm3UkvOehHEPgY8Wt6HwZ29R52ZR58H8OTe/v/VO3InP+HHeCzAYvcZel5kI905WeYE5YWWUOkNjwkr/lPTUDfef5XzletY2bWEtGEPBZ5axfY1T2wGGVtRRMQU9eKO5eKIfb1MdW5rMk3pkgKNnvsAWh7gnYsGKGu8M6H+ev4xk8/PsxDG9HYc1FW/jaODvWNz/KV/TgtoiIlLIM3fw/uYF/H7fZzyTb2UMcK6ZLLHs9QfzNTImloycOcqvZkg9YkZq7cGZGNvk0BVXptn/uueuAts/57qtNvFvbDn2V9wz+nqcIiIy7R5dyO82306i//PCCWJqSaRS1EzmlZqwMsoVVswJKzPvCisu1mw1FtWeLwkiqCdxBljI40e+xKpFOZtv/In/3HqDvCumPXMH72+GQ377sLOIiMj3X7mbb1wvPOqULvma5ln0M5bZs+mCksxKnm2UJIqIiIiIjYabRURERMRmBiymLRNV9vfTHYGIiMwUI3+e7ghkrlCSOAc8/MDC0RuJiMi88FZ/gcu3ioxBVk3iksVfnM5YRERERGSGUE2iiIiIiNgoSRQRERERGyWJIiIiImKjJFFEREREbJQkioiIiIiNkkQRERERsVGSKCIiIiI2ShJFRERExEZJooiIiIjYKEkUERERERsliSIiIiJioyRRRERERGyUJIqIiIiIjZJEEREREbFRkigiIiIiNkoSRURERMRGSaKIiIiI2ChJFBEREREbJYkiIiIiYqMkUURERERs/j/fftPlC6HyTgAAAABJRU5ErkJggg==;imageBorder=default;" vertex="1" parent="1">
                    <mxGeometry x="1850" y="320" width="531.51" height="190" as="geometry"/>
                </mxCell>
                <mxCell id="62" value="&lt;span style=&quot;font-size: 16px;&quot;&gt;- Key và value trùng nhau chỉ cần ghi 1 cái key đại diện&lt;/span&gt;" style="text;html=1;strokeColor=none;fillColor=none;align=left;verticalAlign=middle;whiteSpace=wrap;rounded=0;fontColor=#CC0066;" vertex="1" parent="1">
                    <mxGeometry x="2060" y="210" width="240" height="40" as="geometry"/>
                </mxCell>
                <mxCell id="67" style="edgeStyle=none;html=1;exitX=0.25;exitY=1;exitDx=0;exitDy=0;entryX=0.5;entryY=0;entryDx=0;entryDy=0;strokeColor=#FFFFFF;fontColor=#CC0066;" edge="1" parent="1" source="63" target="64">
                    <mxGeometry relative="1" as="geometry"/>
                </mxCell>
                <mxCell id="69" style="edgeStyle=none;html=1;exitX=0.75;exitY=1;exitDx=0;exitDy=0;entryX=0.5;entryY=0;entryDx=0;entryDy=0;strokeColor=#FFFFFF;fontColor=#CC0066;" edge="1" parent="1" source="63" target="68">
                    <mxGeometry relative="1" as="geometry"/>
                </mxCell>
                <mxCell id="63" value="&lt;span style=&quot;font-size: 16px;&quot;&gt;For of and For in&lt;br&gt;&lt;/span&gt;" style="text;html=1;strokeColor=default;fillColor=none;align=center;verticalAlign=middle;whiteSpace=wrap;rounded=0;" vertex="1" parent="1">
                    <mxGeometry x="2600" y="140" width="130" height="60" as="geometry"/>
                </mxCell>
                <mxCell id="64" value="&lt;span style=&quot;font-size: 16px;&quot;&gt;For of&amp;nbsp;&lt;br&gt;&lt;/span&gt;" style="text;html=1;strokeColor=default;fillColor=none;align=center;verticalAlign=middle;whiteSpace=wrap;rounded=0;" vertex="1" parent="1">
                    <mxGeometry x="2480" y="260" width="60" height="60" as="geometry"/>
                </mxCell>
                <mxCell id="68" value="&lt;span style=&quot;font-size: 16px;&quot;&gt;For in&amp;nbsp;&lt;br&gt;&lt;/span&gt;" style="text;html=1;strokeColor=default;fillColor=none;align=center;verticalAlign=middle;whiteSpace=wrap;rounded=0;" vertex="1" parent="1">
                    <mxGeometry x="2790" y="260" width="60" height="60" as="geometry"/>
                </mxCell>
                <mxCell id="73" style="edgeStyle=none;html=1;strokeColor=#FFFFFF;fontColor=#CC0066;" edge="1" parent="1" source="71">
                    <mxGeometry relative="1" as="geometry">
                        <mxPoint x="2515" y="540" as="targetPoint"/>
                    </mxGeometry>
                </mxCell>
                <mxCell id="71" value="&lt;span style=&quot;font-size: 16px;&quot;&gt;Không lấy chỉ mục (index trong mảng)&lt;/span&gt;" style="text;html=1;strokeColor=none;fillColor=none;align=center;verticalAlign=middle;whiteSpace=wrap;rounded=0;fontColor=#CC0066;" vertex="1" parent="1">
                    <mxGeometry x="2430" y="335" width="170" height="40" as="geometry"/>
                </mxCell>
                <mxCell id="74" value="" style="shape=image;verticalLabelPosition=bottom;labelBackgroundColor=default;verticalAlign=top;aspect=fixed;imageAspect=0;image=data:image/png,iVBORw0KGgoAAAANSUhEUgAAAfYAAAB9CAYAAABQ60ETAAAgAElEQVR4nO2dW3Bc1ZmoP3wLibUFTssxbWnGkSzrAtgWxC2UUoSRDWcwp2i5sSnm1HQ0ESASXqZA9rwk5diKK+clNnHNCxkEeCI0J5UCW5aoGnNOsIWjuCLUBloYsCzbUjyR3Di2bOjdxlxsOA977+7d3btvUt8k/q9KVerdq9f6e/Ve61//Za19Q2VV2VcIgiAIgjArmJNrAQRBEARBSB+i2AVBEARhFiGKXRAEQRBmEaLYBUEQBGEWIYpdEARBEGYRotgFQRAEYRYhil0QBEEQZhHzci1Abmimo7+NWsV4rTK4q4HWrhilO/rZ4lBgrJvVrvZsCfk1ZQ693d9gefD1Nfa5vuDnphJb/+0RHiiFsz2/p4V6DjeVwNhR1v3LePbFTYGHt23gydpCAoMHcf6phN62lRT4j/PsP33AyxloT/opOWZqPyUnd+LxJMw+ZqjF7mb5S8do+Jl7ip/vpLWhhtU1NazuGU2rZLFppqPfy1D3dut3O/oZ6n+OZqvr3v3syLyAecWZV69ym+sqt1lMQmcv+AE/l84AZy4TiHj/4W0bOPyft/Kw1fVX69maMalL2PvqIxx+dQO7G6PffdnnB2DS54c+P5MZk0MjL/vp8XoOv/pI6M+i/a99P0X20auPsPfx1OXW+BKnSx9Lr15Lt6RCnjJDLfZSbiqEKx/GMLHTTGdrA51ZaUmYKoEL/py2r1lP47wz6GdZbQofnPRnxAqNRU77qfFWepsKeeeZ37OlD7SFUD1P/puflxNZx1+nfnr+KOueN71+vJ7DTY+wl9/T8nzMTwG5HwdCfjAzLfbHVrEElY/P5FoQIedkwaJLxMPbNvAAR1n34FEGkv6Un0vZnIPzoJ/o+wDngwd1pQ4wzn8N+qF0WRyr92vYT5E8f5x3/LBsVUnsMvkot5AzkrDYt3FnTxNLgq/HeLvpYc6bizz2MhucpaHXfg/9P3wy6BpasucYd9LDwQNLaXjaQYF+/XzvGt5+wVyRm+UvPUVFIRZ1Rb9X8fQxKp62bjMdBGPrwSaeoaHVwnZv389QU1nYpdGeGlzbAfdz9G+tJSi24mLI64oul7xUEfkBgDrI7oYnwr0KkTJF5ge072eoCbprDlBsrm8G5BG8vPOgyXobp+XB30+hlkJ2/+cG7pgMj0lu/bdHeMCmx3Mf1+KWZ3siLSXN0rQNHsS50x8hTxzCLDE/W/5pKnInT771U7w27I2AofBnaT+xbQNP1sI7z5gXN2iejLaVTEb1XziR1nh65A5hzHcx5zlhxhBXsRf8rI+GWoXzvWs4aCjgx16m4Wduzv9Sc4Mv2XOMO0tVRn69hjNvgLEQaNizjYNP7QTcFNggMLmKhqeLOKeXW7LnGHfe8ywFLxjKWF9AjPVw8Ic7LaTp4swPuzhjtGlLvyKPJOSC306310WRVSH3c/Q3lcVW0F1P0NAFQYV8cXqKc0d3G7UMsrvmiZjhAW2AXqC7pkaPzWttD3UT0XYZLm8bfs8zrG7t1BchLrrb21NcbMxSnj/OO40l3LGqBDC5ih9fxjLG+a+4yuprxDT6adniQmAcX1/MIrOGl3ce54FX61nxg0LoC/XJwz9YRoH/OC/FUOoPb6vnjkK534Tkia3Y73mWO3SlHmZVv/Aw/cb/j72sK/VGXakD7GRkcB1LalexBDivx8MLCovCyl25oILN3N5SFgLnj1spdTP6QmH4aEaVetKsKKIQleFT2WismeIi4OJEnJj/dlwOhdGeBlPCXSethzcy1LSaHRCWiBe2IOma4OJWKFraDMlmFXx5F29dXWr93twP+PWNJ8lOJkQEhSt58tWVPBn1RiqTo5+BYT931K5kd+O4bmUVsrtRyz7elS5Zc0ku++nxeh4ohcDg8fzvy7T00zjvj8EDtSvZitEvJTxQW0hgcDzc66N7QQzO9hzMeB9JLtHsIaZiX7LRQYHfwzsvxCoBS1aWwliPSanHYeywqZybJVUKTJ4LKec3jnLuMQcVzmNscEYuFsxkN3EuIdsPMLiujdqtXoa2TsW1ngqGgtbd+VYueHcxRUBhk5ehpsjPqxS7IaRpVS6GLUjacdWk6E2Y8ybfW5jaR7KCxfaoh3VXaCpEWVmNJawo9PPO8/m9FSppctVPjbfS21QC/uO8NBMs0TT1067u49zdtpLbHgeeJ7ZXIywcoe+2WJX/W/CE/CBG8pxmFYcp3ii2UVwKgQtjUe8sXKzA2LtaHF5PdBs5YLbENeUc/tkuzvxwDQeb9jDiV6h4+hgbel42xfZ18i5xLrR1rnsMypq8DHm99HdEblxLE9sf0rbp7RrEr9Syxeu13A432qNv5wv7i71XX4iFZmUVVJXwMLrbdOx4eIxUIKV+0mPKBYzzXxnam5639I1zypQIt3VVSRIei3FaesahdKXlNkpBiCT9WfH3PEtFacilXnBLEXCRgNn61t3u1la3oeB7OE8pxY+Fv2tZX56wwxVS8IVVP4jak54QpYiyiEtlRQqMDUXvY+96ggZDwVPGasPQ7prgIoY7PQt8eRdvXXFZ/31ayVRPGsgndnUfJ1C4jLrGQuqq4J1usZqsSK6fSthrKPUHZ0k4IyX8bOkb13cClHBb6Th/TNpj4f9a5CII0yeGYu/i/LAKpetYfk/oasHPXja93snEGBTUmjLm73lWy3of6wnG5RcuVsB/kSvm6pcXUcAYE3Hc/LEs88CHF4EiCu6x/FQeECsO3snERaB0teVhM52trzNKGevNln77flylMPpuHPe4HuMPudTb6faoFDra6M5GcvucN/newm7rv1zF15PCj28SsBUGDx4xTvKKom+cU/5C7mjbwB2cZSALk+uO7gx7fpImnf1UyO7/rNdcz2lS6jOyn54/y1lKeODVepaNnU3cD3rYItO5CNphWLEP0RJmDjFj7IFfNvL2nmPcadpSFhjcQ7/JUj7/1B5GXnqKO3uOha71rqE/qLCtE92WrCwFvyek7CO3ywHatrrG8G11AC88zNsrw+WK3jaXCC3L3WwdGzFy83avHd1eXGaxHG0MeduAUbprHmIH0VviNNGtM993uJ6huL8Nl9eLseEtFJNvx1UD3V6jDdCOuq0xuc+j5bY6DreztQE6+tkSGWefAVvZssmufznKba/WB5OiAoMHefZCPU9WRZbUrKzDTSWc7bNwHQddyyHuaHuEw21M+WjS0YsqlCoUOjayg86cnjyYrn7SsrsBSnjg1Ud4wPzm16qftP37T9ZaezWiFwR+06E+maPz3AW2oASNj6/baZeziRsqq8q+yrUQghBCO9uaV6/ifDHXsph4vJ7DTWTRfawv4qwSJPMZ6aekeHjbBp6sOpux8+8teXQ+7z9InLPijTMyQoaLMDOZmSfPCUI20V2hZ3uyFxNu7riXMmD08MxRVtJPSfJ4vWatP59niYPtG6lVwO85IEp9hjNDz4oXZjvLH/wm7z8IuXwalfGUMcDiVLUMETypMDIMk79IPyVHyMXujz59LmNEP90tCtPpmJndritkC3HFC4IgCMIsQlzxgiAIgjCLEFe8MKMo+FauJRCEmUHgk1xLIOQKUezCjGLNbXNzLYIgzAje8FzPtQhCjpAYuyAIgiDMIiTGLgiCIAizCFHsgiAIgjCLmFtUtEjOIhCyR7mDlgfWUP6Nc3xw7vNcSzNlKtY7cdYv5caJvzB+NdfShGNzNPKP61ZxyycnOX0p19JEYud+9zoayr7ir8OT5FnXfT2wVbB5Uz13LfbjHYv9/E5h5pKSYrc5GvnH2gXxB6Stgs2bVlGYhxNeXqEPrr/P4OSrKZ9K7sinAXzpHN53/fz9ujLmvHuOyRyKYijAO1ZVcseqyviLDX1BcsdiP38tcnDfdy9xtOsoQzm4xyvWO3Gujq0Yr577C95PCmmoK+aTd7/C4V5Hw6pCPslxf2sEOP3uST4pruf2uem79yvWO3GWhd/nifop2TJBDIW4Kh8WdPoCSb9374j7+yrUbbyf+9Ys5caJz7h9w2oWnOzj//wpC3dDuYOWByrzoL+SweinyrQuilO6x1LFVsHmTWVci/jtU8iKt+OoVPANjMSdHCpqqlB8HgaChRTqNjZSXRBd1jfQy2unTRfKHbTU2U0FPOw95At9B0cjzsqIB65ElEmFivVO6s3NRchj2d4028wOdu53O7AHhuntUnG4HbS4fRzt8jBiLmarYPOGKgKRv0M2ZPN5eC1bTcZg0tPHXk9IJotbFDDuAzhxsA8aGnEqw/R2xR8HOee0h72XK9jsdsDJPnpZg9PdyLcP9pnGZpopd9BSV8CJuG0Y84GPo4fS06zN0Ui93cfRrsyNSWMu8A300reoEecGJyUn+3jFo2aszfj4eK2r1yRbrHKh8bb3vRJaNjjwDfTyStbGu5BRJkd41+ek3u0A0/yevGIvL8GOj6Nxbwg7ZXbwDVgMsATKULs5Axzt6tWF027IlvURnwsM03tAn1RtFWzeYFEmIfrkonrYa0wG5Q5a6pzcT6SSs1CIeU9o0ANh/+cFgWF683phFE5oAQAc6GUgp9KkwOQIr3QZd67pO+QUlUuqyon+NI2pcoe+6MrsGA27B/KmL5PBPBf42JslhR5pNFVvcFKd9waRysBMGt86I4f6+PbGRurX2xnR+zfJ5DmFutvtqCeH4w4em6MKe2AYT6o3j62CxkoF34B5cPp47eAwqt3B/eUxPjc5wrs+QFGwpdKcY41uMZhustMeek+q2OscVKQovpAKPl47kOfWrpBRRg5FWvQKdRudtKy3x/pIDOzcX2dHPXksc14IYUqMHOplb1cvewd8gMqJg72JlXq5gxZ3I3VxJ3M797udbI58VPbXGpWB/nBdmZzFbrNTUqAyPhrP7aSwolhBnfClPGnbyopR8PFu5IJg0sd4oIqSRQqQLpeXJie+6EXK5OgEamUx37ZB+jWPdUgiGBG0cmOGucr1z2PyWBjFgt4O08IoTlgjMsSg1DlpqQsWTMFDoclUMuFhvNhBdQGoJ/voY41Wf6JQSiD8u1Ssd1KPh71nS0yyq9GuXb1food2hrwrkX0Z1o7J1RkxcVWsd1KvRP9esTH609SHUe3pqCqTYXJZfXddNrPk5rCLrYLNG4oZP3gMGkz3ZoqWlaV1ZrwI/saaLES1r93foyqo/hTzQAwvYrLucNN9E9YPU+pL1WKsJteXkf0VrDEjrv3oecfcjjnMZDXGUg/TRd9z5rnb5mjEWTwRPe6VYXr7P0YFLk2arofdvB72HgrwUQC4HKozvJzFfJGQyD6KNeckOVai5gtME725PtMcFjYXhuSJHq9VKAGLOWVyhHd9VdTfXoHt9Ehyir2iRqvsVLzOKq+iukDlRFzlb42tUIHARMzJTykswFKxlzuot4N6MpXFRAE3F4A6EWsSUbh5EWlW7KbJ/4B+E+g/UvKoDLzno7qumBW2ESZNOQwrihXUk8eCE1F0WEO7UYyQRdCtmKYYu1Lp4OaBXnoXNeIsXkOjOszegRJa6qqos/m0AVLuoJFj7O0yfketT5zr1fCBYXfQogzT2+Vh0rjBGyo4FRZ+qYKTfezVJydtYGdIqdsq2LxsnL1dhu9Vk6l+YwWTB0aYxIfnpIqzsoQKfKb2jbBU6t4JpbIRZ8CI40e2Z1Qf3U/hZRTqNpYw2tUbzGWwORpx1jVSd7kvLAemekMjvoFezU1b7qClzsH95cnfEyOH9PssqRh7NPY6p5YPcii1uaNimR0Cw8n1rzEpWk3EifrS4p6zObQ4+81hYydxX0bdq6a6MxGvr1i/Bvp72Wt0UrmDlrpG7r+syTTpGcZX6aCkTIFJkwIuK0YJDNOXyrxg0U/GPZGQgiqcGzRFNoLJiOmKCLu69YXJaQjL1wiOfYW69RXYDqUy7kwu+LjyJv59Qwul3uAY0BYupmqC4yS8jHMjusJWGTjQBxsbqa5zUHHao/VJQwylrjNy1kd93U3YSMoVr09Q7yVImltmB99w7AFtd9Didpr+knF5q1yKvNcLqnAadeidk7YBMalGLazATn2Y3M7YoYEY2BxVmmUx3fjS6XF8KFTXmFaD+oIq5E0xkhzNSk5bFGAvyUyYwRx+KYBxr8X3PO2J+J18jFqFUcJuXJVTEyoU3BQqs+gmFMK9RyNnfUCB5mlJN5MjvBL2u0XLNDk6gYqdVSb3oPGbj05lwRTRBwPv+aCgmBW22GWi+gmVgQPhCx1NTn3haiLMKjg9jg8oWJQ9V6dvoJe9KYdnFL6tkJyHsNxBi6FwrMZggr40DJs+0/076TnGiQDYl4VbZvH7UpMZ33jod5n0MR4wjJf0ExX2iJJJG4dKZZVpbtDmkFS9r1b9lDSBYXq79L4zjMR+0z0xOcIrulvfGPtaSFWNyK9QGUhJqadG/N9X77e4oSEjrB1eZsQ7jBo2xrXx68NO/Xp7KHwcb5xc/hgVO2XlSbjig0op3gRlq2BVrKQ5gyklTugDwXyfGINQXx1W19gZSFdChk2hgEivyfQtQVuhtes/daKtQ21BZdqFoH+HcPe6gZqZMIOqMgn6RBjQXGmLIgvF2B2R6i48/eY1WxiG5RbXozQNrF2nJsENN1ixHZtHZdLCi5ISen8G0b9zyp4kK5cgqXd5fqJ53hIXq8JZB/giF5bJEmsBoS0AqosVbCSrAHVDxW7y7tjslBSA770MJZXFCFuZe2LEO8wqexVl5TBymtRDHEBorlanPb3YFmmz8KXIiiLGgebpzdy4TxmbQgGJQtbafatUNtJisZMhfIxreWabNzhw2sE30Jf0fJJAsSc3QU3JbWNi0q+CXVshh/9GcdzmkyP0nSzGWWly9yaFFqOxW7n3DWvw8hS+RJbQ8gCMQWinzK5y4mD0pBC1lTCnWLnMLFxUyaB7VexhA8PH0QxtP9OUenjMzWp7keYG08Mk2Ckp8PFuWl2rKh+lcl/qSj0sbpty+Cef0cZxQt0eGKb3vZtw1jnY7Mjl9jQNba7TvID1+jX1ZF9mxqpl+MFia6eey1S9zA6nfVQs0+6b/NwJlOI4yFOSzqdYdFNwUVaQVK6Z1j/xFXuGk+YMwpWV6Y3yEuzEjtsb8aHUrHZ9pR0VE82w5adErOz1Hyxl68mwDpfZgRLsvmFeM8urK77kboJsoS/QEuyqSAZj50XyCWnTwXCdxgkxGZwe5sTtjZSUKdgohqla61YsugnFyoKJg2b1pHtxkU9o1m910EsSh9MeLf+jMhRbnn47ehJuShaqESbL0qJbN1ROWIXGwjDyd7RQXZndx7sp5jtYhk3R59QU56HJywGCoTVT52pJ1qFxENsgzCWROVr6HBIkjmEZia2Czcbi/HIVLXVrqBuNk79imifixti1w2YSTGrlVVRP1zrRt62FbzVLZiuLHqe1VyXYIhHRnGc4GLsIUu7QLLP+9CuMkbM+KKjCYcTmrVyklz8Oj3/GzPzW67NrdfjORg5azV2vVDYmzgUwrN9lFim6aUW7mc1xxFiZwUkRFkvOJPpkZcoDiHlokb5gVCo1az7+YjgFgoM7tUVR2ORo1BPjfkob+j1cUmbVij6hBe81O/dPUx5tXEXkHsRg0tPHUZ+WqJdqjowxfhvDcij0+G5CpRlN1vIXIucUy4x1ndPj2pzodmA35wCkgDYvheZim6ORekUNU1+TlwNhv5l2uFCkLMOcCChUN1SExrm+Jdo8DoLz+EZTOSN5bgryTxs9X8J+u9G+VfjRyHdyJNiyF0qW6/OocNrDUZ9C9YbYuWmaYfoxk8S12OMcNhNZmW/62cgjh3phvTPKRZXIXWHEhyKzOuPj47Uuj3YAjtu4NpVtEkliWAxG3DswTG/XOA63I1TGCC0EY+Oa27rMXCZY3zAnbrdTjfWZAZOePnoxtWcQlecQiuGE+iET2eXaPssSczs+D70nq3AWp1bTpOcYJ4obw+4Tg1QtoajFRdC9H+qDkUPab+B06y7swDC9Azdpcdso2TQPkj0ZCz8edvPvMcWwymkPR5c5qQ9uPdOSjG7eYHE/pYvJEV4ZuImWOlOYJOhdibwHNHmYjjynx/HVJe+xMw7yqK5zsnlRCm554xS/DZHhn1THiY/XBnzh/WOQqhcqaqGmBMdEcN6MmlO0OO2J2xspsZBNy99hSosVIPqe83nY26+weUNx3DLR80AoKzw47rAaBz5e6+qjLqycNo+nNvyiFzzV5u+Qgjd44ICHm03zhS+4W8hU7LSHvTii74OIraF2VE4cDN0TxlwUecocYMpz08rHfB675d7oqEK5OJJUMO93znXMMNvE2hue0S1vSWOxVzslTCci5vUJXXnEFLfY5YRY82WGt7wlLZ7FHnNhJhA9b8RwxRtJcwlOmtOT5lI+aU6YFhXrtT2eibaV2ByNtMyqU5oi41UR13U3VG5QqNuon4Ev4yF7BF2UiU4sywNMiVBW1wOXc7hIN47mzUAocjrMvjks/VSsb4w6STWGK17bsJ+I8POThcxichdlLXks34h2dQXJ1TnUZpdo3p+FPTsJhvHSufU1E0SG5IKoYYeVZJNQOCqDoUghc9gqWGXhqYzpihcEQRAEYeaR5ENgBEEQBEGYCYhiFwRBEIRZhCh2QRAEQZhFiGIXBEEQhFmEKHZBEARBmEWIYhcEQRCEWYQodkEQBEGYRSSn2L+8i7euuEJ/n1biTvypzLN2Ln/uXsCLa63edLP8pWNs2LMt21LFYTvdXi9D3n468qID04/72r3h98rnS1P4tNE/xt9+diQsO3v7Mh6/+PU3+fNPb0h7ne93f5P3u+fzi7TWLAhCNkms2L+q5I2rSxn7ZjffW6j/3XiSriwIF5859D61ADxf8OgRq/dLuakQAhfG0tDWNu7sOcadj6WhqgTs6PYy1P8czZlvKv18eRdPfwaeb5nulQXnUqigHVdNDatratidrTOz2/fHWRxoi4fuduvr/R25+5V+fuBzcNyYNuX+o58uYNN3r7HPdZXbXF/w87TUKghCLoj/PHbAff3vUOZ+wPN55bS/gRd/+w2W/+UzbvvfMQ7Ou2cpC4ErH6ZhCXLPUhaicu7MdCtqx1UTpSVmDduuLYX5b/KT9BqSMZjdfZmQI9f5/vJrvP/gfF5c+3mMxW2y3MDdlXPxez4VhS4Is4CE6rr0y/w7fP9HP53PXYXX2Pf0lzHLFNRXUcAYEy9Mvz2trosE3ph+XbMXheLYP4eQCV78gn1/mctdj87lR7mWRRCEvCGhxZ6Ypbxy5S5Kg69VPN963WS1Kfzm03upmvc698y5lbeuLo1RLlmSsy4WLlbAP8yVuHVt486eJpaYZB/5dSNn3rB6T+HOnmOhj471cPCpnUnKvJ1ur4uy4OtRumseMsWPI9+vZYvXyxb9ld/zDA2tnaHq2vcz1BQqzVg3q13tpveguwdcTWV6W0Os9rooQ2VwVwOtKTkxtN/Pcd3U3De72ZwzD06ivjRopqO/jVrzulQdZHfDE3SihTxcoZuW2q1ehrZGl5u6XIT/LjqR7Y721ODabpK6o58tVSfY3TCBy1Rf1D2g8/MDn3PfUwt46NGr/MeLKQksCMIsxVqxf3mXSQED3MrTV27laf1VcGL/qpI3PrkVvvE635unxUTd1+7l6U9cvBIx+Suf3ctbnOPAwm52Ats+d7Hxs0rcqcbr186huhAufBjv2TVuCmzA5DkCsYo89jIbnKWc713DQd2qL/hZHw1Pv0zgjYc5z07ebtqJloT3FBWTqSjySEJu4+aOfrY4Yr+/o9uLqyi2YtE+f4HumhpdmWkKbKgbkxIpw7VukN01Q7i897K+/16Gdz3DxR+3UbtpO3Ql68LWF23z3+R7N+qx8i/v4q2rLt74xuvcM0/Vfu/PTNrz+l289YXxYqqLt3gk6kuNHd1t1DLI7hrrftzh0vuvfT9DTYunsOAx00xHv4syC0UeXqaN2ovdrDZCCO7n6N/qpZtw5Y5SyxavpvRXbzdkbKXD3Rkt45EvOfEoVN9yAyDPcxIEIZYrfs6bweSnA/OBuR/w64WhhChDYW/74lYt/j4vlOjUNe9NPHOh9FpENvTcD/j1wjcxVOPYHBWu32yy9JNk+RwKuYY3rnWSKHFuG3fqSv3toKvezZIqBfwXI6x8ra7zx6eq1NPJdlwOhdEes4XaSevhUShdHWa1jh42FJpC4cXXp6S03NdupZRzHDAnwM15kwPzQbm2FDfQNe91/b54Hc9cYH7o3vnewnQr9WRpprgIuDiRotU9VUopUsB/MU6iZvtGapVRus2Kv+sJDo1B2artEYVVBneZlP2pi/hRKFphVfFXjF+Cwso5U3fHr51DdeF1ThyVhYEgzAam4YrXYqrqvHMRFrfKn+apOK4p2sRvXJ6jhpXrmvc6XVNo/UfJWCaJEuceW6W52J3H2OA0Xbdyr6ctcS4NuIspAgqbvAw1Rb6pUuwO/X/xVOiduAonDqVfKjD/AyKXNDvnnWPj1SksyrJGJ62HNzLU5GLI65qiaz0V2un23MsWRxtD3jZLF3zz0sWAgsvrxRX5cbWYZjDJd4GJsMHyBA2Z2Iaydi5/fmoBhf7P+ZXrc/4jA00IgpB90hBjzy7/8eFX/GuCMkbi3EiMxLklK0vB76H/h0/GdtWH1ZVfiXORcdkwvsaJ4mFsf0hzY7ufo3+rkbMQKx4/fTpbGzTF3L4/zoIic+1z6avUFfOR63z/yFX9PIhv8tCrV3FKnF4QZjzTSIFSmZgTcsmGUPjBNSXKQk8bZ77EzzxqHk1QLsqlPjW0JLz01DVtuia4CBQtzc7+6bE5Knzxd0Qe8bPt2lKY+xHpOCEg43Q9QUNNDat3DeKnjNVTWPhE9be7mCJUho9Y+AC2P8TqmhpW94yCUk2DPjg6z10AFpu8KuniBkq+Df4L03CjH/mSE35YfEtO4iaCIKSZaeU275x3Dq7fyuPXQslT7mt34biu4pmfysEkKaBPQstXJsJ+WTYAAA8USURBVBC9sIiFxv/3PEvDS89SoL88f3wMCh1UJHHgzJULanhdGWb0ohqmEMJpp9ujUuhoszg0Jf10zf0rKkvZaD497su72PgFjC3Ih0OKUmBFEYURIQogGL+uWmu1WDL6e6PJym6m48e1FKon6I/TAZrr3eRS336AQVWhdmu80/SmQFLJpIIgfJ2Ynit+zpt871uVvPHJvbz1mXHxHAdMSXLp5yv+ePI6dznmxTyYI/DLw5zvaTJtTxvj7aaHQ273Fx6m/5Y+GiJj7Bbu+cAvX2DkpadMdZm3xCWJ7g4uDF4IxVojtzF1tjZQ1u3FZdp+ZS7T2doAHf1siYyzx83IniI3nOSehSqvXInMdO/OTFJcMv2UVF9abD2LtdWv6wkaVuxnqEmPj0OYCz3Y3+bYeGRfR8kE0W73TrSq2qLi7HFDKwn4xUYtRv7v4kIXBEHnhsqqshm41L+BF397I3dd+ozb4hxSIwizmkfn8/6DN/DmnumfPPfib2+k+uSnfD/WSY6CIMwY8uqg2OT5ikdf/Bz/d7/B+7+eoV9BEKbD2rn8+cF5+GM+KyEV9C1zjnny8BdBmAXMXK145Drf3/M5/u/Oi/F0N0GYvfxi4wLwpM/C/vnTn/Kmfx6b5OlugjDjmaGueEEQBEEQrJi5FrsgCIIgCFFYZsUXfCvbYqSHhd/MtQSCkDmuXE1vfYFP0lufIAj5gaViX3Pb3GzLkRZWrhAHhDB7OX4qvTtA3vBcT1xIEIQZh6ViX7hwLt6TXxH4JH/C7x9/fC1hGZmoBEEQhK87YuIKgiAIwixCFLsgCIIgzCJEsQuCIAjCLEIUe1bYTrfXy1DwL80PAolkayE7/lAc+nthQSZbi+LRVb30rGqxfK+5o1/rg+4pHo6eVtayrb6XZ76Tq/bt3O92cn95/FIV6520rLdnRyRBEGY8otizQjuumhpW19Sw26NmvrldfnbcN8GO+z7keJafN3t32e9oumWUnnf3Tq0C93P0e71ZeXodHGHnqVGW1+RGudscVdgDw3hOxytUwSq7ygmvL6W6Yy0GKtY7adlYgS1FWZOm3EGLe+pt2ByNlp+1ORppcTuoSIeMkRgyG39TkD37cmuLwjC5ZfEn6Ezv6W6CYOY7e9hSDseOPkWsh411tjZg8RTz3PG3p9h9+ndsqdnDo/8vttzpR2FFsYI64WMyTilbWTFKYIJT8QrlBXbudzuw+4Y5EbBTnWtxksVWwea6Ak4c7GVgEozv4VyvsvdQaoup7OLjta5e02tN7pb1njyXW8gGYrELaaKFZ2rKCJz+DTuz7CWYLn8c/Q3HrpTRFCN8kBHKq6gu8PFuXA+OHUelgu+9kbjKP/co1G10wEDvzFMqkyO80tWnK3UAH56TKthLMuMdyBgzVW4hE8xIi31HtxdXqfHK6jnbkc/jjijjfo7+rdUM7+qAH7dRq+jXLZ5p3tzRzxaHYrpi0V77foaaTE//Nj3POzWa6eg3yRPrGeLpYmshO/7B9N2ufMRvN15hzFxm00K2/uRmCqI+rHL4Pj9/NF5+ZzXLGaVn1PpRY5H9GPkc+sj3C8OeNx/5bPN4/aS9VzXczXCVi1pFa6uDVq1+y+fWH2HnKRc9Nf+DbWf2Wi9MjN84Tc+9r1hmB5+HkXiFykuw4+NoPFf9dLBVsHlDFYGBXl4LtqFZfgUn+3jFo2JzNOKshBMHzcov8rMqAwd6LRrIFAp1GxupVsOt04r1TuqVYXoPjDBZ7qClzo4v7LtB5PeLTQHftkF6V1RZkDvwcZ4vAoVsMMMs9mY6+r24Skfp1mPWq2s6YNNzNBtF3M/R73VR5HlGf7+G3R6o3RoZt1Wo3dpG0WG9np5RKHWFl2nfzxYHDO6qCda1uiZc0TZ39DPUtNhU5hkGqWVLygly2+n2tlE1HJJ7dc8Farf20+GeWm/Fo/RXNnb8w3yO/2YiFI/nZv75D4XcbRTSlTreD/UyExz+b4hS6sCjt5TBlUvE0kGdrQ369+pmNN77uwbxA6M95j43K/Xk+qnQ4aLosJbTUFjVSmvR6/pvfK91f/5tiDMsZNHC5PtwytgqWGUH39l41q1C3e128I3HV/4ZZtIzjA+FkjIl7LoWIkiQH5BLTg9zIgD2ZRFxZ32xFM9TYitUgACXcqEhpyq3rYLGGeHdEbLBjLLYmztaqVVUBneZJ/pOWl0hy2/HploK1UF2m6zBztYOGvrbqF21HQhp7tGeGlxGcvb2IUabyiha2gy6rd28dDFwgYmYFvN2XA4Fv+cZk7LvpPXff0D/1lpWtwNJJn83d9xLWYTcbD/A4Lo2qtY2Q1c6I9MLWF9zIwHvh+zbZ1y7zr6XPqL0JzdTsdXPH3cBpXMp4FOOD4RO9PvjCZV1fz+fxZuA4GfXUqxAwHckTNlngsT9pF9TB+neDnQACgz/ezus2B+n5lEuX4E1t7TA3ywS/7Y/xOo0JfIbSrEvbtKcnZIClRP903Bt2x20WC1iAqlU4mPUB/WVVVR4DA+DFiJQT8bPD5gyBVU43VUWb6QiuMqpCZXqyirqbD7d22AsluJ4Ssod1NtBPTmc+oIq63LreQ3GS5+HV/J1oSVklRml2MuKFFAH6Y+paJspLgL/8J8i3OCd9A+3UltVTEhtJ6az9XVcXhcurxeXlVvcXUwRKsNHImrs+hPDP66lamnyrZUVKaDUssXrZUvkm0WlVh+ZOpvmczOfMjYQcQTvvk8Z+yGULpkLXIex6wRQKK2bC/u0sndXK3DlI97eZ/5gWXYsXZLpJz2QcHGCTtA9OfriLCuZ9olITilW1FShBIanlzTni06k0ty+qVUz4h1mlb2KsnIYOU0oRJCpHR4B3S1tumSEBFJh0jOMr9KheRsm1cSLJVsFm+vsEBimbyrfLetyhyfQVax30uL2cbQrQYhHmPXMKMWefdpx1bQTjOlu9TK0NcLSTydTjs1niH1f8NFPoKTmFnb8wbiocvi+iDi8bu0uyZZccfup2fJqsgQCVoGCNJKUUrRTZgffQJ64VSd9jAeqqF5mh9M+KpbZUU/2zQDloXsbiu3YPCqUFaP4hsNzBQz0nAEFH0cP5LrfU5DbxMghD2VuB6scCiPZ2FYr5C0zKsY+elEFpciUFBdJJxMXobDqBxHTezMNVUrQikudTlob9Pi5CmWrdK3eNcFFFM0FbMb9A6oUuHgu+dYSf7c0su8LPuJGzRI3s+lGShfCR+c167z0VwolVz7it/dNBGPsOyJi6xpHmFChwL42FJ/PEJnrJ83rcD5gnfyXLrSkuQRxc135j+aNW1Vl4D2fnnFtp8yeKJs/fxjxDqMWFLPCprCimBjnAdi531DqeWLtJie3NYHLM+O3ETLHjFLsna2vM0oZrn5TshzNdHSHXu94dxSUWlo7TCWM2Py+6fpiSylSwH/RsFfbGRqDQkerKSGrmY4fa3H+VA5Xs/5usdnR7Z3GCW6fM/LfUFBzM5s2GdfmsumHN1Nw5SMO7TIVXTiXv0uixhc/HIWF1aydrku+a4KLmBZPEaTaT0nzndUs5wqXY23Va9+v9fd02k3qsBktnjqlGG+qTKoEgIJFhm8+ImZr5vQ4PuzUux3Yc5zQByqXVEBRggfCVKx3Um8l+KSP8YBC9YZGqrE6D0DbqmfPilJPp9yR6N8jnxMahawxw1zx7bhqxujobzPFWLXYd9A23v4Qq089R//WNoa8bfrFyO1SyRG+rU4jcpvWDlcNox39bNHd9ED0lij3c/RvraUweEHR4/bm+tpx1UC31xURP7ba8qblEsSi9Fc2/rnmxtCFhYt1V/qnHP/NJPv2wR8fm+Cvv7Lxzz8pZuVP9HL/fYEdj30e/NjYv37E8QO3sO4PCusi2hj/vxM8b14A/G2IM7hYs7wFLE6di+pLh/H7RP427bh2FdO/1cWQ16VfM5dJpZ+SZS3bVpTBh92x9+CfuoifMgqVahrc0DmFdpI6bEaPp46PZsPq8vHagI+WukZaKgFUThzs46OGRkosynpOqtrWN4uFiRZLNgfvQ4lk0Vu3po/hdjbaUE/20etfg7M4sqTmbaius1tmjNsca6guALBT73ZSb37TIkchX+RG3xYX9omTfeydIZ4UIbPcUFlVFvXQ9f95z4IZ+Tx2Ib3c/UIx62zRe9vvfqGYdX8fveWN7+yhp2YJx47+rxl1SM3dZb9jS/l5ehKcPKctTqa6gEhuH3LYnuZUm8gwNkcjzuKJvJQtLuUOWurIGzd70sxUuYWcM6Nc8UI2mctiywOz9etXrvPXyLf+9hQ9Hy5kTf3v2JalLPlp8509bClfyBlvguNk3c+xvhQYe31qXoEk9k8Hk+bycS9yuUOz1vvzULZ46JnuvoEZphxnqtxCXiAWuxCHBTz+h8XRbtkIl30kj67qpYlumqb6IJissZZt9VtYdMpJ299ilQmdYhgZhvk6EIoBq9Gnz+Ux5tBAJkIBmWKmyi3kF6LYBUEQBGEWMcOS54SZyLfmfSvXIkTxybVPci2CIAhCRhDFLmSc2xbdnmsRovBcGMy1CIIgCBnB0hUvCIIgCMLMRLLiBUEQBGEWIYpdEARBEGYRotgFQRAEYRYRO3lu7Vz+/NQCCgG/51O+/78lFC8IgiAI+U5si/3Idb7vusptez4Hx430PppFqQRBEARBmBKJXfFHrvOHv8DyleK1FwRBEIR8R7S1IAiCIMwi0qTYt9Pt9TLk3Z/yo1EFQRAEQUgfYrELgiAIwiwiuZPnHp3P+w/ewJt7PufRI1mQShAEQRCEKZHCkbJz6O3+Bsu5xj7XF/w8s3IJgiAIgjAFknoIzI9+uoB/dXzFPtdVnJmWSBAEQRCEKZNUjL1s8Vz4y3Wx0gVBEAQhz0lzVnw/He701CgIgiAIQuqkSbGPcVEFUKha25yeKgVBEARBSJk0KfZOWg+PpqcqQRAEQRCmTBKKfQ413wX/hXjJ8810rCsDRjnU2pku2QRBEARBSJGknu7GXz7jthhPd9vR7cVVCqiD7K55AlHrgiAIgpA7UtjHLgiCIAhCviNHygqCIAjCLEIUuyAIgiDMIkSxC4IgCMIsQhS7IAiCIMwiRLELgiAIwixCFLsgCIIgzCJEsQuCIAjCLEIUuyAIgiDMIkSxC4IgCMIsQhS7IAiCIMwi/j+SqU5bDyC7AQAAAABJRU5ErkJggg==;imageBorder=default;" vertex="1" parent="1">
                    <mxGeometry x="2354.36" y="540" width="321.28" height="80" as="geometry"/>
                </mxCell>
                <mxCell id="77" style="edgeStyle=none;html=1;strokeColor=#FFFFFF;fontColor=#CC0066;entryX=0.313;entryY=-0.012;entryDx=0;entryDy=0;entryPerimeter=0;" edge="1" parent="1" source="75" target="76">
                    <mxGeometry relative="1" as="geometry">
                        <mxPoint x="2820" y="520" as="targetPoint"/>
                    </mxGeometry>
                </mxCell>
                <mxCell id="75" value="&lt;span style=&quot;font-size: 16px;&quot;&gt;Lấy chỉ mục (index) không lấy đối tượng&lt;/span&gt;" style="text;html=1;strokeColor=none;fillColor=none;align=center;verticalAlign=middle;whiteSpace=wrap;rounded=0;fontColor=#CC0066;" vertex="1" parent="1">
                    <mxGeometry x="2740" y="335" width="170" height="40" as="geometry"/>
                </mxCell>
                <mxCell id="76" value="" style="shape=image;verticalLabelPosition=bottom;labelBackgroundColor=default;verticalAlign=top;aspect=fixed;imageAspect=0;image=data:image/png,iVBORw0KGgoAAAANSUhEUgAAAR4AAACDCAYAAABbRnT/AAAX+UlEQVR4nO2dX3AUVb7HP5CAaKYjOEEZkr1uQkwm/oEpZSBWNmKM1krd2oER9+HWZtHEjet9U8AXbyHhWrsvovK2rrmCxmztw8oOyT7AvSoRs9QGBq2J/xIiJu4uYWAhiumJ/EvgPvT86UzmX2Z6Ov9+n6pUZbpPnz490+fbvz+nz5lXbi+5jiAIgonMn+oGCIIw9xDhEQTBdER4BEEwHREeQRBMR4RHEATTEeERBMF0RHgEQTAdER5BEExHhEcQBNMR4REEwXREeARBMB0RHkEQTEeERxAE0xHhmU2UOqmvc/G4U5nqlghCQnKzVbHVWYOrcJD2/X0MxS1UxuPrCzl1oIOuuIXmGjYerXNiC3/2c6TVS1/Csn6OHPielZU2/F3tHDyZpaaVOqmvtEGgN/HvOim0a7Cc6OBdr2pIjcL0J0vCY8NZruDvSnxzljnsKH6vTnQUKjfWUGGZWHZChwp1gnABL3s/8Ic/Wp01uMqjnvxRZVK9lvFCEKNN1jIeX29HiRaJtITVz8HWdt01xCkWPCcnOmhnNa71FnoOtIuACzOC7AhPaZH2FE745LVRYgN/VwwhSCIQWocMcKS1PdjJNXGor406Tv9ktpbx+PoYZZISJQQJrDg1YKGkFPqyZXHoGerj3daQxHWw12vCOU962WvGtQmznizEeBQq77ahnuiN4x5oWJ12bIFevJO9ka1l1JQr+Lv07oefgwd6UW1OHi2Nc9xQH5/6AUXBOslTpkpgcBDL3WVZq18QZgvGWzxWG0UWlVP9ifx1hTsKFdRB/6TjBNaSQhT8fBotWEN+TgXsFC1RgCmKFXzn51Thau6w9jGUdZdnogsYcUeDLisTYzERazFe3CgGSdzaSBk40nqKEl271Bixm7JaF1VRvuuEXyzROeO4tiH3OtY5hemF4cJT5rCjBHr5KlHHK7VTYVHpSShOsbHmKxAYjCtYSr6FmMJT6qTKBuqJyYtd6qh0fR6g3mGja9KxpMmgULmxiP7Wdg4Gt1idNbgqa6j8roOuIZWuz/1UVBZGiWBQ8E8cT110QOdihQQtHjaq6rRY08GhkBCsprI/FOPSCWJrSBCDwWVdLRNdae24sJs81Me7B+Dx9Xaqam30feAPW8IiOjMDg4UnFLdJElS+3QbjgsrR1Tipr9NvSJTZCaHybfT9ZrHjqrOH95sSfD15Cn9lEWX4J9e5J4VK1/7xQZ2h/kHUcjuLlwBDoXY4qdCLYAaCn2q7enSB9AltCp3/QKL7I5SY6NB9fyEh1X2vQ32823Uz9ZVOHi3t4MLdWqJir4jOjMBQ4bE67cmDytYyVsYLKodIK/ukcEu0lxUKLgdN84qsWyIAfvr9TlY6Ffr6s3iaaFckSEDXDu8JFVd5pLMmFfwsY11igcBgYmvYqmABlEoX9ZXRO1VusUJYtU56aV+iWXo2/BzZn+3fVjAKA4UnNTPeWlKIEuilI83syNCwCrab0d9/GhYWW0AdDMQ4qI+OE4W4yu1UWv1Z73h9vl5WVtuwZkt4gqIzzq0Ipdd1hCwOLdNmo8Sm0nNgZnTOVMcjWfNDQyYs40VJmNYYl9XKclA5xFD/ICo2SqKzV6VF2Ih//iFvL34UKhyxRuQYzJCfUxRyx5LsVG9dYgH8fJrMrQhm8my327Tvx9879eN8LDePz/oFLZwwQyoBwLIk+ehrq7OGKpvmQh/xK1RUS0ZxpmCY8GiDAZPc2KV2KiwpdJhEhDpTpZOy8EYbj1baUE8cT3B+P/1+wGanMut3pxZkLrr95qzUPvRdgPATHnRZnon0/d2vxcwqbfj/PrXWTuihsTL0SkfMdmsuolJeE39oRPBYLZis/eZ9H3jxW+y4ak14sAgZY5CrlWAwoI5QjCHToGvfB+1Q66KqzkVVcFsq2Yw+Xy8rbXaKShQYSlX8otPWkYB1Qnfg5CkClU5sk03tT+iMSvg6w9d40suR211UrXcFM0wqPQe8LF7vjNGOXnrutlFBGmOmQk2KHgVuCQX/xweTkxIOCNdQXw5a0qCDWzbWUKQv5u2gnRpc0XGeUOxP/+pG+Df3c7DLT31lOoNEBbOZZ8QSximNDQl2qEA23yUSYqCloosGJc0sTB8McLVCQeUkI5WDQeV0n7pCepTVauNmOkR0hGmEIRaPMN3QuYeGvkkuCMYgwiMIgunIRGCCIJiOCI8gCKYjwiMIgumI8AiCYDoiPIIgmI4IjyAIpiPCIwiC6RgvPNfW8vGIO/J3qZy65Edln3U5/M2zkD3rYu2sY8U7x1m/e7vZrUrADjw+H92+Tpoz/ALrRh/Wfosry41pWkw209zpo9sX+kvc7s3NnVo5z44stmma0rCAL97O4Umj6/TcyBeeG2lvMLLi7GCs8Fwv58OLyxm40cN9ecG/RSdoNfQk6TCf9mcXgvcqDYdj7S/m5nwInBsw4FzbubftOPc+ZUBVM4oWGqsdrHI4WNWWzRnQ9ATFLo54NXli72vy+OjufIPN2W5ePPaMcpSFPG+U+KzL4W8/y+Xrv1zkLvdFXHuMqDS7GDoDYd3Yj1ByvuR/ppUDN489b9/Aim8uc9dv4wzSfnA5ecDIGQMk8sHl5KFy+utMK9qJ27Ez8/YArbnv05q1pRvTo6WxmpapbsSUcZ2GJy7T7rmBX79wibfi3Zcp8mRVDvnDV/j9DBCcEIZKRPG16bd07pMvLGBt/ij7nrsWt4ylyo6FAQbfzPx8Wl3nCXyYeV3CbOYarr+Mku9cEMf9n92Y/BxczrsjaykOf1bx3vQ+z8wLfVZ4/dLD2HPf58H5d/LxxeVxyqXKPB4oz2HYe4kXE5TKW6rAcC8jCevazr1tG7hN1/a+12r4+sNY+xTubTseOXSgjQPPvpRim3fg8bkpCX/ux+N4jKYUj9ZTN/owz12OPAzUG97nwdzxb6lvv+JmI0e5L/dHBnzfydnc3MlW3druw95XqW6MYfvs/DPdG0rGbepvc+DeAdS9Qee2NeSHdihuun3uieVSbxXNnVtYo39uqsd4pfrp8VZZdJsGPKxy74zaDx7Hfgr19UWXC7FnlKPrFrF243w4HP/BOBvJXHiurdXdsAB38tzInTwX/DRwo4fH56PFf364E254n/uCN3/d6MM894Obd0NlgiiXH+ZjTrM/z8NLBDvH5XLqJhsvWjefinw4dyaRKVuHxQoMnSbGbM0aT/2J9a5izrav5kDQKrL8VwfVz/2JwIc/5ywv8cmGl9CC1M9SNjQZoYkm4mJpnTTNatC7WJrgF8QreHUtH1/7ktfyjtIaFH9nOt93CkRcLE1gY7ap7g06N5TEF5DWp6luhbBgnI/TsVOkybOFNRzjFcfTcd0/7bc4h8fhCD4EtHN3e4g6dwlu3xaGva+yqrElKJJuPDt3xriW63x0Yoy15fN4Engr7SuYeWTuas0/Gg4k718A5HzJa3mR4HJIULZfvVOL/+ieuK25R/HmQPFoVLYlR+sEoa47MF+FscU6SylFVswnn1F8CX3fZIHl7dwbFJ1Pwq5YHbfZFRg+H2UlaXWd/Sxd0Zkicr7ktbDIqPw1N83v2yjuKCAflfNfmXGyzRQWAOcHE8ScduB2KvS36S3PFhoP9UPxqgnWaH+bI2LFtQ5yHihYHjuU/daZ65CfwwNpu1tBq/7EtRklXCa5WgqF10DNPR31BNVucueoQh1E9s1Xx5VLNzj65LJ5QJLAXbLA8lMrNRfKdZz1Lt32WO6TYYHlOc6O/Rx7aAtrtvno3paO6zQZWmg8tJHuDUF3LZaLVVdIAZC/wUf3hujjVQrH3bzRgmlckmA889jz9iLW5o9xdPdF7o+ZrZ2+TLNch7G8deY6zycpEwos98UJLN92TzEMe+n85X/Gd8XG1SWB5cxpobFa6/pNHh/uYIePGw/KlB2PsUoXO9rq87E1RmwtewJ4nVOTFo7rNDxxEU2AbuSLjZe5K0ECZbphUuJbZXA+KKPLowYTKvxkVJlg4RjG19cYJhdHsgFVE1ym9NCC1MbUJWg0ubWxQZ4ByLf/ZPJjbwoKo47RXKvh3r9OdK1an6ba4WDVrmMMU8KqkKGSxF3KhCeXzYPha6Q/8kmLE3HLPGMHJGYZ00bcvJR7Gsbu5FejkdRB3ehanGMq3gWns3PSw9foGYYV9yS5zPwC8kL/P/g7qt/5XXitp7OfDUC+k7IUBgSOnFPH1yUYRLw4TAuD54kZZwFo2neMYWUN+tjv5uZG1igqvYcTWE4TYkw78XhV8p1b8BjqNWnxGb69PqPiM0Zgnqs1/yj33VTOhz88zMeXQxtPs18XRDaeYNbAmcuedVdijloO/OYQZ9s26NLfA3yy4ecRt+rNn9O5rIPq6BhPDPcr8Js36XvnWV1d+pR7ikSnilFw+3y4mbyrsf2Km41XdRsuh777bHzv0cMACMdo9OnkJo8Ptz5q7dxCt28L+mED0Sl3IG5Kusn9KoWdW8LfEehcotanqeYNOrfpYzPRLtTEdoPKsV3VNOrM8JbGamjuZGt0nCdeqjwVGnK1GM2emeMiGcUcmHM5GIT7dmb5wMJsZz7tnhtY6r3E/ZmOXH5hIc+Xj/HyE2MzxnKaVi83ZIfrNOy5wvCPb+CL1+bA5QozgOBrPMNX+H2GogOhlPxCHpsBL4eGmBs98fAY9+++wvCPc+fk8HRhmtGQy1quGGeh7LnKy94xVvxs5rydPgdcLUEQphtzw+IRBGFakXFWy3KTEc0wn7wbp7oFwlxj5KJxdQV+MK6uqSBj4Vl9V44R7TCde+4QY08wl8++Mi6r+qF3zLC6poKMhScvLwffiesEfpg+oaLvvx9NWmam/3CCMJORx74gCKYjwiMIgumI8AiCYDoiPNOO0LI2ob8/pzXtacpsy6fpvcLI35sLs3m2CTSsbKdtZX3MfcmWwGlY2c4fSqZuRGhZrYv6WlvCMlZnDfUby7Ca1KaZwqyej2dmYtzUpymxa5imXcNADpv2L+OeLJ9OzwMlf2TDsn7a/m9vWsfv+fo4tVVb+QPwi36TZ8KylrHSptJzwJ+gkA1nuYK/q4+hNE5RVuuiKqxrKj0HOuhKpyKAUif1lTYI9NK+P732YC3j8fV2Iq/v+jnS6qUvjapEeISp4dbdbC2F40eeJd7MtEmXwBn5b37h202b4xm2nz3MSyZOhGQtKUQJDPJVoh5cWoQNP0dOTr7+sloXVUov7a2aSFidNbjW18CkxcfGo3VObP5eegI2KibflEg96+0Eutp59ySAQuXGGqo2ljGUhpCJqyVMAfW86ighcPL1zMXiX8/SdiaP1Y4XecCQtqVC0JL5PFGHU6i824Z6onfyFkGpkyqbSk9npP4h73F6AgoVjsSu3YQ2bHRCVzt7P0hkmaWCn4Ot7RwMi6hK1+d+sBRyRxp+5Ky3eMbP/zJxnpWJ87FElal7g85tFfTuaoZfJ16yZOI8MjHOF71ESqw5flMiekmWWNdmINvyafqp7tpGLvD2xhHGTZG/KY9tzywOT6IWQeXQI8N8FPp46ypW0E9bHPco5SVwgmgu12o23gof/StWidBvnP5SQeNIxZKx2iiyqJzqVxMUinPoEgtEW1NWG0UWwFJEGf4UxUyla3/7pM8/ORQWL4HJmjyz2OLRlrd1F/fjcQSX1nU0wybd0rV1b9Dpc1PgfTW438ErXm0Cq/EzzSms2baFgkO6JXqL3ePL7PwzW51wbJcjXNcqx3gh2NzcSfeGpboyr3KMNWyddAB5Bx7fFuy9kXavajvHmm2Zr7Mei+KXrTT9dAGfvT5I0yODND1yhs9YzBPv5UesjKDo4DsTLDPIoX/ABNEBGpaVwMi3xOu3LY3VwevypDYl6MhhekfgNosZgWbNksF/KmHnL3PYk7ticbDmK6Cqkb5c6qR+/c182uUHLNwyTSLV1iUWQOXCd5M/dtYKT2iKy2O7opYkcUesi6ZNa8hXj9Gse5q2NDZzTIWSleMzKeMm+t7RTT/j5+DdvHwpcI7BuBaHtkTKsLdZJ0YtNP4+an7flK7tYUqi2s2O/RxTFezrjJ4XeCG1jkUEfBfYty+0bYx971wggELZtuCm4hwsXGKgKzIi/KMeFVjA0k36+tZRqEDAf3icGGXGYQZVsNjWxXG3duJ2OFhlhLUTtGR6fImDyiU2krhi8VC4RWdYWp011N/9Pe1pBnGzhrWMmnIF/L1pBbxnrfCUFCig9tAZVwjiTfrdQmevGmOS8MS0NL5PPyW4fT66fTEsj7pCCogx12/rX+lVJzeReEmBAoq2GkIk7a65XfkFBq+GtWkBi6MEBYB9lxgYgcW3Bd/VGxgjwCKKKyPv7j1QocDIJT7Zpz+whCUzeFLqVCwZq9OODT/9aQSVQeXboHdWVuvCld/L3nHB2wDfppvZMgwt0Kzg50iasaNZH+Mxj1AaPBh7yfaaUGnHhrLEvqtceAaKHMtoei+0UeXQI1FxIPr5bgTdcs8Gov7TQCsqFkFLJmF6XOGOQgX1xPG0LZShYRXKnaw80cFebyRGpLk2yRZZyjbBLBkqPQfSt8JmrcXTf14FpSBqEm892goFE5dM2Uy1XUmysmQiWmisDsZv9C5b6yDnieEK1f0EuwLnT6d+tuTXZiD7rnIhypIBYNMiivPgwlnNEip+WaFo5AJvPzIYjvE0RcV2NJK5RekQdN8C6S8SkxLBoHJCSyaDoHKIoe8CQHQdmqAliy1lFy1LZst0TBGzWHjCrk+nLpjMZpo9kc9Nn/aDsobGZl2JUGxoX6brmBRToMDw+dDzfifdA5DvbNS5YZtp/rUWZ4ozODcmsa8tPk0eX8IRwIm5Qt8/wOJYzKZwrCaHTb9cjGXkAh/s0hXNy+FHKdS450w/5FWwziiXK28d9jw4G4g3iDA0GjyT4Htq6fEyhx0lzbhHmJO9Wuq8OjLi2epcTUXS2FJ2Kaut0dqQoejArHa1duJ2DNDcuSW4MiSEUs5h22LHY6z66g06t4WWWIGJy5+kxoRlW5iYBm5yO+hv7mRraNkXmJiWT2l5m524HeDxuXXXFrm+8Sn14JpUcSh+2coTjkWRDXlLg67SJT57fYh9++Cjpwb558tWnnimkHueCZb7xzmanroSPmzg+Qt8tn8ZD72n8FDUOU797yD/oxeof3XzNW5Wr6iHTyeOWk5lCRw9DStWYxk5zu9jptIBBjivQokStDhb07BlU7JkQq5YpuKg0rW/AzbW4KqzB7elN0rY6qzBVa4f4mEP1+nv0o/LSUKpMziKWqFivWv8QMQ0RkNnPOfyvz+4cEbOxyMYywNvFvKQdeLYngfeLOShf5uYUufW3bQ5buP4kf/IbBBhqvUEx0+luwxyeCRxgg6mdfJA2q8RzCVmraslmEkOS2OOLQluHxnjn9G7QiOOq/7I9nRdrrwX+UNKI6A30/xQCdDPB2mtvZ5KejwUVE5jpPIcRCwewSAW8qv3llIUvTnKJYumYWU7G/CwIYbLlYyGle3UBl5J+IJo2G2bblnAOY4IjyAIpjOLg8vCTOSm3OTLlvwwOsOXWBBEeITpxV1L7k5axnvumAktEbKJrCQqCILpSFZLEATTEeERBMF0RHgEQTAdY4LL63L427MLyQeGvZe4/7cSNhIEIT7GWDyHx7jffZG7dl8B5yLaGwypVRCEWYqxrtbhMd77BlbcIx6cIAjxEYUQBMF0pkB4QnOjZHmFTEEQpi1i8QiCYDrGj1xuWMAXP5vH0d1XaDB5VVlBEGYGWXplYj7tnhtYwSj73Fd50fgTCIIwgzH8JdEnX1jI887r7HNfxGV05YIgzAoMj/GULM2Bb8bEyhEEIS5TmNXKznK7giBMf6ZAeLQZ/4m1xpQgCHOCKRCeFhoPZXnhNUEQpjUGC898HD+G4XOJEmWZzvgvCMJMx/C30/nmMnfFeTt93Iz/DpnxXxDmKjL1qSAIpiOvTAiCYDoiPIIgmI4IjyAIppNxcPm2pYuNaIcgCHMIsXgEQTAdER5BEExHhEcQBNMR4REEwXREeARBMB0RHkEQTEeERxAE0xHhEQTBdER4BEEwHREeQRBMR4RHEATTEeERBMF0RHgEQTAdER5BEExHhEcQBNMR4REEwXREeARBMB0RHkEQTEeERxAE0xHhEQTBdER4BEEwHREeQRBMJ+Plbc6eu2BEOwRBmEOIxSMIgumI8AiCYDoiPIIgmI4IjyAIpiPCIwiC6fw/SDbgb+JVAQMAAAAASUVORK5CYII=;" vertex="1" parent="1">
                    <mxGeometry x="2750" y="540" width="240.15" height="110" as="geometry"/>
                </mxCell>
                <mxCell id="82" style="edgeStyle=elbowEdgeStyle;html=1;strokeColor=default;fontColor=#CC0066;elbow=vertical;rounded=0;entryX=0.5;entryY=0;entryDx=0;entryDy=0;" edge="1" parent="1" source="78" target="79">
                    <mxGeometry relative="1" as="geometry">
                        <mxPoint x="320" y="1110" as="targetPoint"/>
                        <Array as="points">
                            <mxPoint x="320" y="1060"/>
                            <mxPoint x="140" y="1070"/>
                            <mxPoint x="130" y="1060"/>
                        </Array>
                    </mxGeometry>
                </mxCell>
                <mxCell id="84" style="edgeStyle=elbowEdgeStyle;rounded=0;elbow=vertical;html=1;entryX=0.5;entryY=0;entryDx=0;entryDy=0;strokeColor=default;fontColor=#CC0066;" edge="1" parent="1" source="78" target="83">
                    <mxGeometry relative="1" as="geometry">
                        <Array as="points">
                            <mxPoint x="430" y="1060"/>
                        </Array>
                    </mxGeometry>
                </mxCell>
                <mxCell id="98" style="edgeStyle=elbowEdgeStyle;rounded=0;elbow=vertical;html=1;exitX=0.25;exitY=1;exitDx=0;exitDy=0;entryX=0.5;entryY=0;entryDx=0;entryDy=0;strokeColor=default;fontSize=14;fontColor=#CC0066;" edge="1" parent="1" source="78" target="95">
                    <mxGeometry relative="1" as="geometry"/>
                </mxCell>
                <mxCell id="99" style="edgeStyle=elbowEdgeStyle;rounded=0;elbow=vertical;html=1;exitX=0.5;exitY=1;exitDx=0;exitDy=0;strokeColor=default;fontSize=14;fontColor=#CC0066;" edge="1" parent="1" source="78" target="97">
                    <mxGeometry relative="1" as="geometry"/>
                </mxCell>
                <mxCell id="78" value="&lt;font style=&quot;font-size: 16px;&quot;&gt;MỘT SỐ PHƯƠNG THỨC DUYỆT MẢNG&lt;/font&gt;" style="text;html=1;strokeColor=default;fillColor=none;align=center;verticalAlign=middle;whiteSpace=wrap;rounded=0;" vertex="1" parent="1">
                    <mxGeometry x="310" y="1000" width="780" height="30" as="geometry"/>
                </mxCell>
                <mxCell id="89" style="edgeStyle=elbowEdgeStyle;rounded=0;elbow=vertical;html=1;entryX=0.5;entryY=0;entryDx=0;entryDy=0;strokeColor=default;fontSize=14;fontColor=#CC0066;" edge="1" parent="1" source="79" target="88">
                    <mxGeometry relative="1" as="geometry"/>
                </mxCell>
                <mxCell id="79" value="&lt;span style=&quot;font-size: 16px;&quot;&gt;forEach&lt;/span&gt;" style="text;html=1;strokeColor=default;fillColor=none;align=center;verticalAlign=middle;whiteSpace=wrap;rounded=0;" vertex="1" parent="1">
                    <mxGeometry x="40" y="1100" width="150" height="80" as="geometry"/>
                </mxCell>
                <mxCell id="86" style="edgeStyle=elbowEdgeStyle;rounded=0;elbow=vertical;html=1;entryX=0.5;entryY=0;entryDx=0;entryDy=0;strokeColor=default;fontColor=#CC0066;" edge="1" parent="1" source="83" target="85">
                    <mxGeometry relative="1" as="geometry"/>
                </mxCell>
                <mxCell id="83" value="&lt;span style=&quot;font-size: 16px;&quot;&gt;map ()&lt;/span&gt;" style="text;html=1;strokeColor=default;fillColor=none;align=center;verticalAlign=middle;whiteSpace=wrap;rounded=0;" vertex="1" parent="1">
                    <mxGeometry x="270" y="1100" width="150" height="80" as="geometry"/>
                </mxCell>
                <mxCell id="93" style="edgeStyle=elbowEdgeStyle;rounded=0;elbow=vertical;html=1;entryX=0.614;entryY=0;entryDx=0;entryDy=0;entryPerimeter=0;strokeColor=default;fontSize=14;fontColor=#CC0066;" edge="1" parent="1" source="85" target="91">
                    <mxGeometry relative="1" as="geometry"/>
                </mxCell>
                <mxCell id="85" value="&lt;span style=&quot;font-size: 16px;&quot;&gt;Duyệt mảng =&amp;gt; trả về mảng mới luôn&lt;/span&gt;" style="text;html=1;strokeColor=default;fillColor=none;align=center;verticalAlign=middle;whiteSpace=wrap;rounded=0;" vertex="1" parent="1">
                    <mxGeometry x="270" y="1300" width="150" height="80" as="geometry"/>
                </mxCell>
                <mxCell id="87" value="&lt;font style=&quot;font-size: 14px;&quot;&gt;Nhớ return&lt;/font&gt;" style="text;html=1;strokeColor=none;fillColor=none;align=center;verticalAlign=middle;whiteSpace=wrap;rounded=0;fontColor=#CC0066;rotation=0;" vertex="1" parent="1">
                    <mxGeometry x="310" y="1220" width="80" height="30" as="geometry"/>
                </mxCell>
                <mxCell id="92" style="edgeStyle=elbowEdgeStyle;rounded=0;elbow=vertical;html=1;exitX=0;exitY=0.5;exitDx=0;exitDy=0;strokeColor=default;fontSize=14;fontColor=#CC0066;" edge="1" parent="1" source="88" target="90">
                    <mxGeometry relative="1" as="geometry">
                        <Array as="points">
                            <mxPoint x="-120" y="1340"/>
                            <mxPoint x="-80" y="1340"/>
                            <mxPoint x="-30" y="1330"/>
                        </Array>
                    </mxGeometry>
                </mxCell>
                <mxCell id="88" value="&lt;span style=&quot;font-size: 16px;&quot;&gt;Phải tạo mảng rỗng rồi push vào&lt;/span&gt;" style="text;html=1;strokeColor=default;fillColor=none;align=center;verticalAlign=middle;whiteSpace=wrap;rounded=0;" vertex="1" parent="1">
                    <mxGeometry x="40" y="1300" width="150" height="80" as="geometry"/>
                </mxCell>
                <mxCell id="90" value="&lt;img alt=&quot;&quot; src=&quot;data:image/png;base64,iVBORw0KGgoAAAANSUhEUgAAAX8AAADnCAYAAAD2Blb9AAAgAElEQVR4nO29e3BT1734+8HGvGwpEOTwMKGRAMf+pSA1wQq94JDwaJJzJ9iC08n5zXGdBzHh3LnTSWx3MqeZ1HI7PWcyNZTJ/GaS4pCmrs+ceyYFYXJvkzZASkR+TWySIzlNcXjIKcE8ahGIZPM23D/2lrT31sMP/Nb3M+MZa2tpraWlvb/ru77f71rfCXcX2G4iCIIgpBUZI90BQRAEYfgR4S8IgpCGiPAXBEFIQ0T4C4IgpCETB/KhmUUPsS6vgz27j3AuaaF8/vHRPE6+8z4fxRUysaz0IQpzYldOf7SHd48NpDejg/zV61huaks9JoIgCKOEAQj/ORTdbeL0R6mFXL6jANPplgSCH/JXP0QhbexpHEpBOYdHyoqYE3c9zOGEE1J6M7PoIdbdbYIumcAEIR3ov/BfOI85nObDlFr6HGxz4PRHp1O8NzwCJvzF+/yuJTwMLY1lTCzKM3H6izZy7s5j0cwjnBPpLwjjmn7a/E0s+/Ycwl+0cSRFqZlFBczpaqMl0QQx00ROgsvCCDJzDvNywlwInOZkl4l5NtNI90gQhCGmf5q/KiROBlJp0ooWGe44PWDNPmqCiHC6hV/v06wiFhbx1DL4sLGN27W+A2O5PhHvf0i8WjCWO82HjS36STAc5tzCIp5aNid5md6IfreT2DRmq0R9yl+9juUau5bWb5K/eh3LSTweRp/NTFsepq4Ojp4LQ0eYwrw5zGwJa34/xYTGR3tomaH9bbTfTxmfeR3v87vzBZoxiDezxf2+WlOTOn7xPiClDzmykhOEQaFfwj/fUYCpq42jqaT6wgIKc8Ic1k0Q8QLWtGwdTy1TX2gefkWgnebDxvdVoaI89E+VGm3Rc1heNofwF+/z65aw6mAu4pGF/XMc569eCt49/DpS8cIinlr2EI+c19aj+g+6tH6KOTyyeg5HtMJ1ThFPmdrY09jCOfU7Ly/N51y/behzWF6Ww+F39vDuuYiwXMqyQESIquMZbuHXjWr7M/P5x0fX8QiafptMzCR+Ep5pNikTlVJIP1kHOggnMf3MWbaOddExUL+fYQxMdz/EU5zmw8Y9HEH9PYvzOaoR7g9xiF83Ru4PZWzXrQ4rE9WxNg5/ew6F35oDx7QTvmpuFMEvCINCP4R/32z1+d+aA3GO3jAf7d7DR6AKqQK6EkX3zMxnyRw4/ZFWWz7Nux+d5qll8QJJpx2eC9MF5MwwATEBYbr7IZ66W9uIXhs/su99fR+OneT0sjm6evJXFymCRyfET/PuPkP/dc7SMEc7whTefRszoZ/CX68tnwt0EL67gOkz1IoWFlCYc5oPd2uE47kjtJ4uYLkqNM+FwhBRrnWRVyZuN0G4o0t9z7CaOxemC9X0c84gaHUrqzBfh4mfYAwO43OhMMzRjMGxFn6nr5TAaZgTrScybgUsm3k6Ntl9W7mv+rWKEgQhKX0W/jOLCnp39EaFd39NLyozbsPEaVqNbRw7yellRTHhB0CYC+e1hU7zbuOeuCp7dfiqk5HRyq2ZPrjdBJw+OWoEz8wZOYCJ5WXrWG58s0sVoue7QJ14sOVhigp0tdh55RvOtOVhoouvo+OqCOPlcaYfCIe6dE0d2bcnfkzC+s+ca3mfX7doC8SvApUOaT/Txum7i2ITkDpBHfYO8L4SBCGOPgp/1TTwxaHUjl5bHqauNt4fK/H6EcGv02hV2/KIdqwv9OJPOP8NYfK4fSZghsMftTHv24pAnx79csrvmngiGYqon4jg1/dd2SOhLaefgLDlYTrdJuG5gjCI9E34D5OjVxFYBdgWwhHtBLJwHnMIc/h80k8OjBm3YSLMYV8qjTKJeWMEOXe+C8hRBHuyDqlmMJiDzdRBy7HT8O2lLFrYQQ5hTp5H/V0TbbBTJsCEpp9bIofpOfQaLQZwxNfGkkfzWDTzNOQhWr8gDDJ9CvVUNmz1onmpdujWW3HInTvNyS6Ys6yI/OjFOTyybA4MheZ3/hvCmBRzUqStBBvDjvjaCOcUsG619h3F4TsiHGvjcJeJwke142SkiwtdJuYVF5DTEbGlQ+G38yBi5lHNbIG4lVoXF7rAlDdHMRsNGmq95ti6yhixFOWcEnZa+OhDFNKROshAEIR+0wfNP9WGrRgRR++t2cUVx/DXq9fpzBDRiJ4BEO/w1ThTzx3h/S/yWKeJPDr90fsc/vZDzNN+5NwRftcYVqKOyiIXFdPFyBDmo93vQ+lDceaamBavrFgK5xCNvIo4jk1dHUpk1bfmQFdbgsVDxOk62KafMB9525j3qGYcT7ew54sC1uUlKPuX0xQum8Ppv8iOY0EYbCb0lsxFCTPsSm1fThXBIwgDJbrnQaJ8BGGw6cXsE3H09rKjV3X0JtzRKwgDYWY+/7hsjiHsVxCEwaJXzV8QhhPt7t+xftKrIIxmRPgLgiCkIZLMRRAEIQ0R4S8IgpCGiPAXBEFIQ0T4C4IgpCEi/AVBENIQEf6CIAhpiAh/QRCENKT/CdwFoc/U4PG5sLRspbiiYaQ7M2z89JdT2XBX7PXxty+x7g1tiQz2eCazIPr6Ojtd1/jJsPVQEMa88C9jwW+fY27bNrw/bxzpzvSdsu14q52YCdNcV0zFkHS9nHpvJU5jlpp2D3ZX7VA0OAKo3zE4Cr/Tl1e45/kbSd68wTrXJeXfp7P4/LFh65UgRBnjZh8rt5mh+8wYEvxA+cpCzO3NNIdNFKwsH9rG2j3YHQ71z0PA6sLv3c4QtyoIwihnbAv/jUuYRZhvjo90R/pDOcUFJkLBg3jbwpgLVgyjIK7F1RQAUyHFZb2XFgRh/NIPs89L3NtUwqzo63Y+Lfk+Z7VFNr7Fo+ussdehFrw/+JdoetZZ2w5xL028s3suxc/HUiWe3bOUT3doK1LMOflmEtQV/17+84fIfz5xmykp2463upC2unp4VmMiSWQaqd2Fv8QWe60pU17vpargMFuKNxFn2a7dhb8EPI71uAHKVlBgCtN2oIEGVlBRpAjihujiRTFlFLRtpfhUqaZNrYmoL2WScDRICBuWRcb+7SbPm2oMFPt9bAQSt+X2+HBZ9ddC0f8Sm2ncHh8uS3Pc+Onr0rQXNZupmFz4fa7o5wJNDlw1KcZgDFFe76WqyEQozfwmwtDTJ80/58X3ebSpBPYs5Z0S9W8P5L8YUx9nbTvEo+ssHPllpEwTZ81FFG97SS1RRs5M6GIJxc8XcEot92k7zHrwVU3O3Je4t+k58s81xdoqWco7UYHeyPEfxD5LqAVvwnJ9xYSzuhLLftU00hQAqwuPRu6V13tVARkxn2yl2eLC79FIGJNFIxg1n52bC+EggcjrlYWYw4fxNgKNB2lLYvoxF1Xq2vS0m3A+qzfX9KVMHIssmAkTPKq9aMPlUyYTu8OBva6ZkHYMyrbjVR23ERPSlhZwVvs041ROvVcV4lozU6q+JEWtyxrQjHk9bFC/W+MmiiO/QxiDaWv8CH5BGEp6F/4Pvsp3nKZ47XzH92NO1o1vca81zJFfPsTxP0UK/IwjzWGwLlFXC4p9Psdq4ZSmXHenIUPXg3PJBs5+9rNeOqZOJm0f9lPYx6PTFGv8BADL3IgIrcFVZCLQpGruADRQsT8AVjtuoOFUp6a2Gjy+mFC0WUwQ7FA1WtXk03ZQfd1AR5DEpp9wM1scsTYDwXD8BNOXMlrKtuMtsUH73jiNPdDkiGmWjR0ENWPg3uDEHG6mXqN5NlTU0xwG2xJ14GpLcZrCNP8qweqnn5TXVyh11RnG3HXrdcczl991u/gk4d8aXhvhM28bKoqxOxyi9QuDTq9mn1mlReSEWvjvHSnKLLZCe5NG8Kegfb+mXBmzCkxw7lRMgP/pQ05tLCJ/3SEeXWecULQMk7O3LA8LYC7x4S8xvhkmrwzVlFKo/L/IrgjfJTWAMgOEgu1qXSsoMEHwVOxBdrcGcJUYTT9oJgyFhorieMHXlzLWeJNIcZxmbFwJ1OJyRFT6cvIsaCasaGt42ypwFuQpE9fcXIisaG4Rm8UE4eZBqat3TvGP2Z7haEgQRhW9CH9Fu9YJ5zheIs8KXc3tce9k55qgfb/iF1Cds0d2azV6RYB3tWk/28jxHzRyPGLbf/4Q+c8n8i+o9Q2Tsze1HbmDYLUTyyLFzBNo8kCJHbcqOAkqpcpXFmIm8URSsLIcGodAuxtXoZ2CIAwWQxft8+Cr5Ftj5puc2YoU7NJq8aqJJ7H2HrHtN3EWK3kb9e8mrG8oMJhAEtNOMAyKWacTf00t/nYb9lorlqimr5h8jPZpxVafxPQzKkhmmlK/j3b1YTQ5qaum/tKr+WpQGd1mH0EYKnoR/o2cbQuDdRULHoxdzXnxLc3rn9HRDjlOTSTQg68q0TztTVE/QXauCUJBurXVL7CQQzsdKUxKycI5u84EAQs5Dyb81CBSi6cljLmoUucE1qMISMuqCpxBP24Uc45t1RosUZOKMhEEWuMrUYTd6A2/dLcGwOSkoj4m/qN2+Z3K92k4cJgQNlZHyhgjcpRSdAQBS150IkkUHdRQsZcANly6/Qjl1HuMzmy1PtX3MjAUs899Cf/2snnCgCseFMrrvfh9Pn1wgSAMAr3a/Lt+/hCfbjvEvZpwyq7mbXg1GvfZ57Zx5LfPcW/Todi1PUvxRoV6YufsrMVWCLXEJgRjqCighJQ+pDf5AOz4Pp8u1vcrPmR0cGioKIZ6L1VGc43GpBIIhnFZTQT2q8K9xk+gxIWNAB2NQK0dG2Gaj8ZVT8OBw1QUOVXTz+D3/5apWY/96Ha81ZX4fZXqxUAsfBWUCJxFu/CXRMoE8Di2kuetpEBTldvlwe5zUeXzUQWEWrayJVhBlbYQtbgc7dR7K6PlIqGeRsOY26W04fL5iHg2xlOoZ8OpTqowRSe4gU9ygqBHcvgKwiDz019OZQOpjnfQoB7vkPxsn8gxHYbJVhBukbG9w1cQxju1pThNEGrZLYJfGFTG+MFugjBKuWsyn6sRpH051TMOjc9kPJmxhNGDmH0EQRDSEDH7CIIgpCEi/AVBENIQEf6CIAhpiAh/QRCENESEvyAIQhoiwl8QBCENEeEfh3Iev7d+dB6zlgjrL2bifi8v9rdj0kh36ZZ4YEce7t3ZGA/6SM0E3vjNVP7849SH8Ty9ZA9NS566le4NGe5SM61PZo3SA/76z/3zJlL36FQql09mWtbg1VtRNHnQ6wTgjm00Lf8JDwxytcPJ00v20PS9PTR9bxtP91J2lG3yimxlN1weV8cSJ05lOGCqzTzhgM9e62DnzluvLjGTeOa9XObFXb/MZ6+dG8J2+85PfzmF+7nKL/4t+baVB2z/ScnsAE1//PUw9qyvZDBvOnDhxhAkrFEoXzmNaus16t68NmRtDDXTssA0CcJX4eK1Qa787x4OLaqiavlP4MOf8sEgVz/UxO7v53ij9+KjTfir6IS9kjvW781LnCM3zXmg0AQnOodFAHf5zlD3o56hb6ifPPnjSWy46zo7XT28mazQHduoWgiHPuzbgzH8TMBihlD70O25tM2YCBeuDNsz9PHJ63x8MsHu5VtgalYGpikTOH5+KO7DA/zsQxtbv+fiWdtKPggcGII2hoqVrJyTTdcxT5/v7zFg9qnF1RQY1UcejxyZ5M4c6T6MMCszebYok+NvJzsYDeAptjpsdB17jZ91Jy00sszKwAIEg304DG5AZOKYD6HzY3tD/8xpE5icOYEzoaH6Hr+m0hcgZ+FmXsoeoiYibHyLR5ve1x2XP5z0TfOv3YW/RJtaw3jCoKKd0+TAM9dLVZEpQTnF3FHQtpXiU6Wa+pSjeo05ZXUcDRLChmWRtj/gcewmT2smijMPKf2K9TxxW4nOlA9F/0tspnF71GTlhtWIvi5Ne8bz7U3x6RWH4vwW6y9m8oRjSuzCiU7cG6/GXlebcT8M+9d2k7t7Nouzk5TrE5ls0NZBstWCsVyY/WtD+mX2uWu0V5txP2xKXgZ4cnkm5tBVfpVK3bnDzgICNCXT5O6ZTOtq2PXKNeY9mYNT/ZFC/i5WHIgI4wxefzKHgvYuVrRlcvDxqdHfMrAvROnnxvomx16HLsWbWmZl6epQuE5bUP9+UFe3pg8HtJNEJrt/mK25z6+w65UruFFNPXbNY27PodUea6/5vy7yTNx56QNnWhZsdk5mrlnRK71/u07TX68lLHP8/A3OhG7y/cWK8f5qD7z56VWOBGP3S74lkyfvncSkzNjnr/bA+ct64V9RNJm7LTFdVtvu/fMm8v3FWbpr2n6+9dk1/Qrl7x4OdVexdMFT0DqEJsLosfTvA8nS1Q4dvWv+ZdvxLvFrMk9tpTlsTLShYCvxUVVwmC3acoYkFOaiSlVwR7JYmXA+G1+XjkUWzHF5Zm24fMpkYnc4sNc1E7K6YglXyrbj9bmwtGyN9n1LCzirfZqkLOXUe1UhHv1+HgK9Dkoi1Lqsgeh3szvqYYP63Ro3URwdF+IyevVH8MccvKoAnZ+rcfjOZMMGpdwDO/J4wnGN/Ws7cK/twL22k5PzcxM4U02sem821qNnlHKvXaBrfi7PVPdvBB7YMR1+G2mrA/cfwuQ4ZhvqmcQz781mMRf4TbRfl8k3Oqnn5+Je0aOWOcNn3SZWxfV7Ag/cnQlf30xu7gGenm2D7q85luT9cksmhMChCtYlr4RYsu8KZvsUXo9mKFLMMsEZWbQ+nsHeV0IseSXErhNgK4o5ad2lZlpXZ9L8X8r7S17pJmCeSnVpTHqVr5xGqyrYl6j11PmvQ+gaH0QEsSUDM9cJBjUdnZVJgVm/OihfOY3WH2aDpq4l+2DNSuXRbjhwMfp9FGGvKffK4Ap+gGJrFv/vF9epfucSXwRvsGBGRpxjNmK6uSM7g0funsi/H7jCT/ZeIth9g5XW2ERV8j+y2FQ0iaa/XqP6nUtUv3MJ79+uE+y+wclvlAli5rQMalYryk2kzPaWq9w/byL3z1Pq+vjk9bi+/LNjMqYpE/j3A1cSmKYOcOB0N5juHHLn79nnlvJpu4n854d/BdC75t+4iWKdpqwm7i5KkGZPp3k30BGsjGZtimo9Yb22HAiGwZoiZV/ZdrwlNmj3xGnsOm25sYNgdSTdYgPuDU7M4Wa2VMT0rYaKeoq9lTgjydVrS5VsVHW37kuIZraq066IGqhwDb6Ftf1H59Q2VA36XAItfUM2zvlw8g9abfkqr/8hjPvhKdy7oZt2jZ/g5B86eL1OfbHzGhc2w/RZmUBMC8txzMb9nrYRvTb+wcZz+j7UXebkwyZdPQ/syGUeYfaXdhPL3HyV1w1pOum+wG+iZXr49OhlFjsyuRM0n1ME8vEDqUwlK8kzQdfpA0kdeLYZE8E8EYtW0w/eIMRkLBbgLFGzjHk+Ua06jnsms36+UZvuYZf/OtX2ibjpwT0ri032iXGrBaM9XpmQNJMBRCcE7eogUV18foUVhq4lrG8I+MOR3r2wEdPNXDP8rz9f5dxFZczDmls435LJ/fMmxmnld2Rn6Jy96+/J4lToJvUtV6JlCu9QJj7t6mDX59fYVJTFvNsyWWmdyFzzBF3bRj7oOktVdiErs+GDfpoKZ207xL1JQtUSJZw6+9xSNWHWLawAsldSkN1N29m++yn6ZPZJZBaBzrhyoaA+ibvb5Yh/SLQ5X1GyZMWJR2u8SaQ4TjM2rgRqcTkiE4+SOD3UdtBQtzpxFahpBOfmQvgw3kHInmWzmCDcPCh1DQrWTHII01xnuK4K5Bm63/My53U/3VVeX9sRV2WvDt8N2VRvnk6O8XPR/1QfxYnLgxNJsXICuSS6E7XYmNEX223oEttTTSKWDOV45X16we/eHYq+di+aDCe6U2rT5QVZmLnCXq2wjtjj/RFhlcED1njnrFGAu787FXPoEtt1dSVmuJ29kaic4+dvJI3K8Z3uiQrfmdMymGuegO+0cn8V3pHBlZ6bHPs69psYy0RemyZNoO7RqdFy4as32XLwik6wn7t4g7923mBT0STCV2+mFPy3ytnnlvLOAD4TyZh424J+ZCTM/gn/sXwpOd2H2PLH/9mv56pX4a8Ifr2tvLzeS1VRP1rpL+MqtDNNiAh+na9ACRGdPlRtHrhJ53O9FQpwvptYfuk4IoK3Ry8YLRk6IV1uyQSu4EsqaI0CPIZtxkQ4oUwabs3/Ue6ZiA0IRM05iSJ/MllvVz6r9LM/oaHJ+zZUzLstE0t2Bh/+LV5ZiAj2g1/G3jM6cu/IzuBU6KZOQC+8PQPTpFiZhbdnMDlzAttb9H6CZNyRrawIwpdvculaXwT/WTqGI0AgkvOcdj4t+X58ytpUdP+Uf/4jyiTwvT2U+tZR+fe+fbQXm7+iQdO+N7VDdtShJPY2F6ww+BLKKS4w6VcfJoPJqSwPywBaVJKwpzBfDTftPXRhIt9ot6+ewrw4TX8QsGaSw2U++30qJ3EPneeAmVn93MCVjJsEQ7Bgcarb+AAdYciZszKx/TZhlE0GrxdNhhPXo0LaNmMihG703x80K4s18yFwNJlwUtvS2vcT9Kl85WRsDDBaZ8gjieKZMUXZbGd0zIJqujEI4FTlQVlJLP9WZkJnb1+oKJrMXLNi4w9fhbWLUu8QeyBnVko/UVI2vsWjTYcS//321bhV8axth3j0+SJo3sY7/RX8WroP0NYNs3JW9vkjvQh/RYhG7PYQ0fqNu7BGH+7WAJicVGh26kbt8juVVUXDgcOEsLE6UsYYkaOUihuDRGawhoq9BDA6wsup9xid2Wp9akLu5Cg7jf0+rYO6H+y8THs3zHvYrBF6k3jmYROcCA/+voD2HrqYojEnJd4Y9sHvL9CVPZ0ndA7eSTwzoF3JN/ngix64K5Ofpij1xpkAqPbbOFQNX6vRu0tzcJqvsGt3RGD3RcvuwXcCzPas2O8aieg50a23yc+fqJZRo3e4DvRwMsmTr2zO6iEQ0l69wQft12H+ZI1TWpkkXjcuc87eIAhYLL3Fd0TuOS/1gxhWPS1LEb4zp2Uk3aQ12zxB58gFmGueEP3MZudkpmRN4ErPTc5dVIT/sa9vcKXnps5JnKjtyuWTdTb+1tM9OOZkMnNasvFQYuYJf9V/8+SO7/NOydLEfz/4l5gJ9MFXKW46xL3Wdj4tWYr358OvXfdu9nF5sPtcVPl8VIHisG2yUFUy9J27JWrWYz+6HW91JX5fpXrREKLauIniRbvwl0TKBPA4tpLnraRAU5VxDEItW9kSrKBKW4haXI526r2VsbFSQz2NAsPtUtpw+XxEPBtxoZ4DXIHE6GFnaQedO/JY9Z6JVerVLt8Z3APcqBXv8NXs8N3Zzc5lU3ji4TzcDyvvnvzDGT5bMVuv5e/spm7nNZ55L1dTl+I4HghvftjDs0WTWPvj6/wk2e7ev/s5jith6J57kRKSuf6Hk1kfuRi6RN0rmtBMNcom0JJ63Ny7u5j3ZI6ursC+ECu0E8vubhw/zI6WCfm7WBHMonW1pqKz19h7YirrV5uV66FL1L15g/U/nKzT3hsOXMQ2w8z6x820Rrru72JF3CTSQ+m+K7Su1oR5nuhmyW7j92knGAabyYRzQw00Dtz0GhHMm4qUSf2tz65x7uINZk5TIn0+/FvMiTstCxbM0Dtyd31+jf/7u5P415XK7+P923XOhG7yyN0xkXXu4g3+03+NJ++dpLP5R0JGAZ68V2n/zU9jNv6IH+GJ72TxWvOVeJ/EHS6WZndzyDdUYZ5lLNioavsjIPQjSBpHYczz5I8n8aOim+x0pdjodcc2mhyzOPTh/9Rs9FI0b+eFRIIwTVH39IRatlJckY776Z9i6/dczDq2hX8eYzt8X1peRcHpvvd7DOzwFYTUvPlv1/g4NJENnqzk5p+/P0fTmWyWLv9Pzc5N1bE6xne9Dh7l1K+yAQH2paXgX8lLy10s6D7Er8aU4Ieob2uhq9cD3SKI8BfGATd5+onLfByayNoUp3q+0bpOmQAWqKd6zsrAwnXa2obPETpaKa/34vdV4qSZLbrd+2nEHS6WcogtY/BQN4A3WrdwqNtGSR9P9RSzjyAIQhoimr8gCEIakjLaJ9c0bbj6IQj9ovvS4NQzdaLc4+nOpesXR7oLA+LiLfY7pfB/bPGSW6pcEIaKz44Ojp1+0W2Lei8kjGuOfnO090KjkJbO5lv6fErhf850nMOBm1wcwI66oSIUEuecMHh80Tk2H3xBMN8245Y+LzZ/QRCENESEvyAIQhoiwl8QBCENGTfCf/ri+9iw+s6ExwdPX3wfjyzuJapjfiEblt3aaTqCIAhjhXEi/C0suWsanUe/4kLk0vQ7eeSxQu4ylHvgsftwTE/2GmAajtXFPDB/yDstCIIwYowP4T8/l1yCnDihuXbhKz76chr3PVbMkuyLXMz+FhseKyS382/4ojNEkA/8F1lQXMwjc6GTXB557D4W8CWtJxK0IwiCME7oUxrH0c00HIssdH/5CV8a3rnw2Sfs/AzuWlbMfdlfsu/tw7GVQYQTh9l5QjENrb7rIp+87Y2rRxAEYbwx9jX/6TOZPe0iZ76K3+02ffF9bHismPkE6ezOYfVjxfG2//mFbHismGXZF+nshILHisX2LwjCuGfMC/+7Cu4i++Lf+dKo0k+/k2WqJt/aPY1p3X9j59uHuXhXod7mb5/Gca+Xd09BLp28+/YnHM8uFJu/IAjjmjFu9rEwPxc6/V/Fm3MufMW7byv/xvy5QT54O6gppHkdzd14Ed8+b9IW7yx6jCWWi3z5v/fx+TeRi9/l//y2hXN/eZuPvlKv3fZtHvo/rPC3D3j/r98kq04QBGFEGNPCf/rib5FLkE96cc5e+OwT3u2tMtX2LwiCkA6MYeE/jbvumEb3l4eH1UH7VcvbfBV38c/8f8aL3/yF99/5yzD1ShAEoX+MXZt/CkevIAiCkJoxK/zvKriLbF3MviAIgtBXxqjwVx29p4K9FxUEQRDiGJPCP+LoPSEOWkEQhAExBrxgjcAAACAASURBVIV/xNH7N9mJKwiCMEDGYLRP6jh8QRAEoXfGoOYvCIIg3Coi/AVBENIQEf6CIAhpiAh/QRCENCSlwzfvxgL+evkw4VD3cPWnV0LfXB/pLgiCIIx5RPMXBEFIQ0T4C4IgpCEi/AVBENIQEf5CHOX1Xvy+XbhHuiNpQMbjR8h54Qg5L/xeHkYyeP1JM62lmSPQ9kYmblZ/i80NTBiBHgw3cr8NOmUs+O0hil8sG+mOjF5qd+H3ealPOEQ1eHy+BO8r1z21w9PF4WDCmkNMu+sYF1/Op+vlf+DGSHdoxJmAxQyh8zeHqH5lcjm4MpHY28H11/LpevllLrOM7Md/PkR9GD2I8B90rNxmhu4zjSPdkTFNKAwFK8tHuhtDyEYyF5rp+WSnCP0IszKwAMHgUI2IMrmkrn8H1/98DO76zrgXjuP9+w0/G5cwizDfHB/pjoxx2g4TLCoV01M6YcnAzHWCQ3VS+z0TsQ1l/WOMMXiwm5aXuLephFnR1+18WvJ9zmqLbHyLR9dZY69DLXh/8C90qS9nbTvEvTTxzu65FD9fRI56/eyepXy6Q1tRGQt++xz5ZhLUFf9e/vOHyH8+cZspKduOt7qQtrp6eLYSpyny1TzYXTGbR3m9l6qCw2wp7sDlc2GLNrWV4ooGfbkiU6x+Qz2xNp2YdRc7Y//W7sJfkktzXTEVjfrPBJscuGpS1KVpz+3x4dL8FM5qH/5q9UW4mS3Fm4j1/CD+9krstYC2fh3l1Hs1Y0RY08caPD4XGPun+VxBm36s0hl3qZn1dLPkzxkcfHyq+vtdp/m/LvJM9IHKZPcPs2FfiFIm07p6snrdWE6tb37sdcjfxYoDBo37Hm0dEa5wUq2nfOU0qu097HrlSkwJmJXFwcezaDO0p1yfGrvvQpeoe/MaDWTw+pM5ODU3t/NxM61x5fpD5L4L65+JMcaY1fxzXnyfR5tKYM9S3ilR//ZAvsbWPmvbIR5dZ+HILyNlmjhrLqJ420tqiTJyZkIXSyh+voBTarlP22HWg69GJwJlknmO/HNNsbZKlvJOVKA3cvwHsc8SasGbsFxfMeGsVoST3eHAXtdMyOrCW28wg5icVKkCzu5wYG8KYC6qiNrK3R4fVUWdeBzq+w4PAasLv3c70Zpqd+FXhbhdLbelJdyv3kZR66Jla7Que6s9aqd3u2L9VAR1rE27TvCr5Xc2Y1ml6auOGjw+zRg5HNibOnFW630FlrmJPm3FYoLgKRH8ChnMmw4hJqqCNcSSV0LsOjER56NZsfGflYGF67BoGq1FN6h7JcSSV7poDk3E+d2IkzaT3T80s376JfX9EEv2XcFsz2H3PbEW3aVmWldn0qy2pbQHnLgeFfS2GRMhdIOApqflBVmY6YlOENG6NP1e8kqIuvYs1t8DcINn3tTUH9L065UQS/ot+McPY1P4P/gq33Ga4rXzHd/H+3N1Gt74Fvdawxz55UMc/1OkwM840hwG6xJ1taDY53OsFk5pynV3GoTfg3PJBs5+9rNeOqZOJm0f9lPYx6PT4Bs3sa8dzAUrDIJQEaBRzfZokBAmLIuAsu2stkKgab3GdFKLqykApkKKywDKqV9lg3ZPAu24v9TgKVHq0mnTNesHXnfjQdqI9FVPef0abOFm6nVt7aY5bFJ9Be0Ew9ry3tikV5aHhTDBo33tiInXLrv4pDvx3+8GYqKevZKs20Jc+8uO3ssOOYot3Dw/U6dRB85fB3NGdFWpmGUmYpt+Lam27C7NxmbUpj+/RnMIbIvUCeKeyayfb1wtqBNQ1Nmrvm7v0bUTNyEkrAsaDlyk9HNtzxLXlxD/f3OVhUxeszFJgQYqih3YHWNX64cxavaZVVpETqiF/07x3MxabIX2Jo3gT0H7fk25MmYVmODcqZgA/9OHnNpYRP66Qzy6zjihaBk8Z69RKw0Ew2C1xB5EADrp0DbVuIniyOtaC2YC7DMK3ho/gRKXMkGoGnBg/yCE0JTlYQECrYMZjtOAt62Cqg01YBhSm8Wkrnx8VBk/ZrECtXQEK3FarEA5xQWm6KSnjKxh7FISZvMUzy19kyizG5j6xDIyv/mI7peXMlRxLQMh5L+sN6UYKLdkAtdpfkcr+BXNWiETx3wI7EutTbsXTYbQJT7QmW0yKdA6Y42vgXgBnsHrRZPhRHfKfiv0xdkb4UWuvvyiGob7Alffzeeqvw8fG2OMQc1f0a51wjmOl8izQldne9w72bkmaG9V/AKqc/bIbq1Grwhw/WcjZp1tHAmZyH/+EI82vaXxNagMtbM3HNQtgdOBhoq9BKz2xI7fcDNbHBrTUeRP9TEEgmGw5FGOFQvNeFrUCKJFFoN/Yxg5U86ll/Pp2g1TXjjCJPtIdUSD6ghta9MLRtuMiQnMMNf0QjtBPfEOVUXwBo72kEwDV8w5ms8mcv7ek4VTJ8D7ERraH2fv7AamvnCEiW35dL08PgU/jEnhfws8+Cr51pj5Jme2BQjSpdXiVRNPYu09Mgk0cRYreYZVYcL6BgmbxQTBjr7bJ48GCWFTHKZaau3YDCYPo13cZjHRbxo7CCao69apxd8e/z0CwTCYjCshPQ2nVKd1rR1L20HcBw5DwQrcc3P7OZEOgdnnzAGufQOZuclMC8OHotHr7ejMymLN/IjAhojQ5sKNftvIy1dOxsYVfJ8nK5HJevtEXR/i+6Rq+QOM1kn4HZMxy0Imx7g+ToV+hDEo/Bs52xYG6yoWPBi7mvPiW5rXP6OjHXKcmkigB19Vonnam6J+guxcE4SC6M4sXWAhh3Y6Uplik2j4XWeCgIWcBxN+asCU13txWcM07+yHSaXxIG1hsJVod+pG7PJ7VVtlLf52MGtCKo0ROYDelwBJooNq8bSEMRdV6jdi1e6K35il1tfXOH73zmYsS/QqckPFXgLYcHmTOYTVdkyFVKzKpe1Ag+pDcLK6gP5NpKrZ577sxH//OIRP0UtX1Unm6tykZcqur1HKXL6bpFsLb97Nn7pdfNK9htcMirJRw4dMdj8+FfOJbo3dvA9a9ufXCaB1/kYidiYS2HdFt3ozWzPV302JILKErsc5d2MoETsFF64Q0l3vwXcCzPYsXd3u0slxK8WGYA+Qyby45fpAKKfe68M/xjcdjkmbf9fPH+LTbYe4VxNO2dW8Da9G4z773DaO/PY57m06FLu2ZyneqFBP7JydtdgKoZbYhGAMFQWUkNKHiFMidnyfTxfr+xUfMto3bCU+/CWRVwE8jvX9jHlvoKK4QRHmPh8u9WqoZSt2jZPU7dpKnrcyWibUshV7a6mmbaBxE/UrvVRF+xTA4/Bg97nQ0lBRTEPtLvzavrd7sOuLKb6JRbvwl1Ti91Uq1+JCPbXlD9L2bCVO0AiHWlwO8PhcBru/JvyusYNgtRMbzXgblTHxtlXgLDIRaos3CY4+TOT1YVVhvdGHldrN6SQupdjpIZvWH8auhvxdLNGGZqpmk+a2VB3qofS/LnHwcW1dV9j1ykXNvXuDZ965xMHHp1L9w6lUA4F9IbZbplGtecwaDlxhvT2b9T+czHq1PyuCWbTON0T67O5i3pM50XKo9ZUau/b5FXYtMrNeE+YZ2BcyOIX7SgMdwUowgW1JDTA2Z4AJdxfYkk7l/9faZbzXdpi/j6Lz/L8Z7+f5J4ufF8YZG5m4+QWyjr3Mpb0jGPGjxscHBywIxyH235PzCFxMdeRGZPWbaN/MGGEMmn0EYTywgxvnIfO+DSP7EA71rtoxSEbBQvgmmDISy73BiZl+mmJHGWPS7CMI44Eb//Uylze/wLQXjgDHUmuaQ0S5JTN1BE/aoKzEptwGym9RnlD4x3bMD8QUO7oQs48gCEIaImYfQRCENETMPoIwypgwOaf3QsKgcfPKrR7GMjYR4S8Io4yMO50j3YW0oufY/pHuwoggwl8QRhnpKoyE4UVs/oIgCGmICH9BEIQ0RIS/IAhCGiLCf4C4PT59Rixh8Kndhd832sbZxGuX4w9HE4Sxhgj/UYl6aqAn8eE+5fVeRSga3tdlqxIGlbLra+JP1rxxf+qTNG+JjfzTY0f493+K/f3LgiFpSEhTJNpnzBImZFGSnIzlLeYpqVmPfZQcbtc48WNWXF7DJ92naM8KwzUXn1yD9qkfG5OMDQoPPfgC9vBb/OvbLwKw4N5DPFN0iH86v5T/5+shaFBIO0TzH7N00taWy2pjUndhiIic6f8VXJuLJWPvkJ7l//6f8vnXP70YfX380z9wAjML7hr55C/C+GBMav5ujw8XHuytdvwlkVxOmnPcAajB43NBkwPP3MhhTBB/IFM59d5KnJrDzgOJjlOu3aVpK9qkvk8W/Zn0yiFQnfEHQBnqiiZrNyZJMbnwa87MN/ar48BhCp5dQTkNyROTGPutOYK2vN5LVcHhxOfo1+7CX0LfD68q2463upC2unp4VjOehiNvY2124PK5opm4dAnrU/S5t++nq0fFmKAm4e/bK4qtv6jnFO1ZpwjeWMMn3WFapu1l84T+1jVwcswJcpdFxmAMHy8sDD9jV/O3ulThpORt9bSbcFbvihNUthKfImwcDuyOrTSHbbiitvIaPL5KnEFPLP9rUwBbiQ+vRqMur/fiL8mluS6WJ9YzwFwgSl02Ak2xuuoppb4MJclJtJ8oD7MmN22cwGrcxL6gk2TPu9JWbIzsjq00W1x6X0GSVIjl/U51CGDCWV1JQdtWpb26ZkJWl24slWJOqtSJOTLm5qIKZQxAMfdoxyEJKcdSKUG9V1UUImNQ14ylpP8ZmMqu309Rxsfcl/1XgjdMBLM83Dc1TNGVobL5G7j9Tm4HukLplsVZGCrGrvA3aPDunc2Jc9a2e7BHNdsGOoKoSb2hvH4NNgJ4tNKzZj2edjAXrFAdpzW4ikyEWuo1q4oBUradiiIToZatOkHeULF+wHW7WwNqNiEjSr8DTVrNvYGK/QFQE6JHc9yq5T2atHT9zhmsotO8GzexTzeWEcI012kmM2OayL7Ql7GsLcVpMvy+ap8Sj1lyGifu5b5Jp/QXMz7mvilfRG3+0XSKif5SpGHsnY380/Jl5HCM/50oLVxkshStX+gHY9LsA8RrpY0dBKsjCcRjIisU1KvobpcjNmFYTNC+N2614G4N4CpRNeKyPCyElRywt8oii5IAYjDqilDjJ+BbQ31ZLV7t9bI8LIBZlw4yQpi8MlShW6j8v8iufF9NWjrj2PWF4Cn9dwsEw2A1ri466dBOdo2bKO7v5NeHsSyfmwuYdGkso4QVBaD/v0SYzVP2JnynceJeGofgiXrowRewZ8OJln/g/cGvXkhTxq7wT4JR+Ix/avG0rKFiZble+Kuktm8rOW4tixRBGWjyQIkdN+XkWYDByu7Ub/PRYDK2k2489OARvjcbuo68zKvHR7o3wnhiDJt9DKgaevBo3z+iaKX2eM1/ic0gsIwmCVU49peBmDf6QMOBw1CwQq9dN3YQJLISSkY7wTBAOcUFnfhravG327DXWrGYBmciHaj5qFf6MJaKWStXWdkMA4Nt9llw76Go4P95InOPINwC40T41+CpdmJu39sv23nDgcOE0DqAgdpduKwQ2K/6CRoP0hYG26rI5qn46CBQJxKN8zSW7k1DxN5c4tU4JaG8fpfuddQ3kWBiSkjjJvYFC7HrJqRaPC1hzEWVKZybSjuWVRU4g35lz0BrANuqNYkn0rLteH0+/D6vob+JKa/34rIOUZ7TvoxlzW6aw4kDAYaCxolK+GfCP6O/oDcW/J5n8s19E/yjcie0MNoZu2Yfk5Mqn48q9WWoZSv2in7ql42bKG5UQkJjIZWKMzI2iTRQUWzF43NF2ws0Odgy10tVQayqhop6ir2VMftyuwd7kz3O3u52OQjUe6mq9uGvjvXdaPN2u7aSp62P1CYcd2unEu6niY5pqCiGei9VRru/JiQwEAzjspoI7FcFdI2fQIkLGwG9XR5UO3tqbLq2BmZyiZs4oyGv+nDe3seyAWUIKuPs/gML9xwufs6/FC0EICf/Bf49/wXNeyH8fzRs9DoaJIQNs6mQ4jJoGIpdZ8K4Y0zm8E0UUy+MMOoeheCoFqrjF2Uvg3GviyAkZ5yYfQQhjSnbzmor0E+zp5DejF2zjyCkPYrJ0sYAzZ5CWjMmzT6CIAjCrSFmH0EQhDREhL8gCEIaIsJfEAQhDRHhLwiCkIaI8BcEQUhDRPgLgiCkISL8BUEQ0hAR/kIc5fVe/L7hOQxtrPDAjjzcu7Ox9l5Uw0Ymbj7C1DWjLO+uekBff7OZjV2U32GSfaT7MboQ4d8P3B6fcnqiZwgPr4mc0Kj769spmmOG2l3j7zslIOPxF5jCR1zem2bHMfcyuUSeI2N6T7dnqJ6tHVz/8zEmPSITgBYR/n2mBrs1THNLoO9HLQ+YsC5f8JYWcFank6Y29pmw5hDT7jrGxdfKSbqFPp0JhyEuvecQ4v8Huj8JMemR34vQU5Fx6Cu1dmx00lHhJ5AoV/AQ0lBRT3O4/3lnhRFidgNT7jNz9d1/4MZI92XUcpi2oJPhTDt8c++rXP5mIdMe//nwNTqKGZMHu7k9Plx4sLfalTPsAeNZ7wrGxCvaMsqhWCQ8glj5XEFbLBm5e4kN2j24qcXd7sKlyXULKKaMEvA4dpOnbVNzdr62Tc9c7Zn1vZ1730BHsDKaeL5B279TpSnHIO5sfF1/VNTjmPVn9WuSu9fuwl+Sq6872RHOxro07SnHDseKOjXn8BPu5xHd1WbcD8P+tZfJfy+XeerlLt8Z6n7Uo7zYkE315ulc+EMHr9dFPjiJZ97LZbq2HGD9xUyecEzRNHCZz147x86dmkvnrtFebcb9cGQ8w+xfG+IDQ9cmfPt/kPnNR1z2J+h32Xa81YW01dXDs8nuE/V3KzjMluIOXOrhbaDmK9Ae4Fa7S/P7k2QcEycgimbpTPhbKveqxdheXF2xe9d4r5l7ye3gbQ1QZXyODBjvmVgehv49vwo7uP7nDfDIw0yc/SLXzyRoMDKeiZ6TccbY1fytLvyrgmxxOLA7tioZm57VZjKqweNTboCI+cTe1ImzWm9rTpzm0JjGsAa7FQKtqhBrTWb6seHStlnXTMjqijPX2Ep8yoMd7bshm1gckZy6+nSI5qJKdcJRvp+nXT8Gbo+PqqLO6Pt2h4eA1aXP+FS7C7/64MfMTGEGhFoXLZoxb7VHv7/bFfkdAhhNW/YB5WYwseq9XPhDB+61Hbj/ECbHMZtnqnv/pI5qM0844LPX1HrWduBeaxD8APNzca/o4TdrO3CvPcNn3SZWxTmBN5K50Aznv0ph7jHhrI6/T4w2cCVhkSLgIuNmLqqI3r/l9V51Uo6M41aacVKlc9Yrz4Ez6ImNdV0zoX4Oka4umtV714Hd4ceu3rsNFcW6+gOae8qeSLmp2U2zZU0S30859V5VydP021KiN3/27fnV4P9vrmImY9aABmBcMXaFv07DacDbZkyjuAZbuJl67cyvpvUrWFlOLH9tpLw3JhSN+YBr7dgI4I/IZzVzUiLTT6DJEdM2kuXRbfdohJ2aslHV6hPh9lTiNCVIhxhuZovmodKlklTPeA80aR+6WlxNAVAzPkE59asULefWE7DU4FE1Jp22VbN+SJO7nNRq9XXdfNYN8won9asO66ws4BqdRmFvpPsCvyntph2AHj49ehmyM7lTV8hGxm1wte3FlFXpNHg1JaU5zgauTJAu3X0XyVtcg6vIRKilXp917lfNunuzvH4NNgJ4BkGLdXuUDG8e3URdi2vAdTfgbUN9Hg3UluI0GfodSd25pIZ+Pb86Atz4BiYVJDH91KxXJppxrvXDGDX79AWbxRSX6jGKxQrU0hGsxGmxoiQwN0WFonJjd0bTGCoJ3ZtjCd0bD9L2rBNn3JLVeMPV4nLE30ShYLvutdvlMGhFpniTiCOBZmxYCTRUFMdeL7JgJsA+o+BV0zQqAkTRkKIpHG+FsjwsxFZHw8NlzuuGsofOc8DMLKxcpT3Jp4y0/yjMyfdyWfWeiVWJzD39YfadZAI9vRQzaqWBYBisMeVFoVOfSrNxUyxFpSrg2g4Y7gr13iyYqxgIbRYTtO8dhAAFdfXZ7h/UYIeGA4epqC7FbTRUzc0FTHHpNwEI51Hej+dXSMy4Ff5Ar3bkQDAMBYrGbaEZT0shq1eWwyltrlrF5AMJJhKTYvoZ/MgfScd3S5y71mfBr3CV19d2AJls2D2bxZvzWLzZsKroK2e+oodl/fyQSjgYUzDShcZN7Nvgw14L8S6S1L6w8j49v4npOZd2Ix3H2DX79ILOBJKEhlOqU7PWjqXtIO4Dh6FgBe65ubEHsdaOzWifjto1hzfqp18kM02p30e7QjGapWwWg2ewLyQzcQ0rmeTOhK6ve9O7k9HDztKIPb//5iOFXswKSbBZTHEruZQ0dhDEFG8yKVtBgdHebTQpLupdOMbTu3lyoLhbA3GRbMqzmUteir0gfXp+41DMcj2dabb3IgHjVvg3VOwlgA2X1rlp5GiQkKmQilW5yvK58SBtOFldQPRBLJ+bC+HDeI1auCrsRm34ZeNB2sJgKzE4/0psmlyvtfjbwVxUGi1jjK4ADLZmkkQH1eJpCWMuqtQ7uGt3xe9PUOtLaOvVoOw09ukd1Cl4YMdsFmeHaY5E8ey8xgVg+qxMtYQS6TMvWQVRMpmRPdBJZAc9x0Jw13f6/HCV13uV5OtGn05KIr9dhcZhWk79s07M4WYi8QPu1gCYNCGVxuggSDBxx9JDanHvbCZkclKlC06owWMMVujvs1Gzm2aLHbvxWtiEszrFTvM+PL9x2L/DJELcOJukzsgmyz7ec2OZcSv8FXu7h4Bq90+4W1bVnsxEhLviODabTKpdXrUlJryRlIdv6Dd8DZQGKoodeNptuKLfXQnd0zqz3C412kgtszq4VY3G0dC4ifqWMLYStZ5qC/scnjjNqqGiGHtTIFbO58O/xB/v8G3cRHFTQIlWipRL8LD1vgKZwuLNebjfU/5WzbzAb3Shl1d5XY0AUsqYOP+aotVreWBHrA7lLz4UtD/c/Mtf6WEhk1Mc66AdIyUiq/9mPrcrtgFQqUuN6tGaOmvWs0X7260KsiXut1MCAWK/xxqCdVtpNgZ9NW6iOBIxFr2n7PjjnKO1uNQIpli5VMeFNOBty8Vm1V+rKNbfm5G/qDLR6/NrZCMTv7sQvvxD4jBPUBUTNEER4xfJ4SuMTarNuB/OujXn7BAyYc0hsu/7OxdfNmz0SrY/Qhhykv4mBpTV7/j3u41jzV8QRo7obtIX5DiBUYH992T3Zde1GiIdM42OX+S+FIQhYQfXX3uZy9+kNv8Iw4Fi7rn6bj5XE+26BhQ/hy+2STEN4vzF7CMIgpCGjO84f0EYRUyYnDPSXUg7bl7pGukujFpE+AvCMJFxp3Oku5B29BzbP9JdGLWkFP6XuyEU6hFTiyAMAiKIhNGEOHwFQRDSEBH+giAIaYgIf0EQhDREhL8gCEIaIsJfEAQhDRHhLwiCkIaI8BcEQUhDRPgLgiCkISL8BUEQ0hAR/oIgCGmICH9BEIQ0RIS/IAhCGiLCXxAEIQ0R4S8IgpCGiPAXBEFIQ0T4C4IgpCEi/AVBENIQEf6CIAhpiAh/QRCENESEvyAIQhoiwl8QBCENEeEvCIKQhkxM9WbgWgsXr98Yrr4IgiAIw4Ro/oIgCGmICH9BEIQ0RIS/IAhCGtK78J/6Ev/xvT00fW8P/2Fbmbzc01l8/ptMnhzEzgmCIAhDQ+/C/9LP+Oc/rqPkw0OwsIqtdyQp98Z1PmYSP5IJQBAEYdTTd7NP90/ZdwYWzH4qSYGbPP3EFY6bJ/HsjycMTu8EQRCEIWGQbf43WPf2dcxFWbyRwkIkCIIgjCyD7/B94zofhzK5vzRZ1eXUe334fV7qywa9dUEQBKEPDEG0z00++KIHbp8gtn9BEIRRSr+E/xtnAjD7e7yUnbrcm2dugjmTBxKafhqoKHZgdxRT0dif1gVBEITBon+a/9+fo+SPf2TG8j00fW8bTw9RpwRBEIShJeXZPkYesP0nVQvP0vTHdVT2WvomJw8MuF+CIAjCENIvzX9hTjac8fNGL+WenD0BQjcI3ELHBEEQhKFjCBy+E3jg7kz4+iZvJnw/Eu3jw1M7+K0LgiAIvTP4wv/pidxv7uHj3cmOgm6gI6j8Z1tSM+jNC4IgCL0zyMI/gz2PTSTUco2nU9j73TubCQ1uw4IgCEI/6Ifwf4pvz4aurmSW/Am88ZvJLAhd5Vf/djNlTe4NTsyEad4pdh9BEISRoPdon6kv8R/Ll5IDcMZDSSCJSv/0RO7nKr94oieJrR/K671UFZmAAB7HetwD7LQgCIJwa0y4u8CWVE1/sCiTT/56g3B3ak1eEARBGFtIMhdBEIQ0JKXZZ8pkyJ4KN3tR/LsuDmaXBEEQhKEmpfBfND+DCRPg0uXUlfyppWcw+yQIgiAMMSlt/oIgCML4RGz+giAIaYgIf0EQhDREhL8gCEIa0q8jnccWNXh8LmzR10O8sazajPthU+z1iU7cG68OVWvxPJ3F54/BTtc1fjJ8raY1yqbFzhHdsPjTX05lbedlvtvLrnpBMDKONf9aXA4HdoeDLS3hoW+uLoR7bQfutWf4rHvom9OxMpM/PzaR42+PBsFfg8c3DKe21u7Cr7YT+xtneaFrd/X6nX6y+yoUTeHPP54wfP0SxgXjWPinCxnseW4StFxmXW+JFoaDWju2cDPN7cNxamuY5jplglcmeXBWp9lR4Qd6+O7b1zEXZfFGwrSpgpAYEf5jnJ/+sm+H6Q0X7iU2CHZQ0RoAq31YzSENFfU0h9PwqPA3rrHzy0zufzqTJ0e6L8KYoc82f7fHh8saeRWmuc6YgN1oYzeUKduOt7qQtrp6eLYSZ8Q83u7B7tKrarED4FK0V7sLf4lNU6SZLcWbaOjrF0r63SDQ2wwWqwAAB/RJREFU5MA1ZPJjEs+8l8u86OvLfPbaOXbuTFUmWdkMHHfB8bcTH6bn9vhw4cHeateMVaLfrpx6r+Y30ZaJ/m7Gz0DkNyc6XjXYrRBoqoWaGgIlLuy1gGYsy+u9VBUcZktxBy7N/RJq2Upxhfrr1e7CXwIex27yvKnvFT0NdAQrwZJHOdCgfq+Ctq0UnypNOQZx91yitsq24612YtZd7Iz9W7sLf0lugvveSdB4Txnr0rRnvB+d1T781ZGuJ77Pf7L7Kmufm8T6py/xZsIVYOT5lEMVBYU+aP5K5i2XNYDHEVli18OG7ZRHipRtx+tzYWnZ2ssS3ISzuhLLfrWepgBYXfoytbuoKkK3nLc74h9U5SGLvL+VZpxU+Xb186ZWvxueWFt1zVhKhsh0sCGb6vdyme47o/oHOviNDxZvzuOZyMMdEfwnOjVlLpNwkng6kwX0EDyeok2rC/+qIFsi4xQ24XxW89tRg8enCMjoGDR14qzW2ppNWBYlqLssDwthgkfV17V2bATw1wDU4k9m+jE5qVInjch9YC6qMNi2bbi0/aprJmS8V+IoJ88CBDt0wtFcVKlOJkp7nnb9GLg9PtVxG7mfPASsLvxezTjV7sKvCnH7rfqS1LrQPC/2Vnv0u7ldmufDYNqyJ1NwDtzgcAhyZ4vtX+gbvQr/8voKnKYwzXVabaGBClfsJnRvcGION1NfEbstky3BdVp1jZ8AYJkbE0Xlc3OBTjritMwINbiKTIRa6jUTQgMVv2omhE3RNPtKbSlOUwCPVsNr3MS+IbJXP/AP08npvsDOH8WOw2j/0QU+64Z5hZOUCxuymA6cPByLFGr/6DJdTGGGVV+fkiu5hw9SJM7Ra4oNeNvCYLJENe7y+jXYDL8dNbtpDpsoWFkOjR0ENdW5PT78HnVsFlkwa34r9xIbtPuj90kgGE5i+lEEWvQ+OBoklGCCCTQ5YqsBtR/ae8WI21Op3KvGPBHhZrZotN1AUDMGZdtZbYVAk/b+rsXVFABTIcVlAOXUr7JBu2cQVoQ1eEqUuop1Y77+Fuu+ycmvwXx3RhLTTyQAQrR+QaFXs4/NYoJwM96kwljRtkJtBw0aSQPetgqcBZEleN9oqNiLy+fC5fPhSmSiULXNtgOGGhsP0vask4K5fW9NmWhMalsGwv3rd+9kkjsTuo5epl13vYdPj15m8aIsrFylfec1LmyOTAbKBGBdNoUcwjTX6Wu05WYCt3auks1iUjVxH1XGNy1WoJ1gGHVcrditAIpAdwOEgyjpfRSTT6gl9u0aDhymosgZZ/qJm9wbN1Ecd39pVhSAIryMM7sp3iTiSKAZG1YCDRXFsdeLLJgJsM8oeGv8BEpc6oRkxWKCwP5BWA6W5WEBAq3p5JUWRiOjMM4/8pCrdmj14R46O/xos4H2cL4b5s3Pxf1e5NplPnstxAeGkoHOHrh9EJrsxV/SEazEabEqgqvdgwfFlq9Mnuq6oNauaNJFlfh9lbrPm5fUAEMh7BL5L9Kcr28mTaYkCFp6NfvolsgJURKymwtWoF+Ql1NcYIrTuvpOAxXFETu1xgzT2EEQ1SShpWwFBSYInup7aw2nOoFc8oYlNryHznOQs2gKeutNJvcumgLnrikrgupsFmeH2a/a+5U/o0NY4c0zN8GcyQO3EOLX+++rlgHKVxYSbK3F3RrAtqRGWTWov697iU3VvLW+GtUuPsxRP/3iaDCxubDWjs2w+jCanGwWE/2mD+argTGBebdDqHN0RH0Jo59ehX9DxV4C2HBpnV+UU+/ROMxaA2ByUlGvKRHxFdxynl5lyR0KRswJiiNR7yAsp/5Zxe/g6c/qQLVtO6v75ih2e9TNRP1qJMYHh8OQPZ0Nv8iMXrP+YjqLsy/z2e+1u4GzyN3Qhwrf6OE4mRQuH7iTL/HvayhzqhMsa6go6lScuTV+AtY1rLZEfpdkpr/IBNtPX8xw0niQtjDYSrT3QMQuv1ddVUTuudJoGWNEDhDvu0gYHVSLpyWMuagyLtAhzpmt1hen6CRiZQaFZug8k0z4RzbfjbONcMKA6YPZpxaXo516b6XGLqwst6MPes167Ee3463WLvkHZk5J9FDpwgBRoiEC9V6qtPZeY2he3IMXs+3H6mugohjqvZVxdv94M5MaSZIE6y9m8oRjSuxCdsRso4nSqQvhbu+hevNsjUknzP61GpNOXYj9hXms2pzH4s36Nrp8Z6j7kdbGfwPfl7ChaCI/ZaC7e2txOcDjcxns/hqTytEgoRIb5va96u9Zi7/dhcsKgVMNULY9+aqrxk+gxKau3EbjDNBARXGDct9p7oFQy1bsuntuK3ma+yTUshV7ayn+Ek1VjZuoX+mlqsSnXg/gcXiw+/QepYaKYhpqd+GPlkO9fw1da9xE8aJd+Es0z1USE91PSydhDl3lV0k3+im+G5sp4sgfPG+WMDaR8/xHGcokck0/IUSvk2BPQAZ7PJPJbZHzXdKWp7P4/LEJfLztKk+nivxS98YYlSkhPZEdvqOMO2+fkuL6NTrjbP83WPf2dcxyvkt6op7rFGq5llrwR8JVCbBPBL+AaP6jkEw27J7N4mzD5e4L/Ka02xAmqkFO9UxL+nKqZ9SUegu74IXxhwh/QRCENETMPoIgCGnIKNzkJdwqOdNGugfCUNJ1caR7IIwHRPiPQ5bek9l7IWHM8qeWWzvSQxBAbP6CIAhpidj8BUEQ0pD/H5KnxPkpkSQYAAAAAElFTkSuQmCC&quot;&gt;" style="text;html=1;strokeColor=default;fillColor=none;align=center;verticalAlign=middle;whiteSpace=wrap;rounded=0;" vertex="1" parent="1">
                    <mxGeometry x="-250" y="1400" width="280" height="180" as="geometry"/>
                </mxCell>
                <mxCell id="91" value="" style="shape=image;verticalLabelPosition=bottom;labelBackgroundColor=default;verticalAlign=top;aspect=fixed;imageAspect=0;image=data:image/png,iVBORw0KGgoAAAANSUhEUgAAAlAAAACfCAYAAAA2w+cNAAAgAElEQVR4nO29f3BT553/+8I/AsGWAkEUjNm0Fr9M01jaBCl0iEMIJFt2bm0L2km/d103P+oku3OnN8HudO52UtvN7fdOZw3JZO5MU9wkreq9u70tCLN3Nt0GQonIlEgkK5FNcPghb1MMpIiS6Nj8tM394xxJ5xxJtmUk//y8Zjzjc/ToeT7nPM85563P5/M8Z9aqSvsNhCmChbV1G1hdepa3O4Mcz3n9ZXyl3kVZXzd79xznQs7rH56VG2tYV6Zw7PUDHB7vxgXhZliwkq9trsRyNshr+89OtDWCIIwDhTbb/NbxamyBawPfcN/Cn7ovcDljoZV8bWsV1t7/5nTGQjOVa5zu/og/zV7F2vILfHjmWo7r7+Pk0TPMqXThsJzhk/J1fOPBKpbPPpOHtlK50PMRoUsLeajyBqGevry3l1vK+Er9g1RXrUp/vpa7eOxv1/DX9hvDj/8R6ncO2xcW1tZ9hYfKY6M7fzdt01jtvDkWuDbwjQercmz3TXL5Ah8ePcMcRxVLz0+Ne1fiPFYtYU7vf3P6chlfqVvCxclyTgVhklMwfk2V4Vpl4ex/De/ZWOmsxHK2e/p4IJa7eKx+A2sX5Ka6Ba4N1KyC0xElNxWmoHB4z16OWjdQs6qPtzuD9K3awGMby/LUno7lLh5bW8bZP06xX/DLXTxW76LsbJDXOvfym2C++mamY2FtXY02Lg9wjEpq0l5barlxGbOGNjewml5OTIl7l4UV5X283bmX117vZenmGh6rd1Hae3bcPc+CMFUpGreWli+ljLO8fXK4QmXYy+Ds4Sn2AB1nzh7Of4jr+P69iRDh8c69+W1Mh/LRAX477BiZhJwM8tpINo+mzHgzGW0aFlXcH45v6v+fFJzl7QkIfY8NhcN7guq/F47zm87cJwQIwnRnnDxQFtZ+qQzlo+5h83YWuCop6+smOKVu6uPLheAUFBij5WRwmnhvyvhKfQ1fc1km2hBh3FAFicgQQZg5jI8HakEZS0uVEcJOFlaUW1AMLmTVLb60N8jpcherS1UPxQHWULPKAqaETTW8pXtomZKhV26sYR1BXvvjUh5bG3fvZ0pa1hKqGVvCtpoQndxevbmG1ensWu7isbXwdmc3t9dtYHWpViYlGTVuT5Kzh/dmJaZWbqxhnSU1QTweFjScBy2clmws2+RY1V4OB2GtavfZw3uJfF49L8pHB3RiKZ4cn/x2us+X9ur6XjUqpW9SxkDW9mc35sz9rH7ex6d9wEUlB+cxM8ljNZ4HJdZnPA/mSQE5tinlHADJK13rWyXNedPGIunGHyQSs/v04zyerB0voz8282elLh6r1x1mFtfLAtcGasp7ebu3nHWrLGo7ftiwuRKLedyZz2faz+HtztPYddewcYxDumtcKzmmiRXGflHSXN+lxn3pzrcgCBkZFwG10lmJpa97+NyA5ZWsLlU4lkZkWVa5mHd4L3vnb6CmfA0blG5eO7yUx9ZWsnbBWfUGsNzFBo7wWmf8++rNqGajYnw4lLl4rOwsb3eqIaqVG2tYt9nFX3I8qy0RAkt3o0qhjHX1ZSgfHeC1oKLdyFx8ZXn8RmZhbd1SIp17+a32jQWuDdSs3cDai6O/sR7/41nWra3Etfy47gapClfOBhP1qA/fvsQ5ij8EH9uY/YO2bG0lx17fS8RZQ9WXNlDVe4C9sTXUrKpkZTCo9cEa8O/lNcPNfQNfuWi8kVtWbaDmbJDXOs8S7991G8s4rtmUFIJ7tWPRHkhjEAgjj7l4zks3ezv1D3D1oa18dIDfnASIh8ni5XNDXCClEwXpzpPhOjiZK5vSnAOtvdIRvqnnQrCbs6tcLLVb4ELy+l9gL8fS182B+PElrqW9ibG6cmMNNXWoIioRikov2rKmtJJ11iCvvW7ha5vL2VDdx9HOIPZ6F1UuC8fj1+rnT/NaZ9BwTtbVreSC4YdKGevqVdt/eyHef2tYGzmQcaym/WEzKtLN1rWwduNKFuyfKiFGQZj8jEMIT8trGil5/PNlkCl5XB/WK4XToTQ3xZTwz1kiZwGLBWOOqfHX4fFQNwpl2JebKzzLbzv38lpelgtI5exhXfLxBYU+oHR+/Ld0anjgQqQXBQvz5mfRyMlujvVB2ed1v3EXlLG0FF3itpbsf1jfnsLh/zoLZUtZmfWBJfvUUtrH0TQhuuP7TQ+Ik6c5i/7443XpH4ip/bvAaoE+fRJvpjEwCkYac3HB79eN6wvH+c3hs8BI3tabY+XGmoRQTOspGOE85Yx052BMqDZaVlXqxpc6DpMe6XgawBHDWDke6kYpLWdFzg8OQOFYot8t0JsmBeHCcX5jEGkKJ3oVKL3NdL6NHqCU63eBhVIwTKAY0zUOLHCtUfvlddM1LOJJEHJK3j1QC1yVIyePL1hJ1XDJ44rCBdBuSH385QKQclNJDQNpxU3bnxlvIgaxMlH5NwqfXtRvq+LNQEqYQCW7yf7qzX31qqWs5CzHSfMrX7uRW9bW8Nja1O/fvgCyuQsrMZ2F5nMfxxx6SbSWHRdiCpSVs2LBcS5ov+rtZaB8NIaZRSOMuQXzS5P79Vz8DIUy9aGXh6eVZdUG1jE+EwlGYsH8UpNgHTvHQ91UlVViXw7HT5KcdJIQ3KXMK1WP/7FVqd/Pz/nW+ldTQn0XFUjjW0sXwsz2yozfh8o+XwYnNQ+UvRwLZzmaZThN/SExgsd/tKS774wivSA1vJ7u/pwamkwXgk8JdU5Cm6aq3WLTzdmUZwGl5TV9dGT45HHzQ3wM7aRbYFLNsxhdDerNcZKidZ6hUzXRkS3xcIn6oEqXd6aSbX7VmEm7AGH2YSCACxf7gDJjvtnZoBoWHVfMgjiHNX90gKPWDazLMnw76blwltN9lazWBMTKz6vj3XzfSM0bmljSLf4aD71lh5o3V1amz9sye5EmgFHN1Ezzgy8F0wzKDFwIHuC14AiFJqFNU9VusenmbMqvgBpz8ni2qL9OR5rll95GC6UonM7TAy8XqN6Os2nDX9mjhkvWfb4MLlpYWmqqd7w9cvNvw2IIlYyVeIhnfB6wqlgrTfHIqV6DNJ6pHHJ8/wF1wkEecveyRgtVJQ5X82BmjxomXr1WDRPby85ydL++HzWBYS1l4jzFZizcbiFz6kE2LK/M2RsGVE+sqV8EQcg5ec2BGtWimNqN4+bEgXpztViTt+70bnUzZXxlcyYb1anoj9W7ss/70XPxMxQsaoLsGDE8rCFjyGu0HP+jms+01l6O5exp0w37LMGPFCyrNvCVlLywPKCdn2SeR6aZSKNDPwbyyslujvVZWF29MpnrsmAlG1ZZxibks0LNiTtLGetudnzeBGqOThlV8eUa0o5Lhb8oGHKwMl6bJ08njqksZVzG8/Bco1geQmtzLDl7WZF6bBlngY4K3TV+E1wIdqvnsU43NuNJ5PFN83V3k/cUQZiJ5NEDNbpFMdXk8Zv91aVw2N/N0s069/fZIHs/qqSm3FS0tJKa+mToKzHzLV9cOM5vDt/GY2t1uRvZvmvuZJC3P1/DukRoSnXtz9vsGptNJ7s59qUNrF6lcOz11P65EDzAXjZQY86Dysd7vi4c58BH5Ya2zh4+wLEvbWBpVhWlGQMJ8vHuQIXDew5A3QbDeDKHPlMeqImp9Tf7zr+z/Pb1br62uZJ19Ru4PYu6cmZTytg+y9udqndM33fH96sz1+LnSflIm4lpvjY18V6zivQeyZNBXsNlvJYg7fUU99Ktq69hXbz2PISlzcdGXzd7D99GTUr+4AikXONJsveqnuW3nQdYaxibat/qJzwYrzv1GrHXj/GeIggzkFn5eplwcir8MA+ucV53JNM6SMJ0QMubyrS2jrzkdUoQX39ppl2jme6XY1/KQBCEfJOnEF48eXyElce15HFZeVy4aTLl3mj7DbMBhcnJcpcqFkZaFmG5i8fqx/tdd/llgTV98Ezdn9+cOkEQxkbePFCTEfFATXMyLPUwbjMKhTGRzIkaZQgx3s/TyquYaRkWuV8JwmRlRgkoQRAEQRCEXDBOLxMWBEEQBEGYPoiAEgRBEARByBIRUIIgCIIgCFkiAkoQBEEQBCFLREAJgiAIgiBkiQgoQRAEQRCELBEBJQiCIAiCkCUioIRpTUOHn3BoN60TbYiQH+p34g+F8LVNtCGTmPWF/MF3C6+uH7YQz63byz/bhy00QRTws0etHK0rnGhDckbtF4tp33wrja7ZOatzbjFsWzc7p3XGebxqso6N0aKO766H99K17gfcn6NaZ6iAqmfZL49Q/f2Ut85ObrSHRTjkp2MqmN62m3AoZPqbIraPlrbd0++YRktiPBr/ppWYmfICrYC9z9wCwes8fjBzqcermljDEX4aGabQhDELmxViF/O15rMq0A6tn9qPw1uLC7DMmcWf+4dyXverp47A8qYpK6Li43v772qoffuHvJWjeqf2iBkzFdxmhf5znRNtSFY0rF+NtSdAQLFQub5hos0ZJQqBdicOp/q3PQju5qn8QBLMRLqS/evoimCvDeHvmCrjczozi1d/MZtl/32VL//PzOLjfvu/ULs4QlcOHyw5ZVEBNiAazb0wUFEFWv7qT6Xrw+s0v36ZjuDVnNW5YO4sZhfO4lwsD0Kz/4f8XShC6fKnea4k99Xnl8f40mI4dSL343tmCqgnqliEwmenJtqQbGigutJCLHoIf7eCtfI+puIjytvYQUABe1XLRJsi5IOWLfh6mLLjczrx6D8Wc691gF3PDiMMSn7AU8tLOBV6hlfHz7TssBVgZYBoNE/131mEPZ/1jxPz58wC4OKVPHnq/vwMXedKWOPMXQgsE6XfP8Dmrl+zKM/t3CxF+W/iOe7uqtWdiB7eq/06n+iLPPFrNtdUJLdjQfzf/Hv6tM1FLx7hbrp4fc8Sqp91EX/f5id71/DeK/qK6ln2y2dYaSVNXamfrXz2CCufTd/msNTvxN+8mu72DnhqG+74i9R7fDg8JtdK227Ctfbktq5MQ4efpspjbK9+Eq+5jbbdhGvB59yi5u/U30elRaH7oBcv99HoWk11PXgTTrQGOvzbqOzeQfWZOl2bCoH2aho7R1uGpG0u3RvilUDSTu2YIl1OPAYd1IIv5MEW3EF1Y8oRaXjpjW4DWzkNgPdmbEp3vut34m92YzXsPG86rwuNdWvfiZqPx1yXrr1WXwiPbsi6m0OEm9Ocqwlg2L4D3djaQ7k/0/hV+5IuJ74l+voiyTGZgUhUgQob8Z5MjvNePCFPYn/MPE7M10ra86iOF7fFsJPEsy9tX2Yal+a6ksdmPofW2hDh2tRyI1PI1j2LqThxnp4VC7mrBPpC59jFPL7lnAMfn6f1iWuGsnfpfuH3hc7R/t1BU12676snijcfipl+Xc/i/lWFxIJX+MEw1t2/aDWl/Uf46Z/Tf95aZ2UL/VT9oYBDj9yqXQsDBH51iW8nbuKF7PlOCeyPUcdsjm6M5+CYy2n13ZHcjoX7uO+gSeDdqa8jzlVOa/U0rJ9Ls2OQ3S9dTfbBomIOPVJMt6k9df+tyWs4dpn2n1/HSwE/e7QUt+5G4X7EytGUcrljwdwC/rcv34LlFlXo/Pr967xzesBQZqWtkP/VUcz/E77O+ooiVtlUH8eZ2BAvB65y6Xqy7L1Li/j6XcWG7yvXbnDhUlJAmdu8Ngg/f+8ax6PqmKr9YjHVny8y2BL/zuzCWYayoIbyNq5bQ93n4K0MYyYX9P3oFY7/8hnu7vp1ql6YROTVA6WqyFrYu4bXa7W/vbBSl3u06MUjbK6xcfyFeJkuPrG6qH7xOa1EPaULoI8qqp+t5IxW7r0eWPTAT0i+vPw57u56hpUXupJt1a7h9YQo6uTUN5PfJRbEn7bcaLHgbt6G7c1k6IIKjyE01dDh1x5U8RDHDgI2D2Gf7iltST5o9DQsWQhKlEh8e/1qrMox/J1A5yG6M4TxrK5thjZ9PRbcT+00eANGLNO2m0Y6kmEZp4+IxU1T3O6WPem9SG0O7ETYn1E8ATRQbgOivYab00g2tfpCNLnO686lj0iFh7DfaHdYe3gmQ4bKMLYMg1YXwR3J83DUkejfVo+u301hSscEiqcR+y6BHU9IFa4OpxNHe4CYafwC2GtDqviJj1/FjielLtN3bBbD2AXA4qZJE2Tx82Z1NSZyx9RrZaHuPO4ggJsmwwSAFnyhbbijvuTxtQeIjelEaXUR0I7NicMZxqEdm7ex2lC/IUw5avGUpNS5kPmHevlF6AqlK+ax9XaF1v9Q4A4LW7eqZe5/ZR78spfWh7S//1AodS7m283muhbzrRVX+MVDvbQ+dI73+y08uKeECn2h9QWstsL5c8N5I9azvqwElD9lCG0UsHQexCjSxEmMqpdi7P64CPfm4uR1t6gAGwOwYi5HXUO0vxSj6qU+ArEi3F+OJ34Xsuc7VrbMu6x9HqNq/1WsjlL23JlssbXOytGNhQS0ttT2gI8HEufcPr8IYkOG8dVQWYyVwYTIStSls7vqpRjtPcVsuRNgiG//XFd/TGfXSzGqciyeADYuK+L//sM1frDvMmdiQ1SVpSbFz58zixvA/7JK9W00v36ZncFr2EoKuGtR0t/R6JpN7ReL2Rm8RvPrl2l+/TIfRYc4E7vBhUuqIL13aRH/x/rZ/PajgUSZd04P8D8cxSyYqz763zhx3WDL3GL41l8Xo1y5wf954LJBPAHQf5DuflhUmu9cqE5OffNFjscquHsSe6LyJ6Ae+Al/7bakeole+Tr+H2k//Z/4NXdXKBx/YQOnfh8v8DzHAwpUVGknTc1XKq2wcUZXrv+86cH4wBJKgE/ef34EwzRB1v12loIpFYMHpiVMBLAtid9WWvC4LES69DdbL41vRqDCQSvgPaPzjNCCT5esardZdCJDC991H9K2vfRGM4RJlADbdTf4SFRJFWkjlWnZYvql3ka4h4TXCLz4uxWo2KRLnm6g40E79ISHfbi0+rbhtigEdpme1MPZVL+TjRWYzmUbnq4IWFRPXLJ9n8krNhZa8NWqdRnOQ8uWHNSdSv3AJt7t96T/u7Yku8pG7LskkS5nsmxnL1H041ejx6cThOq4S1dXnIYOP54KiLxpFpGqyEycvxNRYliwrYD4tRILdug8jl4afxoghh1HW7zuTdiJ4DN7HcdAq8+j1mUQu214clB3Wvo/ZX+79n8J9Pz7tZQibz1xgV27dDvar3AamLfI9KDt/5Rf1PXTA8Aguw4pUDKHu7fqyixTw16hYeNyduaXwKlzr2X4XM0Nst5RaPDsRC4OgLUgeb+wFWClCPu86xm9Nq11JdjNXp0PrhOIgX2Fdnx3zmbLHWavlSbiEgnk2nbPoKGdFFGVti7wHrxE3Qd6y9LXlw/+3/evJcRNJhZbZ2G5ZRbKNRL5URcu3eDqYFII37u0iIr5BQbv0NxisNxCIoF8wdwCvrLK6FmaWwzL5hegXLnB5etquUvX4f/7aADbXPireQU87VY9f2ZvV5KD9CpQWrZ+DGG857i76wib0/6lE0k5ElGfc7CMCP+VB49Z3kJ4i+pclMaC/Ocrw5S5qwJ6unTiaRh63tSVq2dRpQUunEmKoN+/zZknXKysOcLmGrMo0zNOCeT15dgwu/7jKJTXoz1EVqv/r3CoN6SqFkC9iceiPVpd91FpgeiZ5CXeejSCp9YcxiPFs+NtrE69MYxYJn2YBEX/nX14Qh7VC9bpTYQYAz81P4AsqeEtZxoPzXA2rbBhJcJ+s3hpCROp9WgP4QpsFoi8mYMHoNZ3kaPjk+neWbSPzpxdiSP3XXxH9IR+uw2PM/V4E2NQo9XjTBHI9pTwVnUaEX2eXv047XyS6kQItRwbanjaQOchup9yU7lEDfbabRbo2ZeDJSk0L+gIYj+nXLhOD2heouuc3wWYPEtsLaH56Xk6r7pKyg89ra4EPYP0YWG+zgX16OJZwAi5MCV/xSIYMTwSC18xhsVMNNgKgQECr+vFk+rhUSnEeQdE9g/v1WldMRtil3nLEIIrpFKf4G3eBlJFUAE/c82Gj/uHtVtl/BPI47Pl3v7jQNrPrw3CwZ7kZ8tvL2B24axEblNVWSHR/iFOf5b0Di29rRBbSQFv/3Ew8R3LLbP4+l3FhjDfR9GhlMT149FBopeK+N+/PDttqDB3PM97tSM5OMx0cuqbwC+f4e6uA8M819PwuRfpctrhnI/a32X6kXBz5ElAqV4eg8BJ4TnKK6Av0JPySclCC/S8qV7YWsL38T36E6+KoL5u/Xc7OfXNTk7Fc52ePcLKZ9PlW2n1jVMCeWqekJ5eos1ubCvUkF2kywe1DloTYS61VMP61VhJL8YSAiZnxB/AxjyPVl8Ij01fro1wjwdP5X004IX1q7H27DPkLKmk5jIJ+WK0fZdbhh/jwqiIiydDTtQtfPuNhcwbVQVXuKi7Hf783A2+O9JX+v/EJ6zJ/LmWXB3oNooL+/wi+PiqKaRmEj7p6klJ0lbFSyQ4SCZPkBqaG6A7/l0tobxbX9edxbitEEmIIG3Zg55RJFNntC1/mAVRnLiHqOfikCF0ttg6i6uDam5T3NN06uKQQeSs/pwaTNKLrNGKoXidAMo1RieeMoZ9c0w8PzoWxF+bZZrNn5+h9neoQurhf+HI2/+D5/tza97km4X3wE9YWZEMxZUuVpVEn151auG69F6keK5TF59QQfkTxk/T1pcPMoVEDPQQVUAN0Z0n3NJGuMeOo031pqgeJzV8R48u7yORJ5SP2U5q27HgnhF/nbfuChCzrKa6voHqSlLDcrniRNQQyknQ5sBu8qSYz7fdZnbFjIJR9V3uyF0Ib/R9N6no7CVKmpy+NJ7XlPDhCptpwsBoGDkUOe5UFFLKFd5PE9ob3Xc1r1acU0PEKML5+HBfjHCxH5Ytfiztp6pnyZhXxKJiNt0BkRPxB7wqfPh0KOsQWMP62di5SuiDTCUK2eIoMtiQapPmbRrjLLq0x5hn9IJIT6Z1nD5XYgy7mVkwtwBnWWHaOkdibjGJsN3/dfAqllvUEGFm1lNugb6+yDBl0rPoxUzhu3RrMqprNW6uqeCTvWPJUdbx5zCnKGF+HpZfyJOA6uSTbgUqHmTZA8m9pd//tW77eXp7oNStm6H3wE/UWXY9XYm8qZKFFohFMQjHZTZK6aF3mPBgpqUK+s5FARulD6T9Vg5pwxdUsLq2DbPmkXojtz3YiDuqhhNaj0awP7gJW0IYaKGpNOEkNU8ongOUK1RRZ7Ul4wHmGWcJtGR2d/M23GgJ7vmg8xDdCthrTQnFtXZIeL3UXB+rq87oeTHbbci9IcOsvQx917Y7tS+1+m5mXa7Oon3cU+JL/3fLmSxqyqLvJhXxvms05tQ95caqBIjnrLcejYDFTSJNyTxrD9KIX3UGnnmihir+zcn1LfjMCfJafSMuu3Gzi9z2DNLHHF0YTvU+LR3pe1tLaP4bC32hfqNH4OAQx2Kw7K7hbvEHOXi2HxY7SKezVE/TgO6aK2TPI7di/bhfl0c0ikUuPxgggj6hPD6TrojI/qsGsW+tKNRErTqzzxYbSEkYT6LOpKv89KppIsEgoY/B6ig21N1aNzvlh4U3OggUsnSkBJtE/+b2rQYL5hbQ6JrN3OL06zhl8jgtm1+gfUedMXd9EIPIOnp2kCVWY+J5ura/e786k/PlwFUuXBri1MUh1n2+kLnFGb5Usp7KEvikL/sFVz95Zo1xgpfuL5EXDarXqesZVqJO9HpvuOf8BJO3HKi+H23gvRePcLduqYC+wIv4dZ6fT555UZuqeCS5b+8a/IkTlj7he9FdqksvIarMyyAA6nIJG1Lj+698nffuMtqVuhxCbvA2VkOHnyZz6E03XTwSVfBUWJK5O1pej52ImjOieVkCJ1Kqx3vwGI0utxbGy5nVNP70PvzNHsIhT8Le7cFNNFWmKfumuvRAatJwLvHSWO1VxUAohGYVseAOHLqE6VbPDsr92xJlYsEdOI7WGc9955N0rNf3SQSf04cjfqzxFhur8bbtJqzvux4fDmMxNZdnxW7CtdsIh7ap+yZsGYNs+m5y0epxEunw06TPlzMvU9Gyhe1LdH2nBNjuDOMx9F0bni6Hrj8UAu07iD61DcMp6HyS6k5VXCXOlbY8gZE2PO3lxnOabhmDMXnCdOzqZ9faOXzrb8pp/Rt11+n/OMf79y0mRf/esZDWN5Kbp/+jl5+1mwvd4K2PBrnXVcSr669lXIX8rU+O8dTyNWy0r+dVwyrkat4SlHD0O8m9sXAfVfplBzKE+YwMUveryxx6RF/XVXa/dEl3Dof49uuXOfTIrTR/51aagcj+GDttc2nWnQDvwatscZSw5Tuz2aLZc1+0mKN3mGbg7elj6aOliXJo9dWZTfvgKrtXWNmiW8Igsj9mSjRHFdLNYMXOxo4GWoedaTw8x/48lJghF19W4NJ1dQbe1cEbnPxL8lyac5viSd+P3n0LP9x0K6Auh7DYOotl85Ni+Z3TAyy2puZAxcN6dy1Sl0BQrt3gF/95PSHO4rb9nXN22kU+H1+2ZthlL26e57hb8zpNZuEUZ9aqSnu+1scXZgLm9aoEQcgT2jpRF/R5UsMxi1d/MYd7/3KVO4dZTPN++7/QtPwTun6nW0xTWz8pmk5MzFDia4PN2Jy/z71Il3NRXnKJ8stj7HjYA6EatuVY+E2+HChh6lC/E3+t3bS8gCAIk4MbPP7qNWJfmM0HL2S+1b8VeZkj/XZqH34xGcrL9+rfUw51qQ10IeUZRckP+Gennb6TL08x8QSJXL8VuV9BXQSUkDUNHX71xbHpVu8WBGHycHCQL794jdgXing149qHB3n+7e0c6bezUXtZbIOtEGLXM8+sm0G0+kKEQx7shjXRZhaPL1sDJ7fzd5PyZdMjcZDn3/ZxqmQNTQ/vpWtd7oSUhPAEQRAEQRCyRDxQgiAIgiAIWZKXWXgLLXPzUa0gCIIwAv2Xc6dn7CYAACAASURBVFPPrUVyH5/pXB64NNEmjIlL42R3XgTUV++qyke1giAIwgi8fyI3ryVZcduKkQsJ05oTn6VZP2cKEDwfGJd28iKg5pTAG93H+HNs8qTrf/ZZ+vcOCYIgCKmM10NIEKYqkgMlCIIgCIKQJSKgBEEQBEEQskQElCAIgiAIQpaIgBKmLK2+EGH/Tsb+Gt+pS8Ejxyn93nFKv/fvchFTwM8etXK0rnDkojnnCYqe1vriaS+zJsACQRAmBrn3ThrqWfbLI1R/fyyvch9/1NV5TX/TTMxMVoE2a9MR5n7hJJd+vJK+H/8tuZlzNZWZhc0KsYv5WhNYFWiH1qe7Xb7CwMsr6fvxj7nCWkoe+VGebBAEYbIhAmrSUMFtVug/1znRhoweJcB2pxOH04nDuYMAbppCu+W9eHnlCQqXWxl8d5cIpziLCrAB0Wi+zogq0Iav/xUG/nASvvDXclMVhBmCXOuThSeqWITCZ6cm2pCx4qXxpwFi2HG0TbQtwowi3y++vbMIu7xYVxAEE3lZB2ry8xx3d9WyKLHdw3u1X8fw3swnfs3mmorkdiyI/5t/T5+2uejFI9xNF6/vWUL1sy5Ktf2f7F3De6/oK6pn2S+fYaWVNHWlfrby2SOsfDZ9m8NSvxN/82q62zvgqW24LfFD8+HwmBRN227Ctfbktq5Mqy+EhzTfQX2JcFPlMbZXP5nehs5eos1gW9IAeIEWfCEPdDnxLfHT5IobFcHn3KLzVDXQ4dfZDETSvaTYbDeAkvy31RfCYwuwXffCz4YOP02u86b2UuuKBXdQ3Zi0OfmJm6ZQiKaUcgJAa52VLfRT9YcCDj1yK+pQHiDwq0t8O3FBFbLnOyWwP0Ydszm6cba231xOq++O5HYs3Md9B02enzv1dcS5ymmtnob1c2l2DLL7pavJPl9UzKFHiuk2tafuj9sNxC7T/vPreCngZ4+W4tZdm+5HrBxNKZcN8XGuEGivpnEKOZsFQUhlxnmgSr9/gM1dtbB3Da/Xan97YaUu92jRi0fYXGPj+AvxMl18YnVR/eJzWol6ShdAH1VUP1vJGa3cez2w6IGfJMSUKtSeYeWFrmRbtWt4PSGKOjn1zeR3iQXxpy03Wiy4m7dhe1MLq3VFoMKDT6eFGjr8hGvBpw+92TyEfTq1YitPm/djt1kg2pv5oVFfroZSzhhL2GtDqvCKt6fY8STaa8EX2oY76tPsUe2214bwdyStUO1eSKDdmSjn68nq5JjqshPpStbVQR0d9QBtePT1G8KUThFPBgpYOg9iFGniJEbVSzF2f1yEe3NxcgwtKsDGAKyYy1HXEO0vxah6qY9ArAj3l+OJ34Xs+Y6VLfMua5/HqNp/FaujlD13JltsrbNydGMhAa0ttT3g44GEWLLPL4LYEBGdpQ2VxVgZTIisRF06u6teitHeU8yWOwGG+PbPdfXHdHa9FKMqa/EkCMJ0Y2YJqAd+wl+7Laleole+jv9H2s/BJ37N3RUKx1/YwKnfxws8z/GAAhVVmtdKzVcqrbBxRleu/7zOHQLwwBJKgE/ef34EwzRB1v12loIpFYPnpiVMhLhHCKAFj8tCpEvvjfHS+GYEKhy0ApGo7hjqd+IP+TVh0UC5DWLRTKqlBV+zG6sSwGf2HPX4cCS8Ql56oyREWkPHJuxE8Ok9Xi1b8PWAtfI+7SGs2h0Ldtz8r/b6nTS6LMSCOwweLm/jljx4BCy8fMXDu/3p/34zlpSdxespvi3G9f96ZeSyeUfNDbLeUWjw7EQuDoC1IOnFsxVgpQj7vOsZvTatdSXYzV6dD64TiIF9hSay7pzNljvMXitNxCUSyLXtnkFDOymiKm1d4D14iboP9Jalry8t4f/kGsuZvemJDAW8NFY7cTjF+yQI04EZFcJbVOeiNBbkP4d59iy6qwJ6unTiaRh63tSVq2dRpQUunEmKoN+/zZknXKysOcLmGrMo0zNOCeSah8haGyJca/5QobweWs+cp8llww40rF+NFQuV6xtAM83gXbKkhrccaTw0ZtHV6nEmBFyrzQI9+1ISz1uPRvDUqnaodit0H8zBb/4VNqwoBHJR14goPD3Hl5uqFnu59VtrKfzsMP0/XkO+5puNhVj4ijEsZqLBVggMEHhdL55UD49KIc47ILJ/eK9O64rZELvMW4YQXCGV+gRv8zaQKoIK+JlrNnzcP6zdKqNJII/zfa79+PvaEhPf49pvV3ItPIqvCYIwJZlBAkr18hgETgrPUV4BfYFUL0vJQgv0vKnmSWkJ38f36D1Lqgjq69Z/t5NT3+zkVDzX6dkjrHw2Xb6VVt84JZCnzS+KUx8lxmrK6wEbBLoCVD54Hw30YrOYyirGfCMhj5xr4PKPUYXU944zOBkezlpydaDbKC7s84vg46umkJpJ+KSrJyVJWxUvkeAgmTxBamhugO74d7WE8m59XXcW47ZCJCGCtGUPekYhQzPalgZN5A7+diV9vxpFeUEQpjQzK4Q3Vh74CSsrkqG40sU2IEqf3pukhevSe5HiuU5dfEIF5SYPf9r68kFnL1H0Ib3MZaAFh+0Y/pZDdLOa6jbVCxTN8cu5I1ElET7U01plByWqy2OxYDO8HF4NKWbNiSixlLryRR5CeOcOcv0zKFyYKUw0fqieJWNeEYuK2XQHRE4MajtU4cOnQ1kL7Yb1s7FzldAHmUoUssVRZLAh1SbN2zTGWXRpjzETi2wUcpKBiRa2giCMCzNIQHXySbcCFQ+y7IHk3tLv/1q3/Ty9PVDq1s3Qe+An6iy7nq5E3lTJQgvEovTrq19mo5QeeodLTcmwVEHfuShgo/SBtN/KIW34ggpW1zZDYrmRHqKKhcqnNmHrPoQXL/5ucD+4GjhPb46jjN6Dx4ihTyoH2nbjqYDIm5p3q/MQ3QrYH4wvapk6aw80MWaxJXJv1Bl4pkKdT7K/B+y18dyueNndhu1kfaupHvPapmoI756S9H9fy+PV99w1TahdW5KxTP3AJrXMlVVkPMQbq/h9v4d3+zfxsslho3qaBnTit5A9j9yK9eN+XR7RKBa5/GCACPqE8vhMuiIi+68axLW1olAbA+rMPltsICVhPIk6k67y06vEDPsHCX0MVkexoe7WutkpQt4bHQQKWbqIHNBAh19ddDbz9ScIwlRhBoXwoO9HG3jvxSPcrVsqoC/wIn6d5+eTZ17k+C+f4e6uI8l9e9fgTwij9Anfi+6qgFgwKarMyyAA6nIJG0j5MfvK13nvLqNdqcsh5AZvYzV0+Gky50ElljLw0hvdhruCRJ6Q9+AxGl1urMqxDA+qm6DzSao71aUDwiGPtlMh0O7UJdp6aayuwBfyJHKuIl1Oti/x01SpP7YOqv3b8IRCeOLH1OVIyfdq9TiJdPhpag4Rblb3xYI7qDaJQ29jNXZfCI+53KSfiWehfBTerYohc0w2DTfmkb6UmrcEJRz9TnJvLNxHlX7ZgQxhPiOD1P3qMoce0dd1ld0vXdIJmiG+/fplDj1yK83fuZVmILI/xk7bXJp1l5n34FW2OErY8p3ZbNHsuS9azNE7TDPw9vSx9NHSRDm0+urMpn1wld0rrGzRLWEQ2R8zJZqPFvXawgL2qhZAVJQgTGVmraq05zwf9R8eWssb3cf4c6x/5MLjxGefDUy0CYKQA56g6OnvUXzyx1zeN4Ez8bT1k6JjFhPTEMe/U/oVuDTc63Xqd+JvdmNNtz6bIAhTihkUwhOE6cArDF2Ewnu2TuzFm+/Vv6cgBZXL4bPosDMkW7e61Vmgu0Q8CcJUZ0aF8ARhOjD0qx9z5envMfd7x4GTw3s88kSDrRBi1zPPrJsxqB7BObeB2hcNaQVUMh/PvAq/IAhTFQnhCYIgCIIgZIl4oARhmjBrdunIhYSccePqzb43QBCEqYwIKEGYJhT8lXuiTZhRDJ58c6JNEARhAhEBJQjTBHmgC4IgjB8yC08QBEEQBCFLREAJgiAIgiBkiQgoQRAEQRCELBEBNZ2p34l/Jr53q2034VCIsD/+7rzJgIWXr6S+T04QBEGYmkgSed5I/8JbptMrHLTXUkS7nHhaRi4+E6kf2MSzQx9yzy1KcufQvbx77VNemPMRWb2b+XYv3394LcnFCk7yu3/9Ww7kzFpBEARhtIiAyjcGwaS9NNdfzvbqJ5nsr6SdsrRswTFJBF1n0Tvcd2UT7/afoadYgese3r0OPbe+k5144kf8/cNr+UtwJT86BfAE3/jq93j4q14+/rcGTuXFekEQBCETEsIbV9rwdEXAsprq+om2RRgfFJ6e4+Oekj/B9SXYCvZxT4mPr2V95X2fn/zrSn6SUEqv8K8fnoSSL+K6PbcWC4IgCCMzozxQrb4QHnw4jjoI19q1vQqB9moaDe4Ac/hNX0b1IpE2bKV+r7J7B9WNGYw4ESWGHdsKbbttN+Fa8Dn3UK5vMyXUp7ZrT2yPxm6VxPte04bc1HptwR1UN+p9Yua6ku/wSr7XS8VaGyJcm1puVNTvxN+8mu72Dngq8/E3dPhpqjzG9upePLrzENPb3bZb16+pdRgwlY2lHL82XiqS25ExhSrV3CfX4Bl6is8QHdrEu/0Kwbn7eHpWtnWlw8r8+cBfjHvjfZTuuARBEISbZ+Z5oCo8hB+Mst3pxOHcQUCx4H5Kn2zcgi+kiiCH06n+dZ3H3eynQ+c1si1Jl55cgc0C0TPDPLBW2LCiED2h32nHo2+zPUCswpNM/q7fiV8TOXGbtgfB3axPEFftdkd9SbvbA8TGdJK0ugho58mJwxnG4VPVg7ex2lB/pMuZbHNML0q14G5OPX5/h+kcW9w0aeJV7ZcIVldjsl9atmg27CCgpDSSoKHDT7jWbrC7gzpd/zbQ4dfEtu5c2mqzT8ivH7gXV8E73FPyIdEhC9FiH/fcquC6uoqbdUIuu+1zQIyLF2+yIkEQBCFrZp6AUgK6/CMv/m4FLLaER6OhYxN2JUCH/ld7yx4CioXK9Q1AD1Hdw7mhw5+c7VVfji1FHOmo34m/1g49+0yeI1WEJDwFnb1ESYq01q1urCabvI0dBBSwV7Uk7SaCLwcJ6q0+j1qXIU+rDU8ek98NnpLOJ9nfA9bK+0yz6BQC7Tov0IkoMSxJb95oqN9Jo+aZ0XuTvI1bkn3SVofbYjqXmk3x8z1aOov2cc8tZ4w7C97hHl0Cef3AJt7t96T/u7YkfcW3e/nGSiuc+w/+9S+pH8dFrnifBEEQ8sOMCuGNBrvNonk6QjSZP7RVAG30RrfhtlUADVRXWhI5Teqj6jy9enFU4SEc8iQ2I11OqlOewWbR1YbHGX94N1Bug1j3IVPSuRd/dyPuynIa4nb37BuD98eM2h494RzUNXrMXrtIVIEKmy5kCSnntvNJqrPLxE54AAMHMwuLhiULAQueUAiP+UNFPd/ZyxKFp+fsS/tJZ9E+OrO6EtWE8lJO8rvffz9rSwRBEISbRwRUOgxeqlQiUQU04WIjgC+4mo3rG+CMDau58HRatmC8UaJEJqzxLHO5xo0f8fff+Dp3ECP8O1nCQBAEYaKYeSG8EYhEjSG9dHjPnFf/aXNg6z5E68FjUHkfrUsW5uGh76U3mi6cpXm/or1JoWcrN5ZZkUbQjbK9lLrGGbvNdGy5YhRhP7V/F1I+TjMlRx/Ce4JvfDUuntakDd0JgiAI44MIKBPexn1EsOMZbhXrE1FiltU0PriQ7oNe6DxEN242VpKXh37r0QhY3DTqkqobOhpxWxQCu9oMZRLOLvOMNEjJrUqd2ae1tytAzOKmyaePNbbg85lij1p9I+YFaSuih0PGRPxMNHT48VQkjy2nxHOZao22NHTs1iWjqzlv7ubd4+KB6ixSlzZI+6fLn9rwwPdwlIxOPDV0+NXV2M19JgiCIOQECeGl0IbHCb6Qx5QHpVs2oLOXaLMbOwH8nZDIR3JZiHX35N6kli04TuzE37yNcGibttMUYmrZwvYlfpriSwooAbY7w3hC+iyeNjxdDsK18XoUAu07iD61jUp9e51PUt2pLfqZ+L7anpE2PO3l+JtTyxmExyg8YfabWQpBw7y8Apa4XcYlH1o9TiIdfpqaQ4Sb1X2x4A5dPpWXxmro8G9LyYMa21IGOWDZv/PwYgArjoeP49B/1n+Yn5kW0/SeOU8TFqhw0AqTMBQpCIIwtZm1qtKe87dz/cNDa3mj+xh/jvXnuuox89lnAxNtgpAOeR1Mnoiv4zVZc7kEQRCmNhLCE4TpSFsdbgvEgntEPAmCIOQBCeEJwnRC8+hZmcBwoyAIwgxAQniCIAiCIAhZIiE8QRAEQRCELBEBJQiCIAiCkCUioARBEARBELJEBJQgCIIgCEKWiIASBEEQBEHIEhFQgiAIgiAIWSICShAEQRAEIUtEQAnTGvWluuPzUmBBEARh5iAC6iZ47pqHd6+son6iDZmstO0mHAqZ/vx0TKcT1rZ7+h2TIAiCMCIioIQ8oxBod+Jwqn/bg+BuDuFrm2i7BEEQBGHsiIASxhVvYwcBBexV8pI2QRAEYeoys14mPHQv716GPSUfUn5lE65BbX/xO9xzyxldQQsv6z9HITh3H0/PAljCb/rvpSJR9os82/9Fno2XnL2PB4qUZB0Fxrqfu+ahbuhDXpjzEZ2jtSlR5k84dG0n2xotDXT4t1HZvYMOGmlyWbT9EXzOLcY8obbdhGvtye0eHw6P6jZq6PDTVHmM7dVP4jU30babcC2p9SXw0hvdBrZyGgCvzqbqM3W6NhUC7dU0duqs7/DrbDbalED3Mt0k5032LTTWrX0nan75rrkuXXutvhCe5CDA3Rwi3Bw3PZB6buLnM53NgiAIwpRjBnqgllDXv4nKon3cU+Ljnrkfoly/l98MJT//jf7zEh/33KrgurSJl28AnOFr2v49xUDhh7wQL1fiy1LQjNameJkvEp2rtvPCbAXL1Xs1m7LD6tpGk22fFlbzEcGOx5dUDg0dfk0ExUNvOwjYPIR1ZbDYsKepu2HJQlCiRDK23kC5DYj2GgSG1bXN0Kavx4L7qZ00aJ+3+kI0uc7rbPIRqfAQ9ifL0LabsCaEkiHDsfRHsi6COxJ1OY46EqHHVo+2ryuCOUzpSCcsBUEQhGnFDBRQ0HOrTujMUogCtiHVs1E/8EUqCj/kZ3ohVPAhwUILlYOW1MrGwSYVvRcMOgv/hIIF2xgElNEL0ka4h4RHCFrwuCxEuvQeJC+Nb0agwkEr4D2j8+jQgi+UzGmy2ywp4khPq28bbotCYJfJC6ME2K7zWkWiSlKk1e9kYwUmm9rwdEXAsprqeoAGOh5UPTyem44OtuDTvEXVjbojadky9rpbtqjiSrxPgiAI04KZFcIDQCE6S7+tepTiVAxZYNAYlktQYAHG6NG4CZvGlfpybIC1NkS41vyhQnk9cCJKjNXq/yscqsipagFUcRCL9ui+Y0kNbznTeGhMosvbWJ3cXmHDSoT9ZvHSEiZS68G2AqACmwUib+ZAoGjnIHJUxI4gCIKQnhkooEZBoS5HaYYSMecDGegl2uzGtkIN2UW6fFDroDURntOXTc1lEgRBEISpzowM4Q1HT4ECg/N0SeIzjM5eNXy4pGGYQj1EFYAGqivPE25pI9xjx9GmeoGiZ3KcAXQiSgw7DrNDqM2BHYXoieQus9122xjCrqM6B4IgCMJMRgSUic6iD+lhCXWjWCBTFVt/xX1p85AUeguAIUuinueueai7nlNz80AbvqCC1bVtmLWavPRGwfZgI+5omFag9WgE+4ObsJkETU7oPES3AvZa/Yri8TylfZp3S83lsrrqEmXMM+UATYxZtLAfGWbtZTgHbbtTz4lWX+X6EcRWfFFRfdK7IAiCMGURAZXCGb5W8g49g1/k2X4P7yb+NqXMeOss2seeYguuS8lyvx9Iejyev8VYz8aCfbwwOx85VLnF21jN9qCCvda0irhuFl4kqmC1WJJ5Qi1hIhYLVs7Tm/NwnZfGaie+HjuehD0ebMEdhqTsVs8OAkqyzMboDm2WnI7OJ+nQH1uzjf1OX8qsQW9jNY6uiPEcVIVTw5qdT1LdFVFnEcbLpRNJJ6LEQJf0LgiCIExlZq2qtI9lHtew/MNDa3mj+xh/jvXnuuox89lnAxNtgjDDUT1ikhMmCIIwHRAPlCCMB9pSDMmQoyAIgjCVkVl4gpBXWvCFPNiBWHAHjkZZYlMQBGE6IAJKEPJKGx6nrCclCIIw3ZAQniAIgiAIQpaIgBIEQRAEQcgSEVCCIAiCIAhZkpccqA8/DXLuL0Mo/TlfIUEQBEEQBGHCEQ+UIAiCIAhCloiAEgRBEARByBIRUIIgCIIgCFmSPwF163P888N76Xp4L/9sX5+53OPFfPCLQh7NmyGCIAiCIAi5JX8C6vLz/N3vaqh9+wgsb2LH5zKUe3WAd7iF74qIEgRBEARhipD/EF7/D9l/DpYtfixDgRs8/q2rnLLewlP/OCvv5giCIAiCINwskyQHaoiafxvA6irm1WGifYIgCIIgCJOBSSKgUEN5sULurctkUgMd/hDhkJ+O+nG1TBAEQRAEwcDkEVDc4K2PBuH2WZILJQiCIAjCpGZcBNSr5yKw+GGeKxm+3M/P3QBrIfenDeN5aax24nBW09iZDysFQRAEQRBGx/h4oP78DLW/+x3z1+2l6+EXeXxcGhUEQRAEQcgPeXkXnpn77f9C0/JP6PpdDdtGLH2D0wfHwShBEARBEIQxMi4eqOWlJXAuzKsjlHt08SyIDREZD6MEQRAEQRDGyCRKIp/F/asK4S83+Hnaz+Oz8EL42sbZNEEQBEEQBB2TR0A9XsS91kHe2TOUoYCX3qj6n72qZdzMEgRBEARBMDNJBFQBe79aRCx4nceHyX9q3RUgNn5GCYIgCIIgpGUcBNRjfGkx9PVlymyaxau/mM2y2DV++j9vDFtT61Y3VhQCuySGJwiCIAjCxJG/WXi3Psc/r1tDKcA5H7WRDK6lx4u4l2v807cGM+Q+QUOHnyaXBYjgc26hNT8WC4IgCIIgjIpZqyrtw7t9xsADrkLe/XAIpT/nVQuCIAiCIEw4kyQHShAEQRAEYeqQlxDenNlQcivcGMEB1XcpH60LgiAIgiDkl7wIqBV3FDBrFly+Mny53wcH89G8IAiCIAhCXslLDpQgCIIgCMJ0RnKgBEEQBEEQskQElCAIgiAIQpaIgBIEQRAEQcgSEVAptOALqS8tVv9253fhzmYrrW+UJ/9euSWfraXyeDEf+Ir54fi2KuQEdaz6OxomzoT1hfxBxo8gCDMQEVAptOFxOnE4nWwPKvlvrj1G60O9tD50jvf789+cgfWF/OGrRZz6t+v8YJybTiUpXH1T4k09DXT49UJb+/NNpxdda8c43DEdHOSN/y5iq4goQRBmGCKgZiwF7H3mFgheoebVibYFaHNgVwIEesBeNYVESI8Phya4HU4fkQoPYf9OJtAnNO784NkrvBMrYusLcjsRBGHmIHe8GcoPXxjdC5zHi9YqO0R7aTwagQrHFH3fYRuerghYVlNdP9G2jCc3ePzVa8S+MJu9j0+0LYIgCOND/l4mrNHqC+GpiG8pBNqraezUl2jBF/JgJ0OZ+p34m1fT3d4BT23DbdH29/hweIyxnuRLh4dpr2034Vq7rkiA7dVP4r3pY4NIlxNP3pwnt/DtNxayNLF9hfdfvsCuXcOVyVS2AOcX4NS/pX+Bc6svhAcfjqMO3blK13cNdPh1faIvk+g383cg3uckzlcLjgqIdLVBSwuRWg+ONkB3Lhs6/DRVHmN7dS8e3XiJBXdQ3aj1XttuwrXgc+6h3D/cWDGPOX3facdE6rhQx9f54V9ofSJKDDu2FdykTenOd+qYA4glLVRtjxrrbvWF8NhSjyfjtVm/E3+zG2v8I4uHcMiT5lzpODjIG3WwdX0hj76aflzFr09DnwmCIExR8uiBUvMnPBURfIkQRwds1YU36nfiD3mwBXckwiDbg+BuNufBWHA3b8P2plZPVwQqPMYybbtpckGg3akLqRgfQA0dfsK1C3VldhDATVPWieLasaEL37QHsNXmKX9nawnNbyxkXuicli/Vyy9CcNfT5Xy7OV5IE08fn9eVuUJaofV4IcsYJHpqmDYrPIQfjLI9fp4UC+6n9KGpFnyhbVR2J/vO0XUed7OfjoT3xZIUEnrqy7GhED2hbbc5sBMh3ALQRjhTGM/ipkkTXvFxYHU16toDsOPR29UeIGYYKw10+B2EnU7dmFOw18bt9tL4ZjovUgPVlRZiwT3Dj5UVNqz6YxuNTaO6DrQxZwtofaKFDIezJSMjXJudT1Kd6HdMYcrMPxJ+8P4AWAsMwlQQBGG6kjcB1dDRiNuiEGjX/1r30uhJ/gpu3erGqgTo0P0a9TZ2EFBSH6CGX70tYSKAbUnycd6wZCFwnt4Ub0ecFjwuC7Fgh05UeWn8aYAYdtXjMVra6nBbIvj0HoTOJ9mfp/yd+/92HqX9n7Lru8lX3/R891Pe74elq7VZe1uLmQecPnYtWebwFfqYw3yTx+LRxbMgNshbB4dp1OCZ8+LvVsBiSzwcGzo2YTf1HS17CCgWKtc3QGcvUV11rT5dMvIKG1ZdX7VW2aEnnBgnkaiSIYynEGjXjYMTUWJpRFqky5n0cGh2JMeKl8ZqowfJe/CYsZ6WMBEsuLfq+rKtDrdFofvgMJ6T+p34a+3Qsy/FczScTaO6DrT2Az8dm7dUz2iuzTFxaogYRTgzhPG8jdU4nE7xPgmCMC3IWwjPbrOAEsCfUdA0UG6DWPch003bi7+7EXdlOQ0w6hu6t3EfnpAHTyiEJ134Q/N6pDwAOw/R/ZSbyiWjb00VaxatLRNKdnaPTCELF0DfiSv0GPYP8t6JK9y1opgKrtGz6zqfPh0XVKqIqlg7h1IUAu3GGu0LC4Gbew+h3WbRPEIhmswf2iqAHqIK2nmtwFEBoIqiVgAlqnlPbwQpMgAABMxJREFU1PBdLJg8Ou/BYzS63ClhvBSB3Pkk1Snjy+z9acPjNKljcxhXIyn42vAFN9HkStqrijxfajiyIjW8VZ2ioYezaXTXAUsWgnJsmOtp9Ix8bQqCIAgjkfccqPEj/lDS8kCaQ4Sb85mXFBk+F2bcGeRiPyy9YyGtb8T3XeH9l2O8ZSoZOT8It+egyRHyx3qj23DbKlTx2uPDh5rbpApQTa60OVSvlmsb4dA2w/etVS1AjmOimngy5OFoOT96jCKuBUeFQqA9jS1pcvFmNiOEhgVBEKYJeQvhRaLGkE8qXnqjYK28zzTlW801Ido7Ri+Ol8bqZP5GIgTS2UsULbykp/4+Ki0QPTP61rxnzgMLKR+XmVaDnL8ApSvmYIzEFXL3ijlw4brqmWou4a4ShTe1/Cf1z5xkrvLzczfAWsj968du1cj9q5UBGtavJnq0jdajEexVLaoHROvf1iq7KsScTkOezfZgpjDezaGKtwj7Rwoj6UOybQ7sacJyuSGL68B8vuvLsY2hxdH03ZhYVoCVG5weLjQsCIIwTcibgPI27iOCHY9hTZwGOnzJ7dajEbC4adStpJzIz9h1s7/qK7BZIBaNh4bU5GRj0nEDHU+p+SdZrX+o5fq4m0eXfN7qu7lFFt86pkDJPLb+U2FiX8U/zeOukiu8/+/XdCWLWbh1FBW+OsgpClm9btaY7IFM/Wsqc+Y82DbR6DqvJoi3hIlUbGKjLd4vmcJXcZGaZW7aaOw2i1/zjDMdrUfVyQrhWjuRo/nzMo3mOlDztOxsjJdJa7cqxrCVJ6+xNLP2RnNtGuobpZD94V1FEBvKmNje0OGfhouNCoIwU8ljCK8Nj7OHDv82XZ6MmpuUeFi2bMFxYif+Zn34ZmyhsbTTu03TpVs9TiIdfpq08B6QGoJJeTAlc52S9XlprIYO/7aUPKjUkKEqEjJR8U8L+JZzTnJHSTwEp5s91x6jtWeQ5qcX68JzCm8+pAvPtcd4c3U5Dz5dzl1PG9voC52j/bv6nKchQv8NW11F/JCxrkLehscJvpDHlAelyz87ESVWa8fas0/rzzbCPR48FRA544X6nZm9fy1hIrV2zYOYQ/HSsgVfVQhPYgwoBNp92JpTstlUofyguqRBXp/5o7kOOp+kesVuwrXxMhF8zh2U+7dRqauq1ePDoeuTWHAH26ONNOkLjebaTNSntqEf52nD4usLeWiYpTFAFa9NWBKCbPKEvwVBELJn1qpK++RYSVG4KVQhdt0oqhL7SbNmVAF7fbNZGLzClyfJYpqTDzWfrrJb1i0anlm8+os53PuXq9z57NAw5eLrhk22/EFBEITskZXIpwl/dfucYfZf53xKLtQQNf82gNU1hz/849hDedOZVp/qfeoQ8TQsP3xhDvdaB9g1rHhCW4qBkdfSEgRBmAKIB2raUMjWPYu5q8S0u/9TflHXb1oCQcfjxXzwVdjlmQwvFJ4M6FYEv4lV6mcM6wv5wzMFvDHc+NGFxfO7Wr8gCML4IQJKEARBEAQhSySEJwiCIAiCkCXTaCFN4WYpnTvRFghTib5LE22BIAjCxCECSkiw5s7CkQsJgsbvgzf3OiBBEISpTF5yoBYtnJfrKgVBEARBECYNkgMlCIIgCIKQJf8/nvrwaCZ9O2AAAAAASUVORK5CYII=;imageBorder=default;" vertex="1" parent="1">
                    <mxGeometry x="47.98" y="1450" width="484.03" height="130" as="geometry"/>
                </mxCell>
                <mxCell id="95" value="&lt;span style=&quot;font-size: 16px;&quot;&gt;find ()&lt;/span&gt;" style="text;html=1;strokeColor=default;fillColor=none;align=center;verticalAlign=middle;whiteSpace=wrap;rounded=0;" vertex="1" parent="1">
                    <mxGeometry x="500" y="1100" width="150" height="80" as="geometry"/>
                </mxCell>
                <mxCell id="97" value="&lt;span style=&quot;font-size: 16px;&quot;&gt;findIndex ()&lt;/span&gt;" style="text;html=1;strokeColor=default;fillColor=none;align=center;verticalAlign=middle;whiteSpace=wrap;rounded=0;" vertex="1" parent="1">
                    <mxGeometry x="700" y="1100" width="150" height="80" as="geometry"/>
                </mxCell>
            </root>
        </mxGraphModel>
    </diagram>
</mxfile>